<?xml version="1.0" encoding="utf-8"?>
<!-- Generator: Adobe Illustrator 21.0.0, SVG Export Plug-In . SVG Version: 6.00 Build 0)  -->
<svg version="1.1" id="组_16" xmlns="http://www.w3.org/2000/svg" xmlns:xlink="http://www.w3.org/1999/xlink" x="0px" y="0px"
	 viewBox="0 0 675 370" style="enable-background:new 0 0 675 370;" xml:space="preserve">
<style type="text/css">
	.st0{fill:#C7F7CC;}
	.st1{fill:#FFE192;}
	.st2{fill:#C9EECA;}
	.st3{fill:#F0F0FA;}
	.st4{fill:#7B8193;}
	.st5{fill:#EDF8FD;}
	.st6{fill:#A9CCEB;}
	.st7{fill:#78CBF4;}
	.st8{fill:#B1AEE3;}
	.st9{fill:#AEABE0;}
	.st10{fill:none;stroke:#FFFFFF;stroke-width:3;stroke-linecap:round;stroke-linejoin:round;}
	.st11{fill:none;stroke:#A9CCEB;stroke-width:2;stroke-linecap:round;stroke-linejoin:round;}
	.st12{opacity:0.8;fill:#EDF8FD;enable-background:new    ;}
	.st13{fill:#F0F0F0;}
	.st14{fill:#FCD2C5;}
	.st15{fill:#8E9ED6;}
	.st16{fill:#AFD0F2;}
	.st17{fill:#6162AC;}
	.st18{fill:#FFFFFF;}
	.st19{fill:#A2DCF8;}
	.st20{fill:#D5DBE0;}
	.st21{fill:#2E3955;}
	.st22{opacity:0.3;fill:#ABD3E9;enable-background:new    ;}
	.st23{opacity:0.4;fill:#ABD3E9;enable-background:new    ;}
	.st24{fill:#EAEDEF;}
	.st25{fill:#F7F7F7;}
	.st26{fill:#8FD4F6;}
</style>
<g id="组_21">
	<path id="形状_9" class="st0" d="M454,285.8c0,0,0.3-15.6,8-16c3.5-0.2,3.9,8,2,11c-1.4,3.5-3.1,6.8-5,10l1,5c0,0,6.7-15.4,15-16
		c2.9-0.2,5.5,0.8,5,2c-0.9,3.4-3.5,9.4-7,12s-8.3,7.6-11,7c0.5,3.4,2.5,9.4,3,10c0.7-4.8,5.5-12,10-14c2.9-2,6.7-5.2,9-5
		s3.5,3.2,0,8s-9.1,11.2-17,14c0.4,1.7,0.8,3.3,1,5c0,0,10.5-10.8,15-10s3.1,2.4,3,4s-6.5,8.6-13,12c1.8,3.1,3.8,6.2,6,9
		c0,0,10.3-11.8,11-14s9.3-22.1,10-27.1s0.5-15-1-20s-1.5-9-2-11s-4.1-3.6-6-3c-1,0.3-11.1-2.8-14-3s-6.3-0.6-6-4s2.3-5,6-5
		c3,0.1,6,0.4,9,1c0,0,9.5,5.4,10,7c-0.1-3-0.5-6-1-9c0,0-8.9,1-15-3s-8.1-5.6-8-8s5.3-3.6,9-2s11.7,3.6,14,9c0.1-7.6-4.9-9-10-13
		s-8.3-8.4-8-10s5.1-2.6,8-1s7.5,5,8,7c1.1-2.8,2.7-14,6-16s4.5-2,5-1s0.9,8,0,12s-6.5,13.4-7,15s1,9,1,9c1.2-0.5,2-1.7,2-3
		c0.1-2.4,2.2-9.1,5-12c3.7-3.8,7.7-4.4,11-3c1.8,0.8,1.9,1,0,4s-8.3,11.4-16,16c-0.1,4.4,0,8,0,8s2.7-4,4-5s13.3-8,14-9
		s3.7-0.8,3,0c-1.5,2.7-3.6,5.1-6,7c-4.1,3.2-12.5,11.4-14,12s-2.3,4-1,6s2,2,2,2s0.1-3.2,1-4s4.3-5,8-7s8.7-3.2,10-12
		c1.3,3.6-0.3,10-1,11s1,3,1,3s9.3-4.2,10-4s-1.7-12.2,4-17s4.1-5,5-3s1.5,3.6,0,8s-3,11-3,11l10-4c0,0-3.9-13.4-1-18s5.3-5.6,6-5
		s1.3,6.6,1,8s-1.9,12.6-2,13s8-3,8-3s-2.7-10,1-16s7.9-9.6,9-9s2.3,3.4,1,8s-5,15-5,15l7-2c1.4-1,2.5-2.4,3-4
		c0.9-2.8,5.1-11.2,8-12s6.9-3.4,8-2c-0.3,3.6-5.3,13.2-10,16c2.9,1.2,6.7-0.2,10,1s11.3,6.4,11,9c0.7,2.4-1.9,5.4-5,5
		s-17.3-7.2-18-9c-0.7-1.5-2.4-2.4-4-2c-0.9,0.4-7.5,0.4-10,3c6.1-0.2,14.1-0.4,17,4s2.7,7.6,2,8s-3.5-0.2-6-1s-12.3-6.4-13-7
		s-2.7-2.2-4-2s-5.5,0.8-8,2s6.9-1,8,0c0.5,0.2,8.5,2.8,10,6c1.5,3.2,3.1,5.6,1,6s-7.7-4.2-9-4s-12.5-3.8-14-5s-4.3,0.6-6,1
		s-3.1,0.8-4,2s2.9,0.8,4,1s10.3,4.6,11,6s3,2,3,2s0.9,3.8-3,4s-14.5-4.8-16-6s-7.7-5.2-11-4c-3.8,1.5-7.2,3.9-10,7
		c-2.3,2.8-12.5,20.4-13,23.1s-6.5,18.2-7,21s-2.3,7.4,1,7s3.9-2,4-5s1.9-11.2,5-13s6.3-2.2,7-1c0.5,6.6-4.1,11.6-6,14s-2,3-2,3
		s5.7-2.4,7-3s2.5-3,3-7s6.9-10.6,8-12s2.7-2.4,4-1s-0.5,6.6-2,9s-4.9,8.2-6,9c3.8-1.4,7.5-3.1,11-5c0,0-2.1-11.8,2-17s5.3-4.2,6-4
		s3.9,2.8,0,12c-2.7,7-1,6-1,6l7-4c0,0,0.1-7,1-8s3.5-5.8,7-8c4.3-1.2,3.9-4.4,5-4s1.9,1,2,3s-3.9,11-10,17c2.9,0.6,11.5-0.6,14,1
		c3.3,0.4,6.5,2.8,7,5s0.5,4.6-3,5s-18.7-5-20-7s-5.7,0-7,1s-1,1-1,1s4.3-0.4,6,1s9.1,3.8,10,9s-1.1,5-3,5s-6.7-2.2-8-3
		s-9.1-3.4-13-8c-3.3,0.8-4.9,0.6-6,2s-3.9,0.2-3,2s0.3,1.4,2,2s1.5-0.2,4,1s8.3,4.2,8,9s-4.9,7.8-8,4s-9.6-13.8-11-14s-7.5,1-9,2
		s3.1,3,7,5s9.1,6.2,9,8s-3.3,3.4-8,0c-5.9-1.8-10.9-8.4-11-11c-3.3-0.2-8.5,1.2-11,3s-7.7,9-12,15c-3.3,7.8-8.9,18.8-10,19
		c-1.5-2.8-2-4-2-4l6-10c0,0-9.1-16.4-10-17s-20.1,3.4-23,0s-0.3-4.2,2-5s17.3-1.8,19,1c-0.1-2.2-5-7-5-7s-18.5-2-21-2s-2.5-3.6-1-5
		c1-1.1,1.7-2.5,2-4c0,0-4.1,0.6-6-1s-3.3-6,0-7s8.3-1.8,10-1c-3.3-2.6-7.9-4.8-10-7s-0.5-4,2-4S448.4,280.2,454,285.8z
		 M514.9,260.8c0,0-6.5,6.6-13,7c-0.1,4.4,0.3,10.6,2,12c1.3-2.4,0.3-2.8,2-5S513.7,265.6,514.9,260.8L514.9,260.8z M447,291.9
		c0,0,5.5,1.2,8,1c1.9,0.4,1.7,2.2,2,3S449.8,295.1,447,291.9z M458,299.9c0,0-5.5,3.2-8,2c3.3,2.4,7.7,2,9,3S458,301.9,458,299.9
		L458,299.9z M477.9,262.8c2.7-1.5,6-1.9,9-1c5.3,1.4,8.5,2.8,8,7s-3.9,4-6,3s-9.7-2.6-11-4S476.7,264.8,477.9,262.8L477.9,262.8z"
		/>
	<path id="形状_9_拷贝" class="st0" d="M160.2,221.1c0,0-0.2-11.9-6.1-12.2c-2.7-0.2-3,6.1-1.5,8.4c1.1,2.6,2.4,5.2,3.8,7.6
		l-0.8,3.8c0,0-5.1-11.8-11.5-12.2c-2.2-0.2-4.2,0.6-3.8,1.5c0.7,2.6,2.7,7.2,5.4,9.2s6.4,5.8,8.4,5.3c-0.5,2.6-1.2,5.2-2.3,7.6
		c-0.5-3.7-4.2-9.2-7.6-10.7c-2.2-1.5-5.1-4-6.9-3.8s-2.7,2.4,0,6.1s7,8.6,13,10.7c-0.3,1.3-0.6,2.5-0.8,3.8c0,0-8-8.2-11.5-7.6
		s-2.4,1.8-2.3,3.1s5,6.6,9.9,9.2c-1.4,2.4-2.9,4.7-4.6,6.9c0,0-7.9-9-8.4-10.7s-7.1-16.8-7.6-20.6s-0.4-11.5,0.8-15.3
		s1.2-6.9,1.5-8.4s3.1-2.7,4.6-2.3c0.8,0.2,8.5-2.1,10.7-2.3s4.8-0.5,4.6-3.1s-1.7-3.8-4.6-3.8c-2.3,0.1-4.6,0.3-6.9,0.8
		c0,0-7.2,4.1-7.6,5.3c0.1-2.3,0.3-4.6,0.8-6.9c0,0,6.8,0.8,11.5-2.3s6.2-4.3,6.1-6.1s-4-2.8-6.9-1.5s-8.9,2.8-10.7,6.9
		c-0.1-5.8,3.8-6.9,7.6-9.9s6.4-6.4,6.1-7.6s-3.9-2-6.1-0.8s-5.7,3.8-6.1,5.3c-0.9-2.1-2.1-10.7-4.6-12.2s-3.4-1.5-3.8-0.8
		s-0.7,6.1,0,9.2s5,10.2,5.3,11.5s-0.8,6.9-0.8,6.9c-0.9-0.4-1.5-1.3-1.5-2.3c-0.1-1.8-1.7-7-3.8-9.2c-2.8-2.9-5.9-3.4-8.4-2.3
		c-1.4,0.6-1.4,0.8,0,3.1s6.4,8.7,12.2,12.2c0.1,3.4,0,6.1,0,6.1c-0.9-1.4-1.9-2.6-3.1-3.8c-1-0.8-10.2-6.1-10.7-6.9s-2.8-0.6-2.3,0
		c1.2,2.1,2.7,3.9,4.6,5.3c3.1,2.4,9.6,8.7,10.7,9.2s1.8,3.1,0.8,4.6s-1.5,1.5-1.5,1.5s-0.1-2.4-0.8-3.1s-3.3-3.8-6.1-5.3
		s-6.6-2.4-7.6-9.2c-1,2.7,0.2,7.6,0.8,8.4s-0.8,2.3-0.8,2.3s-7.1-3.2-7.6-3.1s1.3-9.3-3.1-13s-3.1-3.8-3.8-2.3s-1.1,2.7,0,6.1
		s2.3,8.4,2.3,8.4l-7.6-3.1c0,0,3-10.2,0.8-13.7s-4-4.3-4.6-3.8s-1,5-0.8,6.1s1.5,9.6,1.5,9.9S80,189,80,189s2.1-7.6-0.8-12.2
		s-6-7.3-6.9-6.9s-1.7,2.6-0.8,6.1s3.8,11.5,3.8,11.5L70,186c-1.1-0.7-1.9-1.8-2.3-3.1c-0.7-2.1-3.9-8.6-6.1-9.2s-5.3-2.6-6.1-1.5
		c0.2,2.7,4.1,10.1,7.6,12.2c-2.2,0.9-5.1-0.2-7.6,0.8s-8.6,4.9-8.4,6.9c-0.5,1.8,1.5,4.1,3.8,3.8s13.2-5.5,13.8-6.9
		c0.5-1.2,1.8-1.8,3.1-1.5c0.7,0.3,5.7,0.3,7.6,2.3c-4.7-0.2-10.8-0.3-13,3.1s-2.1,5.8-1.5,6.1s2.7-0.2,4.6-0.8
		c3.4-1.6,6.8-3.3,9.9-5.3c0.5-0.5,2.1-1.7,3.1-1.5c2.1,0.3,4.1,0.8,6.1,1.5c1.9,0.9-5.3-0.8-6.1,0c-0.4,0.2-6.5,2.1-7.6,4.6
		s-2.4,4.3-0.8,4.6s5.9-3.2,6.9-3.1s9.6-2.9,10.7-3.8s3.3,0.5,4.6,0.8c1.2,0.1,2.3,0.7,3.1,1.5c0.7,0.9-2.2,0.6-3.1,0.8
		s-7.9,3.5-8.4,4.6c-0.6,0.8-1.4,1.3-2.3,1.5c0,0-0.7,2.9,2.3,3.1s11.1-3.7,12.2-4.6s5.9-4,8.4-3.1c2.9,1.2,5.5,3,7.6,5.3
		c1.7,2.1,9.6,15.6,9.9,17.6s5,13.9,5.3,16s1.8,5.7-0.8,5.3s-3-1.5-3.1-3.8s-1.4-8.6-3.8-9.9s-4.8-1.7-5.3-0.8
		c-0.4,5,3.1,8.9,4.6,10.7c0.6,0.7,1.1,1.4,1.5,2.3c0,0-4.3-1.8-5.3-2.3s-1.9-2.3-2.3-5.3s-5.3-8.1-6.1-9.2s-2.1-1.8-3.1-0.8
		s0.4,5,1.5,6.9s3.8,6.3,4.6,6.9c-2.9-1-5.7-2.3-8.4-3.8c0,0,1.6-9-1.5-13s-4-3.2-4.6-3.1s-3,2.1,0,9.2c2.1,5.3,0.8,4.6,0.8,4.6
		l-5.3-3.1c0,0-0.1-5.3-0.8-6.1s-2.7-4.4-5.3-6.1c-3.3-0.9-3-3.4-3.8-3.1s-1.4,0.8-1.5,2.3s3,8.4,7.6,13c-2.2,0.5-8.8-0.5-10.7,0.8
		c-2.5,0.3-5,2.1-5.3,3.8s-0.4,3.5,2.3,3.8s14.3-3.8,15.3-5.3s4.4,0,5.3,0.8s0.8,0.8,0.8,0.8s-3.3-0.3-4.6,0.8s-6.9,2.9-7.6,6.9
		s0.9,3.8,2.3,3.8s5.1-1.7,6.1-2.3s7-2.6,9.9-6.1c2.5,0.6,3.8,0.5,4.6,1.5s3,0.2,2.3,1.5s-0.2,1.1-1.5,1.5s-1.1-0.2-3.1,0.8
		s-6.3,3.2-6.1,6.9s3.8,6,6.1,3.1s7.3-10.5,8.4-10.7c2.4,0.1,4.7,0.6,6.9,1.5c1.1,0.8-2.4,2.3-5.3,3.8s-6.9,4.7-6.9,6.1
		s2.5,2.6,6.1,0c4.5-1.4,8.3-6.4,8.4-8.4c3,0,5.9,0.8,8.4,2.3c1.9,1.4,5.9,6.9,9.2,11.5c2.5,6,6.8,14.4,7.6,14.5
		c1.1-2.1,1.5-3.1,1.5-3.1l-4.6-7.6c0,0,7-12.5,7.6-13s15.4,2.6,17.6,0s0.2-3.2-1.5-3.8s-13.2-1.4-14.5,0.8c0.1-1.7,3.8-5.3,3.8-5.3
		s14.2-1.5,16.1-1.5s1.9-2.7,0.8-3.8c-0.8-0.9-1.3-1.9-1.5-3.1c0,0,3.1,0.5,4.6-0.8s2.5-4.6,0-5.3s-6.3-1.4-7.6-0.8
		c2.5-2,6.1-3.7,7.6-5.3s0.4-3.1-1.5-3.1S164.5,216.8,160.2,221.1z M113.6,202c0,0,5,5,9.9,5.3c0.1,3.4-0.2,8.1-1.5,9.2
		c-1-1.8-0.2-2.1-1.5-3.8S114.5,205.6,113.6,202z M165.6,225.7c-2,0.5-4.1,0.7-6.1,0.8c-1.5,0.3-1.3,1.7-1.5,2.3
		S163.4,228.1,165.6,225.7z M157.2,231.8c0,0,4.2,2.4,6.1,1.5c-2.5,1.8-5.9,1.5-6.9,2.3S157.2,233.3,157.2,231.8z M141.9,203.5
		c-2.1-1.2-4.6-1.4-6.9-0.8c-4.1,1.1-6.5,2.1-6.1,5.3s3,3.1,4.6,2.3s7.4-2,8.4-3.1S142.8,205,141.9,203.5z"/>
	<g>
		<path class="st1" d="M530.6,147.7c0,0-3.7-2.8-7.2,3.1c-0.8,1.4-1.6,2.8-2.4,4.2l-0.1,0.1c0,0-5.5,10.2-12,22.6
			c0-2.1-0.1-4.7-0.5-7.9c-0.7-5.8-4.5-4.7-5.3-4.4l0,0c0,0-4.3,1.7-1.1,7.8c1.5,2.8,3.2,5.5,5,8.1c-2.1,4-4.2,8.2-6.3,12.2
			c0,0,0,0-0.1,0.1c0-1.1-0.1-2.3-0.3-3.7c-0.7-5.8-4.5-4.7-5.3-4.4l0,0c0,0-4.3,1.7-1.1,7.8c1.1,2.1,2.3,4.2,3.6,6.2
			c-2.8,5.5-5.2,10.6-7,14.5c-0.1-0.9-0.2-1.9-0.3-3c-0.7-5.8-4.5-4.7-5.3-4.4c0,0-4.3,1.7-1.1,7.8c1.2,2.2,2.5,4.3,3.8,6.4
			c-2,4.8-3.9,8.8-6,14.9c-0.1-1.7-0.2-3.6-0.5-5.8c-0.7-5.9-4.8-4.8-5.5-4.5l0,0c0,0-4.5,1.7-1.1,7.9c1.6,2.8,3.3,5.5,5.2,8.1
			c-2.7,8.8-5.9,21.6-10.1,43c2.7,0,3,0,3,0s5-29.3,11.4-47.5c1.7-0.6,5.2-1.8,10.6-3.4c5.6-1.6,3.9-5.3,3.5-5.9l0,0
			c0,0-2.4-4-7.8,0.2c-1.7,1.4-3.3,3-4.7,4.8c0.3-0.7,0.6-1.5,0.9-2.1c0.9-2.2,1.9-4.5,2.9-6.9c0.2,0.3,0.4,0.6,0.6,0.9
			c0,0,0.3-1.1,0.4-3.2c0.8-1.9,1.7-3.8,2.5-5.7c2.2-0.2,5.5-0.8,9.6-2c5.6-1.6,3.9-5.3,3.5-5.9l0,0c0,0-2.4-4-7.8,0.2
			c-1,0.7-1.9,1.5-2.8,2.3c2.4-5.2,4.9-10.5,7.3-15.6c2.2-0.2,5.5-0.8,9.8-2c5.6-1.6,3.9-5.3,3.5-5.9l0,0c0,0-2.4-4-7.8,0.2
			c-1,0.8-2,1.6-2.9,2.4c2.6-5.2,5-10.1,7.3-14.5c1.9-0.1,6-0.4,11.9-2.2c5.6-1.6,3.9-5.3,3.5-5.9l0,0c0,0-2.4-4-7.8,0.2
			c-2.2,1.7-4.4,3.6-6.4,5.5c2.6-5,4.8-9.1,6.4-11.7c2-1,5-2.7,8.8-5.7C534,150.9,531.2,148.2,530.6,147.7z"/>
		<path class="st1" d="M137.4,255.8c-2.1-1.7-4.3-3.3-6.6-4.7c-5-3.2-6.7,0.6-6.7,0.6c-0.3,0.6-1.4,4,3.5,4.9
			c1.8,0.3,3.4,0.5,4.8,0.6c-5.2,1.6-8.7,3-12.8,4.5c-1.7-1.2-3.4-2.4-5.2-3.5c-5-3-6.6,0.6-6.6,0.6l0,0c-0.3,0.6-1.3,3.8,3.5,4.7
			c0.9,0.2,1.7,0.3,2.5,0.4c-3.3,1.3-7.7,3.2-12.5,5.3c-1.6-1.2-3.3-2.3-5.1-3.3c-5-3-6.6,0.6-6.6,0.6c-0.3,0.6-1.3,3.8,3.5,4.7
			c1.2,0.2,2.2,0.3,3.1,0.4c0,0,0,0-0.1,0.1c-3.5,1.6-7.1,3.2-10.6,4.8c-2.1-1.6-4.3-3.2-6.6-4.5c-5-3-6.6,0.6-6.6,0.6
			c-0.3,0.6-1.3,3.8,3.5,4.7c2.7,0.5,4.9,0.7,6.6,0.7c-10.7,5-19.6,9.2-19.6,9.2s0,0,0,0.1c-1.2,0.6-2.5,1.2-3.7,1.8
			c-5.1,2.7-2.9,6-2.9,6c0.4,0.5,2.6,3.1,5.8-0.7c2.6-3.1,4.2-5.6,5.2-7.2c2.3-1.2,5.9-2.9,10.2-4.9c-1.7,1.7-3.4,3.4-5,5.2
			c-3.8,4.4-0.5,6.6-0.5,6.6c0.5,0.4,3.5,1.9,5.2-2.7c1.8-5,2.2-8.4,2.4-10c3.8-1.7,8-3.6,12.6-5.5c-0.7,0.8-1.4,1.6-2.1,2.4
			c-3.8,4.4-0.5,6.6-0.5,6.6l0,0c0.5,0.4,3.5,1.9,5.2-2.7c1.2-3.6,1.9-6.3,2.1-8.2c4.4-1.9,9-3.7,13.5-5.5c-0.7,0.8-1.4,1.5-2.1,2.3
			c-3.8,4.4-0.5,6.6-0.5,6.6l0,0c0.5,0.4,3.5,1.9,5.2-2.7c1.2-3.4,1.8-6.2,2.1-8c1.7-0.7,3.3-1.3,5-1.9l2-0.8c2-0.8,4-1.5,5.9-2.2
			c0.6-0.2,1.2-0.5,1.8-0.7c-1.6,1.1-3,2.3-4.3,3.8c-3.8,4.4-0.5,6.6-0.5,6.6l0,0c0.5,0.4,3.5,1.9,5.2-2.7c1.6-4.6,2.8-7.4,3.4-8.9
			c15.7-4.7,40.6-7.6,40.6-7.6s0-0.3,0.1-2.5C155.9,251.7,144.9,253.9,137.4,255.8z"/>
	</g>
	<path id="形状_10" class="st2" d="M136,293c0,0-9.9,6.2-10,11s2.3,8.7,3,10s1.1,0.9,1,2s-1.2-1.6-3-4s-5-9.6-6-11s-4.4-6.1-8-6
		s-8.9-1.5-11-1s-2.9,1-1,4s3.8,4,5,7s4,7.2,7,8s13.1,1.7,14,4c-1.3,0.6-0.4,0.2-3,0s-11.9-2.1-14-1s-8.5,8.5-9,10s1.1,0.9,4,1
		s6.8,2.2,10,2s9.6-4.8,11-7c1.2-1.9,3.7-2.5,5.6-1.3c0.1,0.1,0.3,0.2,0.4,0.3c1.5,1.5,4.8,1.2,6,3s5.3,4.9,7,6s1.5,1,2,0
		s-0.5-0.6-5-5c-3.7-3.6-5-3.2-7-4s-4.6-3.3-3-6s3.3-3.6,4-5s2.4-2.3,2-6S135.4,296.1,136,293z"/>
</g>
<g id="组_14">
	<ellipse id="椭圆_721" class="st3" cx="313" cy="349.5" rx="198" ry="19.5"/>
	<path id="圆角矩形_2" class="st4" d="M152,83h319c12.7,0,23,10.3,23,23v218c0,12.7-10.3,23-23,23H152c-12.7,0-23-10.3-23-23
		V106C129,93.3,139.3,83,152,83z"/>
	<path id="圆角矩形_2_拷贝" class="st5" d="M158,97h307c12.7,0,23,10.3,23,23v193c0,12.7-10.3,23-23,23H158
		c-12.7,0-23-10.3-23-23V120C135,107.3,145.3,97,158,97z"/>
	<path id="矩形_5" class="st6" d="M162,118h48c5.5,0,10,4.5,10,10v34c0,5.5-4.5,10-10,10h-48c-5.5,0-10-4.5-10-10v-34
		C152,122.5,156.5,118,162,118z"/>
	<path id="矩形_5_拷贝" class="st7" d="M162,189h48c5.5,0,10,4.5,10,10v34c0,5.5-4.5,10-10,10h-48c-5.5,0-10-4.5-10-10v-34
		C152,193.5,156.5,189,162,189z"/>
	<path id="矩形_5_拷贝_2" class="st6" d="M162,259h48c5.5,0,10,4.5,10,10v34c0,5.5-4.5,10-10,10h-48c-5.5,0-10-4.5-10-10v-34
		C152,263.5,156.5,259,162,259z"/>
	<path id="矩形_5_拷贝_3" class="st8" d="M446,217h16c2.8,0,5,2.2,5,5v87c0,2.8-2.2,5-5,5h-16c-2.8,0-5-2.2-5-5v-87
		C441,219.2,443.2,217,446,217z"/>
	<path id="矩形_5_拷贝_7" class="st7" d="M306,227h16c2.8,0,5,2.2,5,5v76c0,2.8-2.2,5-5,5h-16c-2.8,0-5-2.2-5-5v-76
		C301,229.2,303.2,227,306,227z"/>
	<path id="矩形_5_拷贝_9" class="st9" d="M236,283h16c2.8,0,5,2.2,5,5v20c0,2.8-2.2,5-5,5h-16c-2.8,0-5-2.2-5-5v-20
		C231,285.2,233.2,283,236,283z"/>
	<path id="矩形_5_拷贝_4" class="st7" d="M411,268h16c2.8,0,5,2.2,5,5v35c0,2.8-2.2,5-5,5h-16c-2.8,0-5-2.2-5-5v-35
		C406,270.2,408.2,268,411,268z"/>
	<path id="矩形_5_拷贝_6" class="st8" d="M341,213h16c2.8,0,5,2.2,5,5v91c0,2.8-2.2,5-5,5h-16c-2.8,0-5-2.2-5-5v-91
		C336,215.2,338.2,213,341,213z"/>
	<path id="矩形_5_拷贝_8" class="st6" d="M271,299h16c2.8,0,5,2.2,5,5v5c0,2.8-2.2,5-5,5h-16c-2.8,0-5-2.2-5-5v-5
		C266,301.2,268.2,299,271,299z"/>
	<path id="矩形_5_拷贝_5" class="st6" d="M376,246h16c2.8,0,5,2.2,5,5v57c0,2.8-2.2,5-5,5h-16c-2.8,0-5-2.2-5-5v-57
		C371,248.2,373.2,246,376,246z"/>
	<circle id="椭圆_722" class="st5" cx="185.5" cy="134.5" r="9.5"/>
	<path id="形状_4" class="st5" d="M176,163c0,0-5.9,0.5-6-4s2-6,2-6s3.5-6,13-6s12.6,3.7,14,5c2.2,2.1,2.9,5.2,2,8
		c-0.8,2.3-3.5,2.7-5,3S176,163,176,163z"/>
	<path id="形状_5" class="st6" d="M279,136c0,0-12.1-19.2-32-4c-6.3,6.4-7.3,18-4,23s37,38,37,38l35-36c0,0,10.3-16.2-7-28
		C297.3,124,287.8,127.2,279,136z"/>
	<path id="形状_6" class="st10" d="M243,166h20l5-19l7,28l7-36l6,36l6-15h25"/>
	<path id="形状_7" class="st11" d="M330,151h8l4-10l5,16l4-21l5,20l3-8h27l4-9l5,21l4-21l5,15l3-9h21l4-10l4,21l5-21l5,17l3-12h14
		"/>
	<path id="形状_7_拷贝" class="st11" d="M330,183h8l4-10l5,16l4-21l5,20l3-8h27l4-9l5,21l4-21l5,15l3-9h21l4-10l4,21l5-21l5,17
		l3-12h14"/>
	<path id="圆角矩形_2_拷贝_2" class="st12" d="M158,97h307c12.7,0,23,10.3,23,23v193c0,12.7-10.3,23-23,23H158
		c-12.7,0-23-10.3-23-23V120C135,107.3,145.3,97,158,97z"/>
</g>
<g id="组_24">
	<g>
		<path class="st13" d="M550.5,352.6l-3.2-1.5c0,0-0.6,1.1-1.1,1.7c-1,1.3-5.9,2.6-5.8,4.4c0.1,0.9,2,1.5,3.5,1.5
			c1.5-0.1,2.9-0.3,3.6-0.8c1-0.7,2.9-1.4,3.2-1.9c0.5-1,0-2.1,0-2.1C550.7,352.9,550.5,352.6,550.5,352.6z"/>
		<path class="st14" d="M546.1,352.8c0,0,0.7,1,1.9,1.6c0.7,0.3,2.6-0.5,2.6-0.5c0.1-1,0-2.5,0-2.5l-4.1-0.4
			C546.6,350.9,546.9,351.8,546.1,352.8z"/>
		<path class="st13" d="M525.7,351.5l-3.1-1.7c0,0-0.7,1-1.2,1.6c-1.1,1.2-6.1,2.1-6.1,3.9c0,0.9,1.9,1.7,3.4,1.8
			c1.5,0.1,2.8-0.2,3.7-0.5c0.9-0.3,3-1.1,3.3-1.7c0.6-1,0.1-2.1,0.1-2.1C526,351.8,525.7,351.5,525.7,351.5z"/>
		<path class="st14" d="M521.4,351.4c0,0,0.6,1.1,1.8,1.7c0.7,0.4,2.6-0.3,2.6-0.3c0.2-1,0.1-2.4,0.1-2.4l-4.2-0.8
			C521.7,349.6,522.2,350.4,521.4,351.4z"/>
		<path id="形状_47_1_" class="st15" d="M507,295.6c0,0-1.1,16.3,3,29.9c4.1,13.8,10.8,23.4,11,25s5,0.4,5,0s-5.8-39.9-5-48.9
			S507,295.6,507,295.6z"/>
		<path id="形状_48_1_" class="st15" d="M528,301.6c0,0-0.4,12.8,6,24s12.6,24.7,12,26c3,1.3,5,0,5,0s-1.9-21.2-4-27.9
			s-5.7-15.3-5-24S528,301.6,528,301.6z"/>
	</g>
	<path id="形状_44" class="st14" d="M474,243.2c-0.7,0.1-1.3,0.1-2,0c-1.1-0.2-2.2,0.2-3,1c-0.7,0.7-1,0.6-2,1s-3.4,0.9-3,2
		s2.7,2.3,5,2s5.6-2.7,6-3S474,243.2,474,243.2z"/>
	<path id="形状_43" class="st13" d="M473,242.2l1,6c0,0,26.4-4.8,36-18c9.6-13.2,0-27,0-27s-3.6,1.8-9,18c-1.9,5.8-3.8,9.5-12,14
		C483.8,237.9,478.5,240.3,473,242.2z"/>
	<path id="形状_53" class="st16" d="M491,273.1"/>
	<path id="椭圆_728" class="st14" d="M514.7,181.6c3.4-1.1,7.7,1.2,9.5,5.2s0.5,8.1-2.9,9.2s-7.7-1.2-9.5-5.2
		S511.3,182.7,514.7,181.6z"/>
	<path id="形状_42" class="st17" d="M511,203.2c0,0,7.4-7.2,22-4c-4.5,6.2-17,16-17,16L511,203.2z"/>
	<path id="形状_39" class="st14" d="M517,193.3v7c0,0,1,2.7,4,1s4.1-3.4,4-4s-1-12-1-12l-5-2L517,193.3z"/>
	<path id="形状_41" class="st18" d="M510,234.2c0,0-1.8-16.2-2-21c-0.2-4.7-1.1-7.6,4-11c0.6,1.7,5,10,5,10l15-13
		c0,0,8.7,0.1,13,10s9.2,19,6,90.8c-1.7,0.2-3.3,0.2-5,0v-13c0,0-1.6,11-4,14s-13.8,3.5-20,3s-16.8-5.4-18-9s-0.6-5.8,0-10
		C504.9,282,509.6,256.9,510,234.2z"/>
	<path class="st19" d="M476.9,233c-15.5,0-23.9,9.2-23.9,21.8c0,12.6,11.6,19.8,11.6,19.8v36.2l10.9,10.2l10.9-10.9l-4.1-5.5
		l4.1-5.5l-4.1-5.5l4.1-4.1v-15c0,0,11.3-6.2,11.6-18.4C498.3,245.4,492.4,233,476.9,233z M475.9,262.3c-4.3,0-7.9-3.5-7.9-7.8l0,0
		c0-4.3,3.5-7.9,7.8-7.9s7.9,3.5,7.9,7.8C483.7,258.8,480.2,262.3,475.9,262.3z"/>
	<path id="形状_45" class="st18" d="M518,228.2c0,0-5.8,8.5-26.9,15c0,2,0.4,4,0.9,6c0,0,13.3-2.3,23-8s12.8-5.6,23-24"/>
	<path id="形状_44_拷贝" class="st14" d="M491,244.2c-0.7,0.1-1.3,0.1-2,0c-1.1-0.2-2.2,0.2-3,1c-0.7,0.7-1,0.6-2,1
		s-3.4,0.9-3,2s2.7,2.3,5,2s5.6-2.7,6-3S491,244.2,491,244.2z"/>
	<path id="形状_46" class="st20" d="M511,243.2c0,0,10.8,0,13-1s8.9-10.8,11-15s4.9-8.1,5-11s-2,0.9-2,1s-6.6,11.5-14,18
		C515.1,240.5,516.6,240.6,511,243.2z"/>
	<path id="形状_40" class="st21" d="M511,177.3c0,0-6.2,3.7-4,7c1.5,2.2,3.5,1.9,5,2c3,0.2,6.1-0.2,9-1c1.3-0.4,0,2,0,2
		s1.4-1.3,2-1c1.7,0.8,0.4,3,0,4c0,0.7,0.5,1.2,1.2,1.3c0.3,0,0.6-0.1,0.8-0.3c-0.1,0,2.4-2.4,1-9C525.5,180.1,524,174.4,511,177.3z
		"/>
	<path id="形状_38" class="st18" d="M509,177.3l2-7c0,0,2.1-2.1,7-1s11,4.2,11,5s-1.5,8.3-2,9c-2.4-0.9-18-5-18-5"/>
</g>
<g id="组_18">
	<path id="形状_16" class="st22" d="M1,67h123c0.1-1.6-0.7-3.1-2-4c-2.2-1.6-6.2-5-9-4s-4.4,3.6-7,3c-4.4-0.4-7.8-3.9-10-6
		c-1.3-1.2-4.2-4.2-9-2s-4,5-8,5s-10.2-3.8-13-7s-6.6-5.2-12-2s-10,9-14,8s-4.9-4.4-10-4s-13.2,2.9-18,7s-3.7,3.1-6,3S0.8,66.7,1,67
		z M141,67h14c-1-2-2.8-3.5-5-4C146.5,62.3,141.8,66.7,141,67z"/>
	<path id="形状_16_拷贝" class="st23" d="M520,127h123c0.1-1.6-0.7-3.1-2-4c-2.2-1.6-6.2-5-9-4s-4.4,3.6-7,3
		c-4.4-0.4-7.8-3.9-10-6c-1.3-1.2-4.2-4.2-9-2s-4,5-8,5s-10.2-3.8-13-7s-6.6-5.2-12-2s-10,9-14,8s-4.9-4.4-10-4s-13.2,2.9-18,7
		s-3.7,3.1-6,3S519.8,126.7,520,127z M660,127h14c-1-2-2.8-3.5-5-4C665.5,122.3,660.8,126.7,660,127z"/>
	<g id="组_17">
		<path id="形状_13" class="st24" d="M216,2l18,4l-12,8L216,2z"/>
		<path id="形状_11" class="st24" d="M214,18h73c-1,4.4-3.4,8.3-7,11c-6,4.6-17,6.1-19,6c-0.3,0.5,0,6,0,6h-10l-2-6
			c-0.9-0.6-1.9-1-3-1c-1.6,0.1-13.6-3.2-15-4c-1.1,0.6-15,3-15,3l4-8C220,25,215.6,21.3,214,18z"/>
		<path id="形状_12" class="st25" d="M286,18h-72c0,0,8.3,5.8,22,8s26.8,2.2,34,1S283.6,23.6,286,18z"/>
		<path id="形状_12_拷贝_2" class="st25" d="M287,18h-72c0,0,1.4-7.7,22-13.8c13.7-4,26.8-3.9,34-1.7S284.6,8.4,287,18z"/>
		<path id="形状_12_拷贝" class="st24" d="M287,18h-72c0,0,8.3-5.9,22-8.1s26.8-2.3,34-1S284.6,12.3,287,18z"/>
	</g>
</g>
<path id="矩形_12" class="st26" d="M283,205h65c3.9,0,7,3.1,7,7v48c0,3.9-3.1,7-7,7h-65c-3.9,0-7-3.1-7-7v-48
	C276,208.1,279.1,205,283,205z"/>
<path id="形状_56" class="st5" d="M312,235v12c0,0,0.1,3,4,3c4,0,4-3,4-3v-12c0,0,2.9-1.3,3-6c0-3.8-3-7-6.8-7c-0.1,0-0.1,0-0.2,0
	c-4,0.1-7.1,3.4-7,7.3C309.1,231.6,310.2,233.7,312,235z"/>
<path id="形状_55" class="st26" d="M298,205h-7v-13c0,0,1.1-23,24-23c19.3,0,25,16.2,25,22c0,0.2,0,14,0,14h-7v-13
	c0,0-0.5-16-18-16s-17,17-17,17V205z"/>
</svg>
