<?xml version="1.0" encoding="utf-8"?>
<!-- Generator: Adobe Illustrator 21.0.0, SVG Export Plug-In . SVG Version: 6.00 Build 0)  -->
<svg version="1.1" id="组_16" xmlns="http://www.w3.org/2000/svg" xmlns:xlink="http://www.w3.org/1999/xlink" x="0px" y="0px"
	 viewBox="0 0 675 370" style="enable-background:new 0 0 675 370;" xml:space="preserve">
<style type="text/css">
	.st0{fill:#C7F7CC;}
	.st1{fill:#FFE192;}
	.st2{fill:#C9EECA;}
	.st3{fill:#F0F0FA;}
	.st4{fill:#7B8193;}
	.st5{fill:#EDF8FD;}
	.st6{opacity:0.3;fill:#ABD3E9;enable-background:new    ;}
	.st7{opacity:0.4;fill:#ABD3E9;enable-background:new    ;}
	.st8{fill:#EAEDEF;}
	.st9{fill:#F7F7F7;}
	.st10{opacity:0.6;}
	.st11{fill:#8FD4F6;}
	.st12{fill:none;stroke:#8FD4F6;stroke-width:12;stroke-linecap:round;stroke-linejoin:round;}
</style>
<g id="组_21">
	<path id="形状_9" class="st0" d="M438,287.8c0,0,0.3-15.6,8-16c3.5-0.2,3.9,8,2,11c-1.4,3.5-3.1,6.8-5,10l1,5c0,0,6.7-15.4,15-16
		c2.9-0.2,5.5,0.8,5,2c-0.9,3.4-3.5,9.4-7,12s-8.3,7.6-11,7c0.5,3.4,2.5,9.4,3,10c0.7-4.8,5.5-12,10-14c2.9-2,6.7-5.2,9-5
		s3.5,3.2,0,8s-9.1,11.2-17,14c0.4,1.7,0.8,3.3,1,5c0,0,10.5-10.8,15-10s3.1,2.4,3,4s-6.5,8.6-13,12c1.8,3.1,3.8,6.2,6,9
		c0,0,10.3-11.8,11-14s9.3-22.1,10-27.1s0.5-15-1-20s-1.5-9-2-11s-4.1-3.6-6-3c-1,0.3-11.1-2.8-14-3s-6.3-0.6-6-4s2.3-5,6-5
		c3,0.1,6,0.4,9,1c0,0,9.5,5.4,10,7c-0.1-3-0.5-6-1-9c0,0-8.9,1-15-3s-8.1-5.6-8-8s5.3-3.6,9-2s11.7,3.6,14,9c0.1-7.6-4.9-9-10-13
		s-8.3-8.4-8-10s5.1-2.6,8-1s7.5,5,8,7c1.1-2.8,2.7-14,6-16s4.5-2,5-1s0.9,8,0,12s-6.5,13.4-7,15s1,9,1,9c1.2-0.5,2-1.7,2-3
		c0.1-2.4,2.2-9.1,5-12c3.7-3.8,7.7-4.4,11-3c1.8,0.8,1.9,1,0,4s-8.3,11.4-16,16c-0.1,4.4,0,8,0,8s2.7-4,4-5s13.3-8,14-9
		s3.7-0.8,3,0c-1.5,2.7-3.6,5.1-6,7c-4.1,3.2-12.5,11.4-14,12s-2.3,4-1,6s2,2,2,2s0.1-3.2,1-4s4.3-5,8-7s8.7-3.2,10-12
		c1.3,3.6-0.3,10-1,11s1,3,1,3s9.3-4.2,10-4s-1.7-12.2,4-17s4.1-5,5-3s1.5,3.6,0,8s-3,11-3,11l10-4c0,0-3.9-13.4-1-18s5.3-5.6,6-5
		s1.3,6.6,1,8s-1.9,12.6-2,13s8-3,8-3s-2.7-10,1-16s7.9-9.6,9-9s2.3,3.4,1,8s-5,15-5,15l7-2c1.4-1,2.5-2.4,3-4
		c0.9-2.8,5.1-11.2,8-12s6.9-3.4,8-2c-0.3,3.6-5.3,13.2-10,16c2.9,1.2,6.7-0.2,10,1s11.3,6.4,11,9c0.7,2.4-1.9,5.4-5,5
		s-17.3-7.2-18-9c-0.7-1.5-2.4-2.4-4-2c-0.9,0.4-7.5,0.4-10,3c6.1-0.2,14.1-0.4,17,4s2.7,7.6,2,8s-3.5-0.2-6-1s-12.3-6.4-13-7
		s-2.7-2.2-4-2s-5.5,0.8-8,2s6.9-1,8,0c0.5,0.2,8.5,2.8,10,6c1.5,3.2,3.1,5.6,1,6s-7.7-4.2-9-4s-12.5-3.8-14-5s-4.3,0.6-6,1
		s-3.1,0.8-4,2s2.9,0.8,4,1s10.3,4.6,11,6s3,2,3,2s0.9,3.8-3,4s-14.5-4.8-16-6s-7.7-5.2-11-4c-3.8,1.5-7.2,3.9-10,7
		c-2.3,2.8-12.5,20.4-13,23.1s-6.5,18.2-7,21s-2.3,7.4,1,7s3.9-2,4-5s1.9-11.2,5-13s6.3-2.2,7-1c0.5,6.6-4.1,11.6-6,14s-2,3-2,3
		s5.7-2.4,7-3s2.5-3,3-7s6.9-10.6,8-12s2.7-2.4,4-1c1.3,1.4-0.5,6.6-2,9s-4.9,8.2-6,9c3.8-1.4,7.5-3.1,11-5c0,0-2.1-11.8,2-17
		s5.3-4.2,6-4s3.9,2.8,0,12c-2.7,7-1,6-1,6l7-4c0,0,0.1-7,1-8s3.5-5.8,7-8c4.3-1.2,3.9-4.4,5-4s1.9,1,2,3s-3.9,11-10,17
		c2.9,0.6,11.5-0.6,14,1c3.3,0.4,6.5,2.8,7,5s0.5,4.6-3,5s-18.7-5-20-7s-5.7,0-7,1s-1,1-1,1s4.3-0.4,6,1s9.1,3.8,10,9s-1.1,5-3,5
		s-6.7-2.2-8-3s-9.1-3.4-13-8c-3.3,0.8-4.9,0.6-6,2s-3.9,0.2-3,2s0.3,1.4,2,2s1.5-0.2,4,1c2.5,1.2,8.3,4.2,8,9s-4.9,7.8-8,4
		s-9.6-13.8-11.1-14s-7.5,1-9,2s3.1,3,7,5s9.1,6.2,9,8s-3.3,3.4-8,0c-5.9-1.8-10.9-8.4-11-11c-3.3-0.2-8.5,1.2-11,3s-7.7,9-12,15
		c-3.3,7.8-8.9,18.8-10,19c-1.5-2.8-2-4-2-4l6-10c0,0-9.1-16.4-10-17s-20.1,3.4-23,0s-0.3-4.2,2-5s17.3-1.8,19,1c-0.1-2.2-5-7-5-7
		s-18.5-2-21-2s-2.5-3.6-1-5c1-1.1,1.7-2.5,2-4c0,0-4.1,0.6-6-1s-3.3-6,0-7s8.3-1.8,10-1c-3.3-2.6-7.9-4.8-10-7s-0.5-4,2-4
		S432.4,282.2,438,287.8z M498.9,262.8c0,0-6.5,6.6-13,7c-0.1,4.4,0.3,10.6,2,12c1.3-2.4,0.3-2.8,2-5S497.7,267.6,498.9,262.8
		L498.9,262.8z M431,293.9c0,0,5.5,1.2,8,1c1.9,0.4,1.7,2.2,2,3S433.8,297.1,431,293.9z M442,301.9c0,0-5.5,3.2-8,2
		c3.3,2.4,7.7,2,9,3S442,303.9,442,301.9L442,301.9z M461.9,264.8c2.7-1.5,6-1.9,9-1c5.3,1.4,8.5,2.8,8,7s-3.9,4-6,3s-9.7-2.6-11-4
		S460.7,266.8,461.9,264.8L461.9,264.8z"/>
	<path id="形状_9_拷贝" class="st0" d="M160.2,221.1c0,0-0.2-11.9-6.1-12.2c-2.7-0.2-3,6.1-1.5,8.4c1.1,2.6,2.4,5.2,3.8,7.6
		l-0.8,3.8c0,0-5.1-11.8-11.5-12.2c-2.2-0.2-4.2,0.6-3.8,1.5c0.7,2.6,2.7,7.2,5.4,9.2s6.4,5.8,8.4,5.3c-0.5,2.6-1.2,5.2-2.3,7.6
		c-0.5-3.7-4.2-9.2-7.6-10.7c-2.2-1.5-5.1-4-6.9-3.8s-2.7,2.4,0,6.1s7,8.6,13,10.7c-0.3,1.3-0.6,2.5-0.8,3.8c0,0-8-8.2-11.5-7.6
		s-2.4,1.8-2.3,3.1s5,6.6,9.9,9.2c-1.4,2.4-2.9,4.7-4.6,6.9c0,0-7.9-9-8.4-10.7s-7.1-16.8-7.6-20.6s-0.4-11.5,0.8-15.3
		s1.2-6.9,1.5-8.4s3.1-2.7,4.6-2.3c0.8,0.2,8.5-2.1,10.7-2.3s4.8-0.5,4.6-3.1s-1.7-3.8-4.6-3.8c-2.3,0.1-4.6,0.3-6.9,0.8
		c0,0-7.2,4.1-7.6,5.3c0.1-2.3,0.3-4.6,0.8-6.9c0,0,6.8,0.8,11.5-2.3s6.2-4.3,6.1-6.1s-4-2.7-6.9-1.5s-8.9,2.7-10.7,6.9
		c-0.1-5.8,3.8-6.9,7.6-9.9s6.4-6.4,6.1-7.6s-3.9-2-6.1-0.8s-5.7,3.8-6.1,5.3c-0.9-2.1-2.1-10.7-4.6-12.2s-3.4-1.5-3.8-0.8
		s-0.7,6.1,0,9.2s5,10.2,5.3,11.5s-0.8,6.9-0.8,6.9c-0.9-0.4-1.5-1.3-1.5-2.3c-0.1-1.8-1.7-7-3.8-9.2c-2.8-2.9-5.9-3.4-8.4-2.3
		c-1.4,0.6-1.4,0.8,0,3.1s6.4,8.7,12.2,12.2c0.1,3.4,0,6.1,0,6.1c-0.9-1.4-1.9-2.6-3.1-3.8c-1-0.8-10.2-6.1-10.7-6.9s-2.8-0.6-2.3,0
		c1.2,2.1,2.7,3.9,4.6,5.3c3.1,2.4,9.6,8.7,10.7,9.2s1.8,3.1,0.8,4.6s-1.5,1.5-1.5,1.5s-0.1-2.4-0.8-3.1s-3.3-3.8-6.1-5.3
		s-6.6-2.4-7.6-9.2c-1,2.7,0.2,7.6,0.8,8.4s-0.8,2.3-0.8,2.3s-7.1-3.2-7.6-3.1s1.3-9.3-3.1-13s-3.1-3.8-3.8-2.3s-1.1,2.7,0,6.1
		s2.3,8.4,2.3,8.4l-7.6-3.1c0,0,3-10.2,0.8-13.7s-4-4.3-4.6-3.8s-1,5-0.8,6.1s1.5,9.6,1.5,9.9S80,189,80,189s2.1-7.6-0.8-12.2
		s-6-7.3-6.9-6.9s-1.7,2.6-0.8,6.1s3.8,11.5,3.8,11.5l-5.3-1.5c-1.1-0.7-1.9-1.8-2.3-3.1c-0.7-2.1-3.9-8.6-6.1-9.2s-5.3-2.6-6.1-1.5
		c0.2,2.7,4.1,10.1,7.6,12.2c-2.2,0.9-5.1-0.2-7.6,0.8s-8.6,4.9-8.4,6.9c-0.5,1.8,1.5,4.1,3.8,3.8s13.2-5.5,13.8-6.9
		c0.5-1.2,1.8-1.8,3.1-1.5c0.7,0.3,5.7,0.3,7.6,2.3c-4.7-0.2-10.8-0.3-13,3.1s-2.1,5.8-1.5,6.1s2.7-0.2,4.6-0.8
		c3.4-1.6,6.8-3.3,9.9-5.3c0.5-0.5,2.1-1.7,3.1-1.5c2.1,0.3,4.1,0.8,6.1,1.5c1.9,0.9-5.3-0.8-6.1,0c-0.4,0.2-6.5,2.1-7.6,4.6
		s-2.4,4.3-0.8,4.6s5.9-3.2,6.9-3.1s9.6-2.9,10.7-3.8s3.3,0.5,4.6,0.8c1.2,0.1,2.3,0.7,3.1,1.5c0.7,0.9-2.2,0.6-3.1,0.8
		s-7.9,3.5-8.4,4.6c-0.6,0.8-1.4,1.3-2.3,1.5c0,0-0.7,2.9,2.3,3.1s11.1-3.7,12.2-4.6s5.9-4,8.4-3.1c2.9,1.2,5.5,3,7.6,5.3
		c1.7,2.1,9.6,15.6,9.9,17.6s5,13.9,5.3,16s1.8,5.7-0.8,5.3s-3-1.5-3.1-3.8s-1.4-8.6-3.8-9.9s-4.8-1.7-5.3-0.8
		c-0.4,5,3.1,8.9,4.6,10.7c0.6,0.7,1.1,1.4,1.5,2.3c0,0-4.3-1.8-5.3-2.3s-1.9-2.3-2.3-5.3s-5.3-8.1-6.1-9.2s-2.1-1.8-3.1-0.8
		s0.4,5,1.5,6.9s3.8,6.3,4.6,6.9c-2.9-1-5.7-2.3-8.4-3.8c0,0,1.6-9-1.5-13s-4-3.2-4.6-3.1s-3,2.1,0,9.2c2.1,5.3,0.8,4.6,0.8,4.6
		l-5.3-3.1c0,0-0.1-5.3-0.8-6.1s-2.7-4.4-5.3-6.1c-3.3-0.9-3-3.4-3.8-3.1s-1.4,0.8-1.5,2.3s3,8.4,7.6,13c-2.2,0.5-8.8-0.5-10.7,0.8
		c-2.5,0.3-5,2.1-5.3,3.8s-0.4,3.5,2.3,3.8s14.3-3.8,15.3-5.3s4.4,0,5.3,0.8s0.8,0.8,0.8,0.8s-3.3-0.3-4.6,0.8s-6.9,2.9-7.6,6.9
		s0.9,3.8,2.3,3.8s5.1-1.7,6.1-2.3s7-2.6,9.9-6.1c2.5,0.6,3.8,0.5,4.6,1.5s3,0.2,2.3,1.5s-0.2,1.1-1.5,1.5s-1.1-0.2-3.1,0.8
		s-6.3,3.2-6.1,6.9s3.8,6,6.1,3.1s7.3-10.5,8.4-10.7c2.4,0.1,4.7,0.6,6.9,1.5c1.1,0.8-2.4,2.3-5.3,3.8s-6.9,4.7-6.9,6.1
		s2.5,2.6,6.1,0c4.5-1.4,8.3-6.4,8.4-8.4c3,0,5.9,0.8,8.4,2.3c1.9,1.4,5.9,6.9,9.2,11.5c2.5,6,6.8,14.4,7.6,14.5
		c1.1-2.1,1.5-3.1,1.5-3.1l-4.6-7.6c0,0,7-12.5,7.6-13s15.4,2.6,17.6,0s0.2-3.2-1.5-3.8s-13.2-1.4-14.5,0.8c0.1-1.7,3.8-5.3,3.8-5.3
		s14.2-1.5,16.1-1.5s1.9-2.7,0.8-3.8c-0.8-0.9-1.3-1.9-1.5-3.1c0,0,3.1,0.5,4.6-0.8s2.5-4.6,0-5.3s-6.3-1.4-7.6-0.8
		c2.5-2,6.1-3.7,7.6-5.3s0.4-3.1-1.5-3.1S164.5,216.8,160.2,221.1z M113.6,202c0,0,5,5,9.9,5.3c0.1,3.4-0.2,8.1-1.5,9.2
		c-1-1.8-0.2-2.1-1.5-3.8S114.5,205.6,113.6,202z M165.6,225.7c-2,0.5-4.1,0.7-6.1,0.8c-1.5,0.3-1.3,1.7-1.5,2.3
		S163.4,228.1,165.6,225.7L165.6,225.7z M157.2,231.8c0,0,4.2,2.4,6.1,1.5c-2.5,1.8-5.9,1.5-6.9,2.3S157.2,233.3,157.2,231.8z
		 M141.9,203.5c-2.1-1.2-4.6-1.4-6.9-0.8c-4.1,1.1-6.5,2.1-6.1,5.3s3,3.1,4.6,2.3s7.4-2,8.4-3.1S142.8,205,141.9,203.5z"/>
	<path class="st1" d="M530.6,147.7c0,0-3.7-2.8-7.2,3.1c-0.8,1.4-1.6,2.8-2.4,4.2c0,0-0.1,0.1-0.1,0.1s-5.5,10.2-12,22.6
		c0-2.1-0.1-4.7-0.5-7.9c-0.7-5.8-4.5-4.7-5.3-4.4l0,0c0,0-4.3,1.7-1.1,7.8c1.5,2.8,3.2,5.5,5,8.1c-2.1,4-4.2,8.2-6.3,12.2
		c0,0,0,0-0.1,0.1c0-1.1-0.1-2.3-0.3-3.7c-0.7-5.8-4.5-4.7-5.3-4.4l0,0c0,0-4.3,1.7-1.1,7.8c1.1,2.1,2.3,4.2,3.6,6.2
		c-2.8,5.5-5.2,10.6-7,14.5c-0.1-0.9-0.2-1.9-0.3-3c-0.7-5.8-4.5-4.7-5.3-4.4c0,0-4.3,1.7-1.1,7.8c1.2,2.2,2.5,4.3,3.8,6.4
		c-2,4.8-3.9,8.8-6,14.9c-0.1-1.7-0.2-3.6-0.5-5.8c-0.7-5.9-4.8-4.8-5.5-4.5h0c0,0-4.5,1.7-1.1,7.9c1.6,2.8,3.3,5.5,5.2,8.1
		c-2.7,8.8-5.9,21.6-10.1,43c2.7,0,3,0,3,0s5-29.3,11.4-47.5c1.7-0.6,5.2-1.8,10.6-3.4c5.6-1.6,3.9-5.3,3.5-5.9v0c0,0-2.4-4-7.8,0.2
		c-1.7,1.4-3.3,3-4.7,4.8c0.3-0.7,0.6-1.5,0.9-2.1c0.9-2.2,1.9-4.5,2.9-6.9c0.2,0.3,0.4,0.6,0.6,0.9c0,0,0.3-1.1,0.4-3.2
		c0.8-1.9,1.7-3.8,2.5-5.7c2.2-0.2,5.5-0.8,9.6-2c5.6-1.6,3.9-5.3,3.5-5.9l0,0c0,0-2.4-4-7.8,0.2c-1,0.7-1.9,1.5-2.8,2.3
		c2.4-5.2,4.9-10.5,7.3-15.6c2.2-0.2,5.5-0.8,9.8-2c5.6-1.6,3.9-5.3,3.5-5.9v0c0,0-2.4-4-7.8,0.2c-1,0.8-2,1.6-2.9,2.4
		c2.6-5.2,5-10.1,7.3-14.5c1.9-0.1,6-0.4,11.9-2.2c5.6-1.6,3.9-5.3,3.5-5.9v0c0,0-2.4-4-7.8,0.2c-2.2,1.7-4.4,3.6-6.4,5.5
		c2.6-5,4.8-9.1,6.4-11.7c2-1,5-2.7,8.8-5.7C534,150.9,531.2,148.2,530.6,147.7z"/>
	<path class="st1" d="M174.1,249.1c-18.2,2.6-29.1,4.7-36.7,6.7c-2.1-1.7-4.3-3.3-6.6-4.7c-5-3.2-6.7,0.6-6.7,0.6
		c-0.3,0.6-1.4,4,3.5,4.9c1.8,0.3,3.4,0.5,4.8,0.6c-5.2,1.6-8.7,3-12.8,4.5c-1.7-1.2-3.4-2.4-5.2-3.5c-5-3-6.6,0.6-6.6,0.6v0
		c-0.3,0.6-1.3,3.8,3.5,4.7c0.9,0.2,1.7,0.3,2.5,0.4c-3.3,1.3-7.7,3.2-12.5,5.3c-1.6-1.2-3.3-2.3-5.1-3.3c-5-3-6.6,0.6-6.6,0.6
		c-0.3,0.6-1.3,3.8,3.5,4.7c1.2,0.2,2.2,0.3,3.1,0.4c0,0,0,0-0.1,0.1c-3.5,1.6-7.1,3.2-10.6,4.8c-2.1-1.6-4.3-3.2-6.6-4.5
		c-5-3-6.6,0.6-6.6,0.6c-0.3,0.6-1.3,3.8,3.5,4.7c2.7,0.5,4.9,0.7,6.6,0.7c-10.7,5-19.6,9.2-19.6,9.2s0,0,0,0.1
		c-1.2,0.6-2.5,1.2-3.7,1.8c-5.1,2.7-2.9,6-2.9,6c0.4,0.5,2.6,3.1,5.8-0.7c2.6-3.1,4.2-5.6,5.2-7.2c2.3-1.2,5.9-2.9,10.2-4.9
		c-1.7,1.7-3.4,3.4-5,5.2c-3.8,4.4-0.5,6.6-0.5,6.6c0.5,0.4,3.5,1.9,5.2-2.7c1.8-5,2.2-8.4,2.4-10c3.8-1.7,8-3.6,12.6-5.5
		c-0.7,0.8-1.4,1.6-2.1,2.4c-3.8,4.4-0.5,6.6-0.5,6.6l0,0c0.5,0.4,3.5,1.9,5.2-2.7c1.2-3.6,1.9-6.3,2.1-8.2c4.4-1.9,9-3.7,13.5-5.5
		c-0.7,0.8-1.4,1.5-2.1,2.3c-3.8,4.4-0.5,6.6-0.5,6.6v0c0.5,0.4,3.5,1.9,5.2-2.7c1.2-3.4,1.8-6.2,2.1-8c1.7-0.7,3.3-1.3,5-1.9l2-0.8
		c2-0.8,4-1.5,5.9-2.2c0.6-0.2,1.2-0.5,1.8-0.7c-1.6,1.1-3,2.3-4.3,3.8c-3.8,4.4-0.5,6.6-0.5,6.6v0c0.5,0.4,3.5,1.9,5.2-2.7
		c1.6-4.6,2.8-7.4,3.4-8.9c15.7-4.7,40.6-7.6,40.6-7.6S173.9,251.4,174.1,249.1z"/>
	<path id="形状_10" class="st2" d="M136,293c0,0-9.9,6.2-10,11s2.3,8.7,3,10s1.1,0.9,1,2s-1.2-1.6-3-4s-5-9.6-6-11s-4.4-6.1-8-6
		s-8.9-1.5-11-1s-2.9,1-1,4s3.8,4,5,7s4,7.2,7,8s13.1,1.7,14,4c-1.3,0.6-0.4,0.2-3,0s-11.9-2.1-14-1s-8.5,8.5-9,10s1.1,0.9,4,1
		s6.8,2.2,10,2s9.6-4.8,11-7c1.2-1.9,3.7-2.5,5.6-1.3c0.1,0.1,0.3,0.2,0.4,0.3c1.5,1.5,4.8,1.2,6,3s5.3,4.9,7,6s1.5,1,2,0
		s-0.5-0.6-5-5c-3.7-3.6-5-3.2-7-4s-4.6-3.3-3-6s3.3-3.6,4-5s2.4-2.3,2-6S135.4,296.1,136,293z"/>
</g>
<g id="组_14">
	<ellipse id="椭圆_721" class="st3" cx="313" cy="349.5" rx="198" ry="19.5"/>
	<path id="圆角矩形_2" class="st4" d="M152,83h319c12.7,0,23,10.3,23,23v218c0,12.7-10.3,23-23,23H152c-12.7,0-23-10.3-23-23
		V106C129,93.3,139.3,83,152,83z"/>
	<path id="圆角矩形_2_拷贝" class="st5" d="M158,97h307c12.7,0,23,10.3,23,23v193c0,12.7-10.3,23-23,23H158
		c-12.7,0-23-10.3-23-23V120C135,107.3,145.3,97,158,97z"/>
</g>
<g id="组_18">
	<path id="形状_16" class="st6" d="M1,67h123c0.1-1.6-0.7-3.1-2-4c-2.2-1.6-6.2-5-9-4s-4.4,3.6-7,3c-4.4-0.4-7.8-3.9-10-6
		c-1.3-1.2-4.2-4.2-9-2s-4,5-8,5s-10.2-3.8-13-7s-6.6-5.2-12-2s-10,9-14,8s-4.9-4.4-10-4s-13.2,2.9-18,7s-3.7,3.1-6,3S0.8,66.7,1,67
		z M141,67h14c-1-2-2.8-3.5-5-4C146.5,62.3,141.8,66.7,141,67z"/>
	<path id="形状_16_拷贝" class="st7" d="M520,127h123c0.1-1.6-0.7-3.1-2-4c-2.2-1.6-6.2-5-9-4s-4.4,3.6-7,3
		c-4.4-0.4-7.8-3.9-10-6c-1.3-1.2-4.2-4.2-9-2s-4,5-8,5s-10.2-3.8-13-7s-6.6-5.2-12-2s-10,9-14,8s-4.9-4.4-10-4s-13.2,2.9-18,7
		s-3.7,3.1-6,3S519.8,126.7,520,127z M660,127h14c-1-2-2.8-3.5-5-4C665.5,122.3,660.8,126.7,660,127z"/>
	<g id="组_17">
		<path id="形状_13" class="st8" d="M336,2l18,4l-12,8L336,2z"/>
		<path id="形状_11" class="st8" d="M334,18h73c-1,4.4-3.4,8.3-7,11c-6,4.6-17,6.1-19,6c-0.3,0.5,0,6,0,6h-10l-2-6
			c-0.9-0.6-1.9-1-3-1c-1.5,0.1-13.6-3.2-15-4c-1.1,0.6-15,3-15,3l4-8C340,25,335.6,21.3,334,18z"/>
		<path id="形状_12" class="st9" d="M406,18h-72c0,0,8.3,5.8,22,8s26.8,2.2,34,1S403.6,23.6,406,18z"/>
		<path id="形状_12_拷贝_2" class="st9" d="M407,18h-72c0,0,1.4-7.7,22-13.8c13.7-4,26.8-3.9,34-1.7S404.6,8.4,407,18z"/>
		<path id="形状_12_拷贝" class="st8" d="M407,18h-72c0,0,8.3-5.9,22-8.1s26.8-2.3,34-1S404.6,12.3,407,18z"/>
	</g>
</g>
<g id="组_28" class="st10">
	<g id="组_27">
		<path id="矩形_14" class="st11" d="M219.7,174.7c2-2.3,5.8-2.3,8.6,0.1l31.9,27.1c2.8,2.4,3.4,6.1,1.4,8.4s-5.8,2.3-8.6-0.1
			l-31.9-27.1C218.3,180.8,217.7,177.1,219.7,174.7z"/>
		<path id="矩形_14_拷贝" class="st11" d="M261.9,174.7c-2-2.3-5.8-2.3-8.5,0.1l-31.8,27.1c-2.8,2.4-3.4,6.1-1.4,8.4
			s5.8,2.3,8.5-0.1l31.8-27.1C263.2,180.8,263.8,177,261.9,174.7z"/>
	</g>
	<g id="组_27-2">
		<path id="矩形_14-2" class="st11" d="M371.1,174.7c1.9-2.3,5.7-2.3,8.5,0.1l31.5,27.1c2.7,2.3,3.4,6.1,1.4,8.4s-5.7,2.3-8.5-0.1
			l-31.5-27.1C369.8,180.8,369.2,177,371.1,174.7z"/>
		<path id="矩形_14_拷贝-2" class="st11" d="M412.9,174.7c-1.9-2.3-5.7-2.3-8.5,0.1l-31.4,27c-2.7,2.3-3.4,6.1-1.4,8.4
			s5.7,2.3,8.5-0.1l31.4-27C414.2,180.8,414.8,177,412.9,174.7z"/>
	</g>
	<path id="形状_57" class="st12" d="M246,262c0,0,24.1-23.2,69-23s76,24,76,24"/>
</g>
</svg>
