<?xml version="1.0" encoding="utf-8"?>
<!-- Generator: Adobe Illustrator 21.0.0, SVG Export Plug-In . SVG Version: 6.00 Build 0)  -->
<svg version="1.1" id="组_16" xmlns="http://www.w3.org/2000/svg" xmlns:xlink="http://www.w3.org/1999/xlink" x="0px" y="0px"
	 viewBox="0 0 659 331" style="enable-background:new 0 0 659 331;" xml:space="preserve">
<style type="text/css">
	.st0{fill:#C7F7CC;}
	.st1{fill:#FFE192;}
	.st2{fill:#F0F0FA;}
	.st3{fill:#CBEDFD;}
	.st4{fill:#717991;}
	.st5{fill:#8FD4F6;}
	.st6{fill:#7B8193;}
	.st7{fill:#EDF8FD;}
	.st8{opacity:0.5;fill:#B5E2F9;enable-background:new    ;}
	.st9{fill:#B7C2E4;}
	.st10{fill:none;stroke:#B5E2F9;stroke-width:2;stroke-dasharray:6,6;}
	.st11{fill:#B5E2F9;}
	.st12{fill:#F6FCFF;}
	.st13{fill:#F8FDFF;}
	.st14{opacity:0.3;fill:#ABD3E9;enable-background:new    ;}
	.st15{opacity:0.4;fill:#ABD3E9;enable-background:new    ;}
	.st16{fill:#EAEDEF;}
	.st17{fill:#F7F7F7;}
</style>
<g id="组_21">
	<path id="形状_9" class="st0" d="M398,254.8c0,0,0.3-15.6,8-16c3.5-0.2,3.9,8,2,11c-1.4,3.5-3.1,6.8-5,10l1,5c0,0,6.7-15.4,15-16
		c2.9-0.2,5.5,0.8,5,2c-0.9,3.4-3.5,9.4-7,12s-8.3,7.6-11,7c0.5,3.4,2.5,9.4,3,10c0.7-4.8,5.5-12,10-14c2.9-2,6.7-5.2,9-5
		s3.5,3.2,0,8s-9.1,11.2-17,14c0.4,1.7,0.8,3.3,1,5c0,0,10.5-10.8,15-10s3.1,2.4,3,4s-6.5,8.6-13,12c1.8,3.1,3.8,6.2,6,9
		c0,0,10.3-11.8,11-14s9.3-22.1,10-27.1s0.5-15-1-20s-1.5-9-2-11s-4.1-3.6-6-3c-1,0.3-11.1-2.8-14-3s-6.3-0.6-6-4s2.3-5,6-5
		c3,0.1,6,0.4,9,1c0,0,9.5,5.4,10,7c-0.1-3-0.5-6-1-9c0,0-8.9,1-15-3s-8.1-5.6-8-8s5.3-3.6,9-2s11.7,3.6,14,9c0.1-7.6-4.9-9-10-13
		s-8.3-8.4-8-10s5.1-2.6,8-1s7.5,5,8,7c1.1-2.8,2.7-14,6-16s4.5-2,5-1s0.9,8,0,12s-6.5,13.4-7,15s1,9,1,9c1.2-0.5,2-1.7,2-3
		c0.1-2.4,2.2-9.1,5-12c3.7-3.8,7.7-4.4,11-3c1.8,0.8,1.9,1,0,4s-8.3,11.4-16,16c-0.1,4.4,0,8,0,8s2.7-4,4-5s13.3-8,14-9
		s3.7-0.8,3,0c-1.5,2.7-3.6,5.1-6,7c-4.1,3.2-12.5,11.4-14,12s-2.3,4-1,6s2,2,2,2s0.1-3.2,1-4s4.3-5,8-7s8.7-3.2,10-12
		c1.3,3.6-0.3,10-1,11s1,3,1,3s9.3-4.2,10-4s-1.7-12.2,4-17s4.1-5,5-3s1.5,3.6,0,8s-3,11-3,11l10-4c0,0-3.9-13.4-1-18s5.3-5.6,6-5
		s1.3,6.6,1,8s-1.9,12.6-2,13s8-3,8-3s-2.7-10,1-16s7.9-9.6,9-9c1.1,0.6,2.3,3.4,1,8s-5,15-5,15l7-2c1.4-1,2.5-2.4,3-4
		c0.9-2.8,5.1-11.2,8-12s6.9-3.4,8-2c-0.3,3.6-5.3,13.2-10,16c2.9,1.2,6.7-0.2,10,1s11.3,6.4,11,9c0.7,2.4-1.9,5.4-5,5
		s-17.3-7.2-18-9c-0.7-1.5-2.4-2.4-4-2c-0.9,0.4-7.5,0.4-10,3c6.1-0.2,14.1-0.4,17,4s2.7,7.6,2,8s-3.5-0.2-6-1s-12.3-6.4-13-7
		s-2.7-2.2-4-2s-5.5,0.8-8,2s6.9-1,8,0c0.5,0.2,8.5,2.8,10,6s3.1,5.6,1,6s-7.7-4.2-9-4s-12.5-3.8-14-5s-4.3,0.6-6,1s-3.1,0.8-4,2
		s2.9,0.8,4,1s10.3,4.6,11,6s3,2,3,2s0.9,3.8-3,4s-14.5-4.8-16-6s-7.7-5.2-11-4c-3.8,1.5-7.2,3.9-10,7c-2.3,2.8-12.5,20.4-13,23.1
		c-0.5,2.6-6.5,18.2-7,21s-2.3,7.4,1,7s3.9-2,4-5s1.9-11.2,5-13s6.3-2.2,7-1c0.5,6.6-4.1,11.6-6,14s-2,3-2,3s5.7-2.4,7-3s2.5-3,3-7
		s6.9-10.6,8-12s2.7-2.4,4-1s-0.5,6.6-2,9s-4.9,8.2-6,9c3.8-1.4,7.5-3.1,11-5c0,0-2.1-11.8,2-17s5.3-4.2,6-4s3.9,2.8,0,12
		c-2.7,7-1,6-1,6l7-4c0,0,0.1-7,1-8s3.5-5.8,7-8c4.3-1.2,3.9-4.4,5-4s1.9,1,2,3s-3.9,11-10,17c2.9,0.6,11.5-0.6,14,1
		c3.3,0.4,6.5,2.8,7,5s0.5,4.6-3,5s-18.7-5-20-7s-5.7,0-7,1s-1,1-1,1s4.3-0.4,6,1s9.1,3.8,10,9s-1.1,5-3,5s-6.7-2.2-8-3
		s-9.1-3.4-13-8c-3.3,0.8-4.9,0.6-6,2s-3.9,0.2-3,2s0.3,1.4,2,2s1.5-0.2,4,1s8.3,4.2,8,9s-4.9,7.8-8,4s-9.6-13.8-11.1-14s-7.5,1-9,2
		s3.1,3,7,5s9.1,6.2,9,8s-3.3,3.4-8,0c-5.9-1.8-10.9-8.4-11-11c-3.3-0.2-8.5,1.2-11,3s-7.7,9-12,15c-3.3,7.8-8.9,18.8-10,19
		c-1.5-2.8-2-4-2-4l6-10c0,0-9.1-16.4-10-17s-20.1,3.4-23,0s-0.3-4.2,2-5s17.3-1.8,19,1c-0.1-2.2-5-7-5-7s-18.5-2-21-2s-2.5-3.6-1-5
		c1-1.1,1.7-2.5,2-4c0,0-4.1,0.6-6-1s-3.3-6,0-7s8.3-1.8,10-1c-3.3-2.6-7.9-4.8-10-7s-0.5-4,2-4S392.4,249.2,398,254.8z
		 M458.9,229.8c0,0-6.5,6.6-13,7c-0.1,4.4,0.3,10.6,2,12c1.3-2.4,0.3-2.8,2-5S457.7,234.6,458.9,229.8z M391,260.9c0,0,5.5,1.2,8,1
		c1.9,0.4,1.7,2.2,2,3S393.8,264.1,391,260.9z M402,268.9c0,0-5.5,3.2-8,2c3.3,2.4,7.7,2,9,3S402,270.9,402,268.9L402,268.9z
		 M421.9,231.8c2.7-1.5,6-1.9,9-1c5.3,1.4,8.5,2.8,8,7s-3.9,4-6,3s-9.7-2.6-11-4S420.7,233.8,421.9,231.8L421.9,231.8z"/>
	<path id="形状_9_拷贝" class="st0" d="M153.5,244.5c0,0-0.2-10.2-5.3-10.5c-2.3-0.1-2.6,5.2-1.3,7.2c0.9,2.3,2,4.4,3.3,6.5
		l-0.7,3.3c0,0-4.4-10.1-9.9-10.5c-1.9-0.1-3.6,0.5-3.3,1.3c0.6,2.2,2.3,6.2,4.6,7.9s5.5,5,7.2,4.6c-0.4,2.3-1.1,4.5-2,6.5
		c-0.5-3.1-3.6-7.9-6.6-9.2c-1.9-1.3-4.4-3.4-5.9-3.3s-2.3,2.1,0,5.2c2.3,3.1,6,7.3,11.2,9.2c-0.3,1.1-0.5,2.2-0.7,3.3
		c0,0-6.9-7.1-9.9-6.5s-2,1.6-2,2.6s4.3,5.6,8.6,7.9c-1.2,2.1-2.5,4-4,5.9c0,0-6.8-7.7-7.2-9.2s-6.1-14.4-6.6-17.7
		s-0.3-9.8,0.7-13.1c0.6-2.4,1-4.8,1.3-7.2c0.3-1.3,2.7-2.4,4-2c0.7,0.2,7.3-1.8,9.2-2s4.2-0.4,3.9-2.6s-1.5-3.3-3.9-3.3
		c-2,0.1-4,0.3-5.9,0.7c0,0-6.2,3.5-6.6,4.6c0.1-2,0.3-3.9,0.7-5.9c0,0,5.9,0.7,9.9-2s5.3-3.7,5.3-5.2s-3.5-2.4-5.9-1.3
		s-7.7,2.4-9.2,5.9c-0.1-5,3.2-5.9,6.6-8.5s5.5-5.5,5.3-6.5s-3.3-1.7-5.3-0.7s-4.9,3.3-5.3,4.6c-0.7-1.8-1.8-9.2-3.9-10.5
		s-3-1.3-3.3-0.7s-0.6,5.2,0,7.9s4.3,8.8,4.6,9.8s-0.7,5.9-0.7,5.9c-0.8-0.3-1.3-1.1-1.3-2c-0.1-1.6-1.4-6-3.3-7.9
		c-2.4-2.5-5.1-2.9-7.2-2c-1.2,0.5-1.2,0.7,0,2.6s5.5,7.5,10.5,10.5c0.1,2.9,0,5.2,0,5.2c-0.8-1.2-1.7-2.3-2.6-3.3
		c-0.9-0.7-8.7-5.2-9.2-5.9s-2.4-0.5-2,0c1,1.8,2.4,3.3,4,4.6c2.7,2.1,8.2,7.5,9.2,7.9s1.5,2.6,0.7,3.9s-1.3,1.3-1.3,1.3
		s-0.1-2.1-0.7-2.6s-2.8-3.3-5.3-4.6s-5.7-2.1-6.6-7.9c-0.9,2.4,0.2,6.5,0.7,7.2s-0.7,2-0.7,2s-6.1-2.7-6.6-2.6s1.1-8-2.6-11.1
		s-2.7-3.3-3.3-2s-1,2.4,0,5.2s2,7.2,2,7.2l-6.6-2.6c0,0,2.6-8.8,0.7-11.8s-3.5-3.7-4-3.3s-0.8,4.3-0.7,5.2s1.3,8.2,1.3,8.5
		s-5.3-2-5.3-2s1.8-6.5-0.7-10.5s-5.2-6.3-5.9-5.9s-1.5,2.2-0.7,5.2s3.3,9.8,3.3,9.8l-4.6-1.3c-0.9-0.6-1.6-1.5-2-2.6
		c-0.6-1.8-3.3-7.3-5.3-7.9s-4.5-2.2-5.3-1.3c0.2,2.4,3.5,8.6,6.6,10.5c-1.9,0.8-4.4-0.1-6.6,0.7s-7.4,4.2-7.2,5.9
		c-0.5,1.6,1.3,3.5,3.3,3.3s11.4-4.7,11.9-5.9c0.5-1,1.6-1.5,2.6-1.3c0.6,0.3,4.9,0.3,6.6,2c-4-0.1-9.3-0.3-11.2,2.6s-1.8,5-1.3,5.2
		s2.3-0.1,4-0.7c3-1.3,5.8-2.9,8.6-4.6c0.4-0.4,1.8-1.4,2.6-1.3c1.8,0.2,3.6,0.7,5.3,1.3c1.6,0.8-4.5-0.7-5.3,0
		c-0.3,0.1-5.6,1.8-6.6,3.9s-2,3.7-0.7,3.9s5.1-2.8,5.9-2.6s8.2-2.5,9.2-3.3s2.8,0.4,4,0.7c1,0.1,1.9,0.6,2.6,1.3
		c0.6,0.8-1.9,0.5-2.6,0.7s-6.8,3-7.2,3.9c-0.5,0.7-1.2,1.1-2,1.3c-0.3,1.1,0.3,2.2,1.4,2.5c0.2,0.1,0.4,0.1,0.6,0.1
		c2.6,0.1,9.6-3.1,10.5-3.9s5.1-3.4,7.2-2.6c2.5,1,4.8,2.6,6.6,4.6c1.5,1.8,8.2,13.4,8.6,15.1s4.3,11.9,4.6,13.7s1.5,4.8-0.7,4.6
		s-2.6-1.3-2.6-3.3s-1.2-7.3-3.3-8.5s-4.1-1.4-4.6-0.7c-0.3,4.3,2.7,7.6,3.9,9.2c0.5,0.6,1,1.2,1.3,2c0,0-3.7-1.6-4.6-2
		s-1.6-2-2-4.6s-4.5-6.9-5.3-7.9s-1.8-1.6-2.6-0.7s0.3,4.3,1.3,5.9s3.2,5.4,4,5.9c-2.5-0.9-4.9-2-7.2-3.3c0,0,1.4-7.7-1.3-11.1
		s-3.5-2.7-4-2.6s-2.6,1.8,0,7.9c1.8,4.6,0.7,3.9,0.7,3.9l-4.6-2.6c0,0-0.1-4.6-0.7-5.2s-2.3-3.8-4.6-5.2c-2.8-0.8-2.6-2.9-3.3-2.6
		c-0.9,0.2-1.4,1.1-1.3,2c-0.1,1.3,2.6,7.2,6.6,11.1c-1.9,0.4-7.6-0.4-9.2,0.7c-2.2,0.3-4.3,1.8-4.6,3.3c-0.3,1.4-0.3,3,2,3.3
		s12.3-3.3,13.2-4.6s3.8,0,4.6,0.7s0.7,0.7,0.7,0.7s-2.8-0.3-4,0.7s-6,2.5-6.6,5.9s0.7,3.3,2,3.3s4.4-1.4,5.3-2s6-2.2,8.6-5.2
		c2.2,0.5,3.2,0.4,4,1.3s2.6,0.1,2,1.3s-0.2,0.9-1.3,1.3s-1-0.1-2.6,0.7s-5.5,2.7-5.3,5.9s3.2,5.1,5.3,2.6s6.3-9,7.2-9.2
		c2,0.1,4.1,0.5,5.9,1.3c1,0.7-2,2-4.6,3.3s-6,4.1-5.9,5.2s2.2,2.2,5.3,0c3.9-1.2,7.2-5.5,7.2-7.2c2.6,0,5.1,0.6,7.2,2
		c1.6,1.2,5.1,5.9,7.9,9.8c2.2,5.1,5.9,12.3,6.6,12.4c1-1.8,1.3-2.6,1.3-2.6l-3.9-6.5c0,0,6-10.7,6.6-11.1s13.2,2.2,15.1,0
		s0.2-2.7-1.3-3.3s-11.4-1.2-12.5,0.7c0.1-1.4,3.3-4.6,3.3-4.6s12.2-1.3,13.8-1.3s1.7-2.4,0.7-3.3c-0.7-0.7-1.1-1.6-1.3-2.6
		c0,0,2.7,0.4,4-0.7s2.2-3.9,0-4.6s-5.5-1.2-6.6-0.7c2.2-1.7,5.2-3.1,6.6-4.6s0.3-2.6-1.3-2.6S157.2,240.8,153.5,244.5z
		 M113.4,228.1c0,0,4.3,4.3,8.6,4.6c0.1,2.9-0.2,6.9-1.3,7.9c-0.9-1.6-0.2-1.8-1.3-3.3S114.2,231.3,113.4,228.1z M158.1,248.4
		c-1.7,0.4-3.5,0.6-5.3,0.7c-1.3,0.3-1.1,1.4-1.3,2S156.3,250.5,158.1,248.4L158.1,248.4z M150.9,253.7c0,0,3.6,2.1,5.3,1.3
		c-2.2,1.6-5.1,1.3-5.9,2S150.9,255,150.9,253.7L150.9,253.7z M137.7,229.4c-1.8-1-3.9-1.2-5.9-0.7c-3.5,0.9-5.6,1.8-5.3,4.6
		s2.6,2.6,4,2s6.4-1.7,7.2-2.6S138.5,230.7,137.7,229.4z"/>
	<g>
		<path class="st1" d="M501.6,116.7c0,0-3.7-2.8-7.2,3.1c-0.8,1.4-1.6,2.8-2.4,4.2c0,0-0.1,0.1-0.1,0.1s-5.5,10.2-12,22.6
			c0-2.1-0.1-4.7-0.5-7.9c-0.7-5.8-4.5-4.7-5.3-4.4v0c0,0-4.3,1.7-1.1,7.8c1.5,2.8,3.2,5.5,5,8.1c-2.1,4-4.2,8.2-6.3,12.2
			c0,0,0,0-0.1,0.1c0-1.1-0.1-2.3-0.3-3.7c-0.7-5.8-4.5-4.7-5.3-4.4l0,0c0,0-4.3,1.7-1.1,7.8c1.1,2.1,2.3,4.2,3.6,6.2
			c-2.8,5.5-5.2,10.6-7,14.5c-0.1-0.9-0.2-1.9-0.3-3c-0.7-5.8-4.5-4.7-5.3-4.4c0,0-4.3,1.7-1.1,7.8c1.2,2.2,2.5,4.3,3.8,6.4
			c-2,4.8-3.9,8.8-6,14.9c-0.1-1.7-0.2-3.6-0.5-5.8c-0.7-5.9-4.8-4.8-5.5-4.5c0,0-4.5,1.7-1.1,7.9c1.6,2.8,3.3,5.5,5.2,8.1
			c-2.7,8.8-5.9,21.6-10.1,43c2.7,0,3,0,3,0s5-29.3,11.4-47.5c1.7-0.6,5.2-1.8,10.6-3.4c5.6-1.6,3.9-5.3,3.5-5.9v0
			c0,0-2.4-4-7.8,0.2c-1.7,1.4-3.3,3-4.7,4.8c0.3-0.7,0.6-1.5,0.9-2.1c0.9-2.2,1.9-4.5,2.9-6.9c0.2,0.3,0.4,0.6,0.6,0.9
			c0,0,0.3-1.1,0.4-3.2c0.8-1.9,1.7-3.8,2.5-5.7c2.2-0.2,5.5-0.8,9.6-2c5.6-1.6,3.9-5.3,3.5-5.9v0c0,0-2.4-4-7.8,0.2
			c-1,0.7-1.9,1.5-2.8,2.3c2.4-5.2,4.9-10.5,7.3-15.6c2.2-0.2,5.5-0.8,9.8-2c5.6-1.6,3.9-5.3,3.5-5.9v0c0,0-2.4-4-7.8,0.2
			c-1,0.8-2,1.6-2.9,2.4c2.6-5.2,5-10.1,7.3-14.5c1.9-0.1,6-0.4,11.9-2.2c5.6-1.6,3.9-5.3,3.5-5.9v0c0,0-2.4-4-7.8,0.2
			c-2.2,1.7-4.4,3.6-6.4,5.5c2.6-5,4.8-9.1,6.4-11.7c2-1,5-2.7,8.8-5.7C505,119.9,502.2,117.2,501.6,116.7z"/>
		<path class="st1" d="M165.4,264.8c-2.1-1.7-4.4-3.2-6.7-4.7c-5.1-3.1-6.7,0.6-6.7,0.6h0c-0.3,0.6-1.3,4,3.6,4.8
			c1.8,0.3,3.4,0.5,4.8,0.6c-5.2,1.6-8.7,3.1-12.8,4.6c-1.7-1.2-3.4-2.4-5.2-3.5c-5-3-6.6,0.6-6.6,0.6h0c-0.3,0.6-1.3,3.8,3.5,4.6
			c0.9,0.1,1.7,0.3,2.5,0.4c-3.3,1.3-7.7,3.2-12.5,5.4c-1.6-1.2-3.3-2.3-5.1-3.3c-5-3-6.6,0.6-6.6,0.6l0,0c-0.3,0.6-1.3,3.8,3.5,4.6
			c1.2,0.2,2.2,0.3,3.1,0.3c0,0,0,0-0.1,0.1c-3.5,1.6-7.1,3.3-10.5,4.9c-2.1-1.6-4.3-3.1-6.6-4.5c-5-3-6.6,0.6-6.6,0.6h0
			c-0.3,0.6-1.3,3.8,3.5,4.6c2.7,0.4,4.9,0.6,6.6,0.7c-10.7,5-19.5,9.3-19.5,9.3s0,0,0,0c-1.2,0.6-2.5,1.2-3.7,1.8
			c-5.1,2.8-2.9,6-2.9,6c0.4,0.5,2.6,3.1,5.8-0.7c2.6-3.1,4.2-5.6,5.1-7.3c2.3-1.2,5.8-2.9,10.2-5c-1.7,1.7-3.4,3.4-4.9,5.2
			c-3.8,4.5-0.5,6.6-0.5,6.6c0.5,0.4,3.5,1.9,5.1-2.8c1.7-5,2.2-8.5,2.3-10c3.8-1.7,8-3.6,12.5-5.6c-0.7,0.8-1.4,1.6-2.1,2.4
			c-3.8,4.5-0.5,6.6-0.5,6.6v0c0.5,0.4,3.5,1.9,5.1-2.8c1.2-3.6,1.8-6.4,2.1-8.2c4.4-1.9,9-3.8,13.4-5.6c-0.7,0.8-1.4,1.5-2.1,2.3
			c-3.8,4.5-0.5,6.6-0.5,6.6c0.5,0.4,3.5,1.9,5.1-2.8c1.2-3.5,1.8-6.2,2.1-8.1c1.7-0.7,3.3-1.3,4.9-1.9c1.8,0,2.8-0.2,2.8-0.2
			c-0.2-0.2-0.5-0.4-0.7-0.6c2-0.8,4-1.5,5.9-2.2c0.6-0.2,1.2-0.5,1.8-0.7c-1.5,1.1-3,2.4-4.2,3.8c-3.8,4.5-0.5,6.6-0.5,6.6
			c0.5,0.4,3.5,1.9,5.1-2.8c1.6-4.6,2.7-7.4,3.3-8.9c15.6-4.8,40.6-7.9,40.6-7.9s0-0.3,0.1-2.5C183.9,260.6,173,262.8,165.4,264.8z"
			/>
	</g>
</g>
<g id="组_14">
	<ellipse id="椭圆_721" class="st2" cx="302" cy="310.5" rx="198" ry="19.5"/>
	<g id="组_29">
		<path id="矩形_508" class="st3" d="M293,75h170c3.9,0,7,3.1,7,7v45c0,3.9-3.1,7-7,7H293c-3.9,0-7-3.1-7-7V82
			C286,78.1,289.1,75,293,75z"/>
		<circle id="椭圆_509" class="st4" cx="318" cy="106" r="17"/>
		<rect id="矩形_510" x="354" y="94" class="st4" width="101" height="7"/>
		<rect id="矩形_510_拷贝" x="354" y="109" class="st4" width="101" height="7"/>
	</g>
	<g id="组_29-2">
		<path id="矩形_508-2" class="st5" d="M293,134h170c3.9,0,7,3.1,7,7v45c0,3.9-3.1,7-7,7H293c-3.9,0-7-3.1-7-7v-45
			C286,137.1,289.1,134,293,134z"/>
		<circle id="椭圆_509-2" class="st4" cx="318" cy="165" r="17"/>
		<rect id="矩形_510-2" x="354" y="153" class="st4" width="101" height="7"/>
		<rect id="矩形_510_拷贝-2" x="354" y="168" class="st4" width="101" height="7"/>
	</g>
	<g id="组_29-3">
		<path id="矩形_508-3" class="st3" d="M293,193h170c3.9,0,7,3.1,7,7v45c0,3.9-3.1,7-7,7H293c-3.9,0-7-3.1-7-7v-45
			C286,196.1,289.1,193,293,193z"/>
		<circle id="椭圆_509-3" class="st4" cx="318" cy="224" r="17"/>
		<rect id="矩形_510-3" x="354" y="212" class="st4" width="101" height="7"/>
		<rect id="矩形_510_拷贝-3" x="354" y="227" class="st4" width="101" height="7"/>
	</g>
	<g id="组_29-4">
		<path id="矩形_508-4" class="st5" d="M293,252h170c3.9,0,7,3.1,7,7v45c0,3.9-3.1,7-7,7H293c-3.9,0-7-3.1-7-7v-45
			C286,255.1,289.1,252,293,252z"/>
		<circle id="椭圆_509-4" class="st4" cx="318" cy="283" r="17"/>
		<rect id="矩形_510-4" x="354" y="271" class="st4" width="101" height="7"/>
		<rect id="矩形_510_拷贝-4" x="354" y="286" class="st4" width="101" height="7"/>
	</g>
	<path id="圆角矩形_2" class="st6" d="M130,176h157c5.5,0,10,4.5,10,10v95c0,5.5-4.5,10-10,10H130c-5.5,0-10-4.5-10-10v-95
		C120,180.5,124.5,176,130,176z"/>
	<path id="圆角矩形_2_拷贝" class="st7" d="M132,182h154c3.9,0,7,3.1,7,7v89c0,3.9-3.1,7-7,7H132c-3.9,0-7-3.1-7-7v-89
		C125,185.1,128.1,182,132,182z"/>
	<path id="形状_507" class="st6" d="M198,291h20v5c0,0-0.7,9,10,9h7v5h-54v-5h8c0,0,8.9,0.5,9-9C198,290.3,198,291,198,291z"/>
	<circle id="椭圆_538" class="st8" cx="168" cy="234" r="28"/>
	<path id="矩形_532_拷贝" class="st9" d="M111.2,167.5c0.7-0.6,1.7-0.5,2.3,0.1l4.5,5.1c0.6,0.7,0.5,1.7-0.1,2.3
		c-0.7,0.6-1.7,0.5-2.3-0.1l-4.5-5.1C110.4,169.1,110.5,168.1,111.2,167.5C111.1,167.5,111.1,167.5,111.2,167.5z"/>
	<path id="矩形_532_拷贝_2" class="st9" d="M124.8,160.7c0.9-0.1,1.7,0.6,1.7,1.5c0,0,0,0,0,0l0.5,6.8c0,0.9-0.6,1.6-1.5,1.7
		c-0.9,0-1.6-0.6-1.7-1.4l-0.5-6.8C123.3,161.6,123.9,160.8,124.8,160.7z"/>
	<path id="矩形_532_拷贝_3" class="st9" d="M104.4,180.5c-0.1,0.9,0.5,1.7,1.4,1.8l6.8,1c0.9,0.1,1.7-0.5,1.8-1.4c0,0,0,0,0,0
		c0.1-0.9-0.5-1.7-1.4-1.8l-6.8-1C105.4,179,104.6,179.6,104.4,180.5C104.4,180.5,104.4,180.5,104.4,180.5z"/>
	<path id="形状_537" class="st10" d="M286,103h-79v73"/>
	<path id="矩形_538" class="st11" d="M208.5,93.9l14.3,14.3c1.4,1.4,1.4,3.7,0,5.1c0,0,0,0,0,0l-14.3,14.3c-1.4,1.4-3.7,1.4-5.1,0
		c0,0,0,0,0,0l-14.3-14.3c-1.4-1.4-1.4-3.7,0-5.1c0,0,0,0,0,0l14.3-14.3C204.9,92.5,207.1,92.5,208.5,93.9
		C208.5,93.9,208.5,93.9,208.5,93.9z"/>
	<path id="矩形_532" class="st12" d="M206.5,100L206.5,100c1.4,0,2.5,1.1,2.5,2.5v10c0,1.4-1.1,2.5-2.5,2.5l0,0
		c-1.4,0-2.5-1.1-2.5-2.5v-10C204,101.1,205.1,100,206.5,100z"/>
	<circle id="椭圆_533" class="st13" cx="206.5" cy="119.5" r="2.5"/>
</g>
<g id="组_18">
	<path id="形状_16" class="st14" d="M1,118h123c0.1-1.6-0.7-3.1-2-4c-2.2-1.6-6.2-5-9-4s-4.4,3.6-7,3c-4.4-0.4-7.8-3.9-10-6
		c-1.3-1.2-4.2-4.2-9-2s-4,5-8,5s-10.2-3.8-13-7s-6.6-5.2-12-2s-10,9-14,8s-4.9-4.4-10-4s-13.2,2.9-18,7s-3.7,3.1-6,3
		S0.8,117.7,1,118z M141,118h14c-1-2-2.8-3.5-5-4C146.5,113.3,141.8,117.7,141,118z"/>
	<path id="形状_16_拷贝" class="st15" d="M504,69h123c0.1-1.6-0.7-3.1-2-4c-2.2-1.6-6.2-5-9-4s-4.4,3.6-7,3
		c-4.4-0.4-7.8-3.9-10-6c-1.3-1.2-4.2-4.2-9-2s-4,5-8,5s-10.2-3.8-13-7s-6.6-5.2-12-2s-10,9-14,8s-4.9-4.4-10-4s-13.2,2.9-18,7
		s-3.7,3.1-6,3S503.8,68.7,504,69z M644,69h14c-1-2-2.8-3.5-5-4C649.5,64.3,644.8,68.7,644,69z"/>
	<g id="组_17">
		<path id="形状_13" class="st16" d="M230,2l18,4l-12,8L230,2z"/>
		<path id="形状_11" class="st16" d="M228,18h73c-1,4.4-3.4,8.3-7,11c-6,4.6-17,6.1-19,6c-0.3,0.5,0,6,0,6h-10l-2-6
			c-0.9-0.6-1.9-1-3-1c-1.5,0.1-13.6-3.2-15-4c-1.1,0.6-15,3-15,3l4-8C234,25,229.6,21.3,228,18z"/>
		<path id="形状_12" class="st17" d="M300,18h-72c0,0,8.3,5.8,22,8s26.8,2.2,34,1S297.6,23.6,300,18z"/>
		<path id="形状_12_拷贝_2" class="st17" d="M301,18h-72c0,0,1.4-7.7,22-13.8c13.7-4,26.8-3.9,34-1.7S298.6,8.4,301,18z"/>
		<path id="形状_12_拷贝" class="st16" d="M301,18h-72c0,0,8.3-5.9,22-8.1s26.8-2.3,34-1S298.6,12.3,301,18z"/>
	</g>
</g>
<g id="组_27">
	<path id="矩形_14" class="st5" d="M153.8,221.2c1.4-1.7,4-1.6,6,0l22.2,19.4c1.9,1.7,2.4,4.4,1,6.1s-4,1.6-6,0l-22.2-19.4
		C152.9,225.6,152.4,222.9,153.8,221.2z"/>
	<path id="矩形_542" class="st5" d="M210.5,210h66c0.8,0,1.5,0.7,1.5,1.5l0,0c0,0.8-0.7,1.5-1.5,1.5h-66c-0.8,0-1.5-0.7-1.5-1.5
		l0,0C209,210.7,209.7,210,210.5,210z"/>
	<path id="矩形_542_拷贝" class="st5" d="M210.5,219h66c0.8,0,1.5,0.7,1.5,1.5l0,0c0,0.8-0.7,1.5-1.5,1.5h-66
		c-0.8,0-1.5-0.7-1.5-1.5l0,0C209,219.7,209.7,219,210.5,219z"/>
	<path id="矩形_542_拷贝_2" class="st5" d="M210.5,227h66c0.8,0,1.5,0.7,1.5,1.5l0,0c0,0.8-0.7,1.5-1.5,1.5h-66
		c-0.8,0-1.5-0.7-1.5-1.5l0,0C209,227.7,209.7,227,210.5,227z"/>
	<path id="矩形_542_拷贝_3" class="st5" d="M210.5,236h39c0.8,0,1.5,0.7,1.5,1.5l0,0c0,0.8-0.7,1.5-1.5,1.5h-39
		c-0.8,0-1.5-0.7-1.5-1.5l0,0C209,236.7,209.7,236,210.5,236z"/>
	<path id="矩形_542_拷贝_3-2" class="st5" d="M210.5,245h39c0.8,0,1.5,0.7,1.5,1.5l0,0c0,0.8-0.7,1.5-1.5,1.5h-39
		c-0.8,0-1.5-0.7-1.5-1.5l0,0C209,245.7,209.7,245,210.5,245z"/>
	<path id="矩形_542_拷贝_3-3" class="st5" d="M210.5,253h39c0.8,0,1.5,0.7,1.5,1.5l0,0c0,0.8-0.7,1.5-1.5,1.5h-39
		c-0.8,0-1.5-0.7-1.5-1.5l0,0C209,253.7,209.7,253,210.5,253z"/>
	<path id="矩形_14_拷贝" class="st5" d="M183.2,221.2c-1.4-1.7-4-1.6-5.9,0l-22.1,19.4c-1.9,1.7-2.4,4.4-1,6.1s4,1.6,5.9,0
		l22.1-19.4C184.1,225.6,184.6,222.9,183.2,221.2z"/>
</g>
</svg>
