<?xml version="1.0" encoding="utf-8"?>
<!-- Generator: Adobe Illustrator 21.0.0, SVG Export Plug-In . SVG Version: 6.00 Build 0)  -->
<svg version="1.1" id="组_16" xmlns="http://www.w3.org/2000/svg" xmlns:xlink="http://www.w3.org/1999/xlink" x="0px" y="0px"
	 viewBox="0 0 643 389" style="enable-background:new 0 0 643 389;" xml:space="preserve">
<style type="text/css">
	.st0{fill:#F0F0F0;}
	.st1{fill:#FCD2C5;}
	.st2{fill:#F0F0FA;}
	.st3{fill:#ADC0C6;}
	.st4{fill:#C7F7CC;}
	.st5{fill:#FFE192;}
	.st6{fill:#C9EECA;}
	.st7{fill:#7B8193;}
	.st8{fill:#EDF8FD;}
	.st9{fill:#A9CCEB;}
	.st10{fill:#78CBF4;}
	.st11{fill:#B1AEE3;}
	.st12{fill:#AEABE0;}
	.st13{fill:none;stroke:#FFFFFF;stroke-width:3;stroke-linecap:round;stroke-linejoin:round;}
	.st14{fill:none;stroke:#A9CCEB;stroke-width:2;stroke-linecap:round;stroke-linejoin:round;}
	.st15{fill:#A9CEEC;}
	.st16{fill:#FFFFFF;}
	.st17{fill:#697AAE;}
	.st18{fill:#D5DBE0;}
	.st19{fill:#35325F;}
	.st20{fill:#A9B6F7;}
	.st21{fill:#515A98;}
	.st22{fill:#8E9ED6;}
	.st23{fill:#AFD0F2;}
	.st24{fill:#ADADE6;}
	.st25{fill:#F6F4F6;}
	.st26{fill:#C7CEFB;}
	.st27{fill:#6162AC;}
	.st28{fill:#2E3955;}
	.st29{fill:#B0E3FD;}
	.st30{fill:#D4EFFB;}
	.st31{opacity:0.3;fill:#ABD3E9;enable-background:new    ;}
	.st32{opacity:0.4;fill:#ABD3E9;enable-background:new    ;}
	.st33{fill:#EAEDEF;}
	.st34{fill:#F7F7F7;}
	.st35{fill:#6B65A5;}
	.st36{fill:#332E62;}
</style>
<path class="st0" d="M537.5,359l-3.2-1.5c0,0-0.6,1.1-1.1,1.7c-1,1.3-5.9,2.6-5.8,4.4c0.1,0.9,2,1.5,3.5,1.5
	c1.5-0.1,2.9-0.3,3.6-0.8c1-0.7,2.9-1.4,3.2-1.9c0.5-1,0-2.1,0-2.1C537.7,359.3,537.5,359,537.5,359z"/>
<path class="st1" d="M533.1,359.3c0,0,0.7,1,1.9,1.6c0.7,0.3,2.6-0.5,2.6-0.5c0.1-1,0-2.5,0-2.5l-4.1-0.4
	C533.6,357.4,533.9,358.2,533.1,359.3z"/>
<path class="st0" d="M512.7,357.9l-3.1-1.7c0,0-0.7,1-1.2,1.6c-1.1,1.2-6.1,2.1-6.1,3.9c0,0.9,1.9,1.7,3.4,1.8
	c1.5,0.1,2.8-0.2,3.7-0.5c0.9-0.3,3-1.1,3.3-1.7c0.6-1,0.1-2.1,0.1-2.1C513,358.3,512.7,357.9,512.7,357.9z"/>
<path class="st1" d="M508.4,357.8c0,0,0.6,1.1,1.8,1.7c0.7,0.4,2.6-0.3,2.6-0.3c0.2-1,0.1-2.4,0.1-2.4l-4.2-0.8
	C508.7,356.1,509.2,356.8,508.4,357.8z"/>
<ellipse id="椭圆_721" class="st2" cx="290" cy="355.5" rx="198" ry="19.5"/>
<path class="st3" d="M98.3,350.3l3.1-1.7c0,0,0.7,1,1.2,1.6c1.1,1.2,6.1,2.1,6.1,3.9c0,0.9-1.9,1.7-3.4,1.8
	c-1.5,0.1-2.8-0.2-3.7-0.5c-0.9-0.3-3-1.1-3.3-1.7c-0.6-1-0.1-2.1-0.1-2.1C98.1,350.7,98.3,350.3,98.3,350.3z"/>
<path class="st1" d="M102.7,350.2c0,0-0.6,1.1-1.8,1.7c-0.7,0.4-2.6-0.3-2.6-0.3c-0.2-1-0.2-1.7-0.2-1.7l3.5-1.6
	C101.6,348.4,101.9,349.2,102.7,350.2z"/>
<g id="组_21">
	<path id="形状_9" class="st4" d="M431,291.8c0,0,0.3-15.6,8-16c3.5-0.2,3.9,8,2,11c-1.4,3.5-3.1,6.8-5,10l1,5c0,0,6.7-15.4,15-16
		c2.9-0.2,5.5,0.8,5,2c-0.9,3.4-3.5,9.4-7,12s-8.3,7.6-11,7c0.5,3.4,2.5,9.4,3,10c0.7-4.8,5.5-12,10-14c2.9-2,6.7-5.2,9-5
		s3.5,3.2,0,8s-9.1,11.2-17,14c0.4,1.7,0.8,3.3,1,5c0,0,10.5-10.8,15-10s3.1,2.4,3,4s-6.5,8.6-13,12c1.8,3.1,3.8,6.2,6,9
		c0,0,10.3-11.8,11-14s9.3-22.1,10-27.1s0.5-15-1-20s-1.5-9-2-11s-4.1-3.6-6-3c-1,0.3-11.1-2.8-14-3s-6.3-0.6-6-4s2.3-5,6-5
		c3,0.1,6,0.4,9,1c0,0,9.5,5.4,10,7c-0.1-3-0.5-6-1-9c0,0-8.9,1-15-3s-8.1-5.6-8-8s5.3-3.6,9-2s11.7,3.6,14,9c0.1-7.6-4.9-9-10-13
		s-8.3-8.4-8-10s5.1-2.6,8-1s7.5,5,8,7c1.1-2.8,2.7-14,6-16s4.5-2,5-1s0.9,8,0,12s-6.5,13.4-7,15s1,9,1,9c1.2-0.5,2-1.7,2-3
		c0.1-2.4,2.2-9.1,5-12c3.7-3.8,7.7-4.4,11-3c1.8,0.8,1.9,1,0,4s-8.3,11.4-16,16c-0.1,4.4,0,8,0,8s2.7-4,4-5s13.3-8,14-9
		s3.7-0.8,3,0c-1.5,2.7-3.6,5.1-6,7c-4.1,3.2-12.5,11.4-14,12s-2.3,4-1,6s2,2,2,2s0.1-3.2,1-4s4.3-5,8-7s8.7-3.2,10-12
		c1.3,3.6-0.3,10-1,11s1,3,1,3s9.3-4.2,10-4s-1.7-12.2,4-17s4.1-5,5-3s1.5,3.6,0,8s-3,11-3,11l10-4c0,0-3.9-13.4-1-18s5.3-5.6,6-5
		s1.3,6.6,1,8s-1.9,12.6-2,13s8-3,8-3s-2.7-10,1-16s7.9-9.6,9-9s2.3,3.4,1,8s-5,15-5,15l7-2c1.4-1,2.5-2.4,3-4
		c0.9-2.8,5.1-11.2,8-12s6.9-3.4,8-2c-0.3,3.6-5.3,13.2-10,16c2.9,1.2,6.7-0.2,10,1s11.3,6.4,11,9c0.7,2.4-1.9,5.4-5,5
		s-17.3-7.2-18-9c-0.7-1.5-2.4-2.4-4-2c-0.9,0.4-7.5,0.4-10,3c6.1-0.2,14.1-0.4,17,4s2.7,7.6,2,8s-3.5-0.2-6-1s-12.3-6.4-13-7
		s-2.7-2.2-4-2s-5.5,0.8-8,2s6.9-1,8,0c0.5,0.2,8.5,2.8,10,6s3.1,5.6,1,6s-7.7-4.2-9-4s-12.5-3.8-14-5s-4.3,0.6-6,1s-3.1,0.8-4,2
		s2.9,0.8,4,1s10.3,4.6,11,6s3,2,3,2s0.9,3.8-3,4s-14.5-4.8-16-6s-7.7-5.2-11-4c-3.8,1.5-7.2,3.9-10,7c-2.3,2.8-12.5,20.4-13,23.1
		s-6.5,18.2-7,21s-2.3,7.4,1,7s3.9-2,4-5s1.9-11.2,5-13s6.3-2.2,7-1c0.5,6.6-4.1,11.6-6,14s-2,3-2,3s5.7-2.4,7-3s2.5-3,3-7
		s6.9-10.6,8-12s2.7-2.4,4-1s-0.5,6.6-2,9s-4.9,8.2-6,9c3.8-1.4,7.5-3.1,11-5c0,0-2.1-11.8,2-17c4.1-5.2,5.3-4.2,6-4s3.9,2.8,0,12
		c-2.7,7-1,6-1,6l7-4c0,0,0.1-7,1-8s3.5-5.8,7-8c4.3-1.2,3.9-4.4,5-4s1.9,1,2,3s-3.9,11-10,17c2.9,0.6,11.5-0.6,14,1
		c3.3,0.4,6.5,2.8,7,5s0.5,4.6-3,5s-18.7-5-20-7s-5.7,0-7,1s-1,1-1,1s4.3-0.4,6,1s9.1,3.8,10,9s-1.1,5-3,5s-6.7-2.2-8-3
		s-9.1-3.4-13-8c-3.3,0.8-4.9,0.6-6,2s-3.9,0.2-3,2s0.3,1.4,2,2s1.5-0.2,4,1s8.3,4.2,8,9s-4.9,7.8-8,4s-9.6-13.8-11.1-14s-7.5,1-9,2
		s3.1,3,7,5s9.1,6.2,9,8s-3.3,3.4-8,0c-5.9-1.8-10.9-8.4-11-11c-3.3-0.2-8.5,1.2-11,3s-7.7,9-12,15c-3.3,7.8-8.9,18.8-10,19
		c-1.5-2.8-2-4-2-4l6-10c0,0-9.1-16.4-10-17s-20.1,3.4-23,0s-0.3-4.2,2-5s17.3-1.8,19,1c-0.1-2.2-5-7-5-7s-18.5-2-21-2s-2.5-3.6-1-5
		c1-1.1,1.7-2.5,2-4c0,0-4.1,0.6-6-1s-3.3-6,0-7s8.3-1.8,10-1c-3.3-2.6-7.9-4.8-10-7s-0.5-4,2-4S425.4,286.2,431,291.8z
		 M491.9,266.8c0,0-6.5,6.6-13,7c-0.1,4.4,0.3,10.6,2,12c1.3-2.4,0.3-2.8,2-5S490.7,271.6,491.9,266.8z M424,297.9c0,0,5.5,1.2,8,1
		c1.9,0.4,1.7,2.2,2,3S426.8,301.1,424,297.9z M435,305.9c0,0-5.5,3.2-8,2c3.3,2.4,7.7,2,9,3S435,307.9,435,305.9L435,305.9z
		 M454.9,268.8c2.7-1.5,6-1.9,9-1c5.3,1.4,8.5,2.8,8,7s-3.9,4-6,3s-9.7-2.6-11-4S453.7,270.8,454.9,268.8L454.9,268.8z"/>
	<path id="形状_9_拷贝" class="st4" d="M137.2,227.1c0,0-0.2-11.9-6.1-12.2c-2.7-0.2-3,6.1-1.5,8.4c1.1,2.6,2.4,5.2,3.8,7.6
		l-0.8,3.8c0,0-5.1-11.8-11.5-12.2c-2.2-0.2-4.2,0.6-3.8,1.5c0.7,2.6,2.7,7.2,5.3,9.2s6.4,5.8,8.4,5.3c-0.5,2.6-1.2,5.2-2.3,7.6
		c-0.5-3.7-4.2-9.2-7.6-10.7c-2.2-1.5-5.1-4-6.9-3.8s-2.7,2.4,0,6.1s7,8.6,13,10.7c-0.3,1.3-0.6,2.5-0.8,3.8c0,0-8-8.2-11.5-7.6
		s-2.4,1.8-2.3,3.1s5,6.6,9.9,9.2c-1.4,2.4-2.9,4.7-4.6,6.9c0,0-7.9-9-8.4-10.7s-7.1-16.8-7.6-20.6s-0.4-11.5,0.8-15.3
		s1.2-6.9,1.5-8.4s3.1-2.7,4.6-2.3c0.8,0.2,8.5-2.1,10.7-2.3s4.8-0.5,4.6-3.1s-1.7-3.8-4.6-3.8c-2.3,0.1-4.6,0.3-6.9,0.8
		c0,0-7.2,4.1-7.6,5.3c0.1-2.3,0.3-4.6,0.8-6.9c0,0,6.8,0.8,11.5-2.3s6.2-4.3,6.1-6.1s-4-2.8-6.9-1.5s-8.9,2.8-10.7,6.9
		c-0.1-5.8,3.8-6.9,7.6-9.9s6.4-6.4,6.1-7.6s-3.9-2-6.1-0.8s-5.7,3.8-6.1,5.3c-0.9-2.1-2.1-10.7-4.6-12.2s-3.4-1.5-3.8-0.8
		s-0.7,6.1,0,9.2s5,10.2,5.3,11.5s-0.8,6.9-0.8,6.9c-0.9-0.4-1.5-1.3-1.5-2.3c-0.1-1.8-1.7-7-3.8-9.2c-2.8-2.9-5.9-3.4-8.4-2.3
		c-1.4,0.6-1.4,0.8,0,3.1s6.4,8.7,12.2,12.2c0.1,3.4,0,6.1,0,6.1c-0.9-1.4-1.9-2.6-3.1-3.8c-1-0.8-10.2-6.1-10.7-6.9s-2.8-0.6-2.3,0
		c1.2,2.1,2.7,3.9,4.6,5.3c3.1,2.4,9.6,8.7,10.7,9.2s1.8,3.1,0.8,4.6s-1.5,1.5-1.5,1.5s-0.1-2.4-0.8-3.1s-3.3-3.8-6.1-5.3
		S87,201.7,86,195c-1,2.7,0.2,7.6,0.8,8.4s-0.8,2.3-0.8,2.3s-7.1-3.2-7.6-3.1s1.3-9.3-3.1-13s-3.1-3.8-3.8-2.3s-1.1,2.7,0,6.1
		s2.3,8.4,2.3,8.4l-7.6-3.1c0,0,3-10.2,0.8-13.7s-4-4.3-4.6-3.8s-1,5-0.8,6.1s1.5,9.6,1.5,9.9S57,195,57,195s2.1-7.6-0.8-12.2
		s-6-7.3-6.9-6.9s-1.7,2.6-0.8,6.1s3.8,11.5,3.8,11.5L47,192c-1.1-0.7-1.9-1.8-2.3-3.1c-0.7-2.1-3.9-8.6-6.1-9.2s-5.3-2.6-6.1-1.5
		c0.2,2.7,4.1,10.1,7.6,12.2c-2.2,0.9-5.1-0.2-7.6,0.8s-8.6,4.9-8.4,6.9c-0.5,1.8,1.5,4.1,3.8,3.8s13.2-5.5,13.8-6.9
		c0.5-1.2,1.8-1.8,3.1-1.5c0.7,0.3,5.7,0.3,7.6,2.3c-4.7-0.2-10.8-0.3-13,3.1s-2.1,5.8-1.5,6.1s2.7-0.2,4.6-0.8
		c3.4-1.6,6.8-3.3,9.9-5.3c0.5-0.5,2.1-1.7,3.1-1.5c2.1,0.3,4.1,0.8,6.1,1.5c1.9,0.9-5.3-0.8-6.1,0c-0.4,0.2-6.5,2.1-7.6,4.6
		s-2.4,4.3-0.8,4.6s5.9-3.2,6.9-3.1s9.6-2.9,10.7-3.8s3.3,0.5,4.6,0.8c1.2,0.1,2.3,0.7,3.1,1.5c0.7,0.9-2.2,0.6-3.1,0.8
		s-7.9,3.5-8.4,4.6c-0.6,0.8-1.4,1.3-2.3,1.5c0,0-0.7,2.9,2.3,3.1s11.1-3.7,12.2-4.6s5.9-4,8.4-3.1c2.9,1.2,5.5,3,7.6,5.3
		c1.7,2.1,9.6,15.6,9.9,17.6s5,13.9,5.3,16s1.8,5.7-0.8,5.3s-3-1.5-3.1-3.8s-1.4-8.6-3.8-9.9s-4.8-1.7-5.3-0.8
		c-0.4,5,3.1,8.9,4.6,10.7c0.6,0.7,1.1,1.4,1.5,2.3c0,0-4.3-1.8-5.3-2.3s-1.9-2.3-2.3-5.3s-5.3-8.1-6.1-9.2s-2.1-1.8-3.1-0.8
		s0.4,5,1.5,6.9s3.8,6.3,4.6,6.9c-2.9-1-5.7-2.3-8.4-3.8c0,0,1.6-9-1.5-13s-4-3.2-4.6-3.1s-3,2.1,0,9.2c2.1,5.3,0.8,4.6,0.8,4.6
		l-5.3-3.1c0,0-0.1-5.3-0.8-6.1s-2.7-4.4-5.3-6.1c-3.3-0.9-3-3.4-3.8-3.1s-1.4,0.8-1.5,2.3s3,8.4,7.6,13c-2.2,0.5-8.8-0.5-10.7,0.8
		c-2.5,0.3-5,2.1-5.3,3.8s-0.4,3.5,2.3,3.8s14.3-3.8,15.3-5.3s4.4,0,5.3,0.8s0.8,0.8,0.8,0.8s-3.3-0.3-4.6,0.8s-6.9,2.9-7.6,6.9
		s0.9,3.8,2.3,3.8s5.1-1.7,6.1-2.3s7-2.6,9.9-6.1c2.5,0.6,3.8,0.5,4.6,1.5s3,0.2,2.3,1.5s-0.2,1.1-1.5,1.5s-1.1-0.2-3.1,0.8
		s-6.3,3.2-6.1,6.9c0.2,3.7,3.8,6,6.1,3.1s7.3-10.5,8.4-10.7c2.4,0.1,4.7,0.6,6.9,1.5c1.1,0.8-2.4,2.3-5.3,3.8s-6.9,4.7-6.9,6.1
		s2.5,2.6,6.1,0c4.5-1.4,8.3-6.4,8.4-8.4c3,0,5.9,0.8,8.4,2.3c1.9,1.4,5.9,6.9,9.2,11.5c2.5,6,6.8,14.4,7.6,14.5
		c1.1-2.1,1.5-3.1,1.5-3.1l-4.6-7.6c0,0,7-12.5,7.6-13s15.4,2.6,17.6,0s0.2-3.2-1.5-3.8s-13.2-1.4-14.5,0.8c0.1-1.7,3.8-5.3,3.8-5.3
		s14.2-1.5,16.1-1.5s1.9-2.8,0.8-3.8c-0.8-0.9-1.3-1.9-1.5-3.1c0,0,3.1,0.5,4.6-0.8s2.5-4.6,0-5.3s-6.3-1.4-7.6-0.8
		c2.5-2,6.1-3.7,7.6-5.3s0.4-3.1-1.5-3.1S141.5,222.8,137.2,227.1z M90.6,208c0,0,5,5,9.9,5.3c0.1,3.4-0.2,8.1-1.5,9.2
		c-1-1.8-0.2-2.1-1.5-3.8S91.5,211.6,90.6,208z M142.6,231.7c-2,0.5-4.1,0.7-6.1,0.8c-1.5,0.3-1.3,1.7-1.5,2.3
		S140.4,234.1,142.6,231.7z M134.2,237.8c0,0,4.2,2.4,6.1,1.5c-2.5,1.8-5.9,1.5-6.9,2.3S134.2,239.3,134.2,237.8z M118.9,209.5
		c-2.1-1.2-4.6-1.4-6.9-0.8c-4.1,1.1-6.5,2.1-6.1,5.3s3,3.1,4.6,2.3s7.4-2,8.4-3.1S119.8,211,118.9,209.5z"/>
	<g>
		<path class="st5" d="M507.6,153.7c0,0-3.7-2.8-7.2,3.1c-0.8,1.4-1.6,2.8-2.4,4.2l-0.1,0.1c0,0-5.5,10.2-12,22.6
			c0-2.1-0.1-4.7-0.5-7.9c-0.7-5.8-4.5-4.7-5.3-4.4l0,0c0,0-4.3,1.7-1.1,7.8c1.5,2.8,3.2,5.5,5,8.1c-2.1,4-4.2,8.2-6.3,12.2
			c0,0,0,0-0.1,0.1c0-1.1-0.1-2.3-0.3-3.7c-0.7-5.8-4.5-4.7-5.3-4.4l0,0c0,0-4.3,1.7-1.1,7.8c1.1,2.1,2.3,4.2,3.6,6.2
			c-2.8,5.5-5.2,10.6-7,14.5c-0.1-0.9-0.2-1.9-0.3-3c-0.7-5.8-4.5-4.7-5.3-4.4c0,0-4.3,1.7-1.1,7.8c1.2,2.2,2.5,4.3,3.8,6.4
			c-2,4.8-3.9,8.8-6,14.9c-0.1-1.7-0.2-3.6-0.5-5.8c-0.7-5.9-4.8-4.8-5.5-4.5c0,0-4.5,1.7-1.1,7.9c1.6,2.8,3.3,5.5,5.2,8.1
			c-2.7,8.8-5.9,21.6-10.1,43c2.7,0,3,0,3,0s5-29.3,11.4-47.5c1.7-0.6,5.2-1.8,10.6-3.4c5.6-1.6,3.9-5.3,3.5-5.9l0,0
			c0,0-2.4-4-7.8,0.2c-1.7,1.4-3.3,3-4.7,4.8c0.3-0.7,0.6-1.5,0.9-2.1c0.9-2.2,1.9-4.5,2.9-6.9c0.2,0.3,0.4,0.6,0.6,0.9
			c0,0,0.3-1.1,0.4-3.2c0.8-1.9,1.7-3.8,2.5-5.7c2.2-0.2,5.5-0.8,9.6-2c5.6-1.6,3.9-5.3,3.5-5.9l0,0c0,0-2.4-4-7.8,0.2
			c-1,0.7-1.9,1.5-2.8,2.3c2.4-5.2,4.9-10.5,7.3-15.6c2.2-0.2,5.5-0.8,9.8-2c5.6-1.6,3.9-5.3,3.5-5.9l0,0c0,0-2.4-4-7.8,0.2
			c-1,0.8-2,1.6-2.9,2.4c2.6-5.2,5-10.1,7.3-14.5c1.9-0.1,6-0.4,11.9-2.2c5.6-1.6,3.9-5.3,3.5-5.9l0,0c0,0-2.4-4-7.8,0.2
			c-2.2,1.7-4.4,3.6-6.4,5.5c2.6-5,4.8-9.1,6.4-11.7c2-1,5-2.7,8.8-5.7C511,156.9,508.2,154.2,507.6,153.7z"/>
		<path class="st5" d="M113.4,237.8c-2.1-1.7-4.3-3.3-6.6-4.7c-5-3.2-6.7,0.6-6.7,0.6c-0.3,0.6-1.4,4,3.5,4.9
			c1.8,0.3,3.4,0.5,4.8,0.6c-5.2,1.6-8.7,3-12.8,4.5c-1.7-1.2-3.4-2.4-5.2-3.5c-5-3-6.6,0.6-6.6,0.6c-0.3,0.6-1.3,3.8,3.5,4.7
			c0.9,0.2,1.7,0.3,2.5,0.4c-3.3,1.3-7.7,3.2-12.5,5.3c-1.6-1.2-3.3-2.3-5.1-3.3c-5-3-6.6,0.6-6.6,0.6c-0.3,0.6-1.3,3.8,3.5,4.7
			c1.2,0.2,2.2,0.3,3.1,0.4c0,0,0,0-0.1,0.1c-3.5,1.6-7.1,3.2-10.6,4.8c-2.1-1.6-4.3-3.2-6.6-4.5c-5-3-6.6,0.6-6.6,0.6
			c-0.3,0.6-1.3,3.8,3.5,4.7c2.7,0.5,4.9,0.7,6.6,0.7c-10.7,5-19.6,9.2-19.6,9.2s0,0,0,0.1c-1.2,0.6-2.5,1.2-3.7,1.8
			c-5.1,2.7-2.9,6-2.9,6c0.4,0.5,2.6,3.1,5.8-0.7c2.6-3.1,4.2-5.6,5.2-7.2c2.3-1.2,5.9-2.9,10.2-4.9c-1.7,1.7-3.4,3.4-4.9,5.2
			c-3.8,4.4-0.5,6.6-0.5,6.6c0.5,0.4,3.5,1.9,5.2-2.7c1.8-5,2.2-8.4,2.4-10c3.8-1.7,8-3.6,12.6-5.5c-0.7,0.8-1.4,1.6-2.1,2.4
			c-3.8,4.4-0.5,6.6-0.5,6.6l0,0c0.5,0.4,3.5,1.9,5.2-2.7c1.3-3.6,1.9-6.3,2.1-8.2c4.4-1.9,9-3.7,13.5-5.5c-0.7,0.8-1.4,1.5-2.1,2.3
			c-3.8,4.4-0.5,6.6-0.5,6.6c0.5,0.4,3.5,1.9,5.2-2.7c1.2-3.5,1.8-6.2,2.1-8c1.7-0.7,3.3-1.3,5-1.9c1.8,0,2.7-0.2,2.7-0.2
			c-0.2-0.2-0.5-0.4-0.7-0.6c2-0.8,4-1.5,5.9-2.2c0.6-0.2,1.2-0.5,1.9-0.7c-1.6,1.1-3,2.3-4.3,3.8c-3.8,4.4-0.5,6.6-0.5,6.6l0,0
			c0.5,0.4,3.5,1.9,5.2-2.7c1.6-4.6,2.8-7.4,3.4-8.9c15.7-4.7,40.6-7.6,40.6-7.6s0-0.3,0.1-2.5C131.9,233.7,120.9,235.9,113.4,237.8
			z"/>
	</g>
	<path id="形状_10" class="st6" d="M113,299c0,0-9.9,6.2-10,11s2.3,8.7,3,10s1.1,0.9,1,2s-1.2-1.6-3-4s-5-9.6-6-11s-4.4-6.1-8-6
		s-8.9-1.5-11-1s-2.9,1-1,4s3.8,4,5,7s4,7.2,7,8s13.1,1.7,14,4c-1.3,0.6-0.4,0.2-3,0s-11.9-2.1-14-1s-8.5,8.5-9,10s1.1,0.9,4,1
		s6.8,2.2,10,2s9.6-4.8,11-7c1.2-1.9,3.7-2.5,5.6-1.3c0.1,0.1,0.3,0.2,0.4,0.3c1.5,1.5,4.8,1.2,6,3s5.3,4.9,7,6s1.5,1,2,0
		s-0.5-0.6-5-5c-3.7-3.6-5-3.2-7-4s-4.6-3.3-3-6s3.3-3.6,4-5s2.4-2.3,2-6S112.4,302.1,113,299z"/>
</g>
<path id="圆角矩形_2" class="st7" d="M129,89h319c12.7,0,23,10.3,23,23v218c0,12.7-10.3,23-23,23H129c-12.7,0-23-10.3-23-23V112
	C106,99.3,116.3,89,129,89z"/>
<path id="圆角矩形_2_拷贝" class="st8" d="M135,103h307c12.7,0,23,10.3,23,23v193c0,12.7-10.3,23-23,23H135
	c-12.7,0-23-10.3-23-23V126C112,113.3,122.3,103,135,103z"/>
<path id="矩形_5" class="st9" d="M139,124h48c5.5,0,10,4.5,10,10v34c0,5.5-4.5,10-10,10h-48c-5.5,0-10-4.5-10-10v-34
	C129,128.5,133.5,124,139,124z"/>
<path id="矩形_5_拷贝" class="st10" d="M139,195h48c5.5,0,10,4.5,10,10v34c0,5.5-4.5,10-10,10h-48c-5.5,0-10-4.5-10-10v-34
	C129,199.5,133.5,195,139,195z"/>
<path id="矩形_5_拷贝_2" class="st9" d="M139,265h48c5.5,0,10,4.5,10,10v34c0,5.5-4.5,10-10,10h-48c-5.5,0-10-4.5-10-10v-34
	C129,269.5,133.5,265,139,265z"/>
<path id="矩形_5_拷贝_3" class="st11" d="M423,223h16c2.8,0,5,2.2,5,5v87c0,2.8-2.2,5-5,5h-16c-2.8,0-5-2.2-5-5v-87
	C418,225.2,420.2,223,423,223z"/>
<path id="矩形_5_拷贝_7" class="st10" d="M283,233h16c2.8,0,5,2.2,5,5v76c0,2.8-2.2,5-5,5h-16c-2.8,0-5-2.2-5-5v-76
	C278,235.2,280.2,233,283,233z"/>
<path id="矩形_5_拷贝_9" class="st12" d="M213,289h16c2.8,0,5,2.2,5,5v20c0,2.8-2.2,5-5,5h-16c-2.8,0-5-2.2-5-5v-20
	C208,291.2,210.2,289,213,289z"/>
<path id="矩形_5_拷贝_4" class="st10" d="M388,274h16c2.8,0,5,2.2,5,5v35c0,2.8-2.2,5-5,5h-16c-2.8,0-5-2.2-5-5v-35
	C383,276.2,385.2,274,388,274z"/>
<path id="矩形_5_拷贝_6" class="st11" d="M318,219h16c2.8,0,5,2.2,5,5v91c0,2.8-2.2,5-5,5h-16c-2.8,0-5-2.2-5-5v-91
	C313,221.2,315.2,219,318,219z"/>
<path id="矩形_5_拷贝_8" class="st9" d="M248,305h16c2.8,0,5,2.2,5,5v5c0,2.8-2.2,5-5,5h-16c-2.8,0-5-2.2-5-5v-5
	C243,307.2,245.2,305,248,305z"/>
<path id="矩形_5_拷贝_5" class="st9" d="M353,252h16c2.8,0,5,2.2,5,5v57c0,2.8-2.2,5-5,5h-16c-2.8,0-5-2.2-5-5v-57
	C348,254.2,350.2,252,353,252z"/>
<circle id="椭圆_722" class="st8" cx="162.5" cy="140.5" r="9.5"/>
<path id="形状_4" class="st8" d="M153,169c0,0-5.9,0.5-6-4s2-6,2-6s3.5-6,13-6s12.6,3.7,14,5c2.2,2.1,2.9,5.2,2,8
	c-0.8,2.3-3.5,2.7-5,3S153,169,153,169z"/>
<path id="形状_5" class="st9" d="M256,142c0,0-12.1-19.2-32-4c-6.3,6.4-7.3,18-4,23s37,38,37,38l35-36c0,0,10.3-16.2-7-28
	C274.3,130,264.8,133.2,256,142z"/>
<path id="形状_6" class="st13" d="M220,172h20l5-19l7,28l7-36l6,36l6-15h25"/>
<path id="形状_7" class="st14" d="M307,157h8l4-10l5,16l4-21l5,20l3-8h27l4-9l5,21l4-21l5,15l3-9h21l4-10l4,21l5-21l5,17l3-12h14"
	/>
<path id="形状_7_拷贝" class="st14" d="M307,189h8l4-10l5,16l4-21l5,20l3-8h27l4-9l5,21l4-21l5,15l3-9h21l4-10l4,21l5-21l5,17
	l3-12h14"/>
<path id="形状_23" class="st15" d="M62,295c0,0-0.2,5.4-2,8s-21.5,23.9-28,29c2,3.4,2,3,2,3s6.1-2.1,19-11
	c10.5-7.2,17.3-12.1,22-22S62,295,62,295z"/>
<path id="形状_26" class="st3" d="M31,333c-1-0.1-1.9,0.6-2,1.6c0,0.1,0,0.2,0,0.4c-0.1,1.7,0.3,3.4,1,5c0.5,0.9,1.5,2.7,2,3
	s3.3,2.3,2-7C33.9,333.9,31,333,31,333z"/>
<path id="形状_24" class="st15" d="M93,305l5,45c0,0,0.4,0.6,2.3,0.3c1.8-0.3,1.8-1,1.8-1L106,306L93,305z"/>
<path id="形状_25" class="st1" d="M32,332l-1,1c0,0,0.5,2.6,2,3c1.2,0.3,1-0.8,1-1C33.4,334,32.7,333,32,332z"/>
<path id="形状_19_拷贝" class="st1" d="M126.1,271l-4.1,3l5.1,4.9c0,0,3.5,2.8,5.1,2s0.6-1.6-1-3c-1.1-0.9-2.1-1.9-3.1-3
	c0.7,0.2,1.4,0.2,2,0c0.8-0.3-1.6-0.6-2-1C127.4,273,126.7,272,126.1,271z"/>
<path id="矩形_7" class="st16" d="M112.5,248h16c1.4,0,2.5,1.1,2.5,2.5l0,0c0,1.4-1.1,2.5-2.5,2.5h-16c-1.4,0-2.5-1.1-2.5-2.5l0,0
	C110,249.1,111.1,248,112.5,248z"/>
<path id="矩形_8" class="st16" d="M113,251h15l0,0v36.5c0,4.1-3.4,7.5-7.5,7.5l0,0l0,0c-4.1,0-7.5-3.4-7.5-7.5l0,0V251L113,251z"
	/>
<path id="矩形_9" class="st17" d="M116,260h9l0,0v26.5c0,2.5-2,4.5-4.5,4.5l0,0c-2.5,0-4.5-2-4.5-4.5V260L116,260z"/>
<path id="形状_17" class="st16" d="M97,209c0,0-2.3-2.2-7,6s-25.3,55.2-32,80c5.1,3.4,21.5,11.8,34,13s18.9,1.2,20,1
	s1.7-52.6,5-67c7.1-22.4,2.9-25.2,0-27S107.4,207.6,97,209z"/>
<path id="形状_18" class="st18" d="M90,220c0,0-0.2,15.9,1,20s9.7,17.5,13,22c-2.3-1.4-9.7-10-13-16C87.9,240.3,86.9,235.2,90,220
	z"/>
<path id="形状_19" class="st1" d="M111,261l-4,3l5,5c0,0,3.5,2.8,5,2s0.6-1.7-1-3c-1.1-0.9-2.1-1.9-3-3c0.7,0.2,1.3,0.2,2,0
	c0.8-0.3-1.6-0.6-2-1C112.3,263,111.6,262,111,261z"/>
<path id="形状_20" class="st18" d="M99,236c0,0,0,4.2,2,7c1,2.1-0.7-3-1-6S99,236,99,236z"/>
<ellipse id="椭圆_723" class="st1" cx="113" cy="200.5" rx="7" ry="8.5"/>
<path id="形状_21" class="st1" d="M113,208v5c0,0-4.3,0.9-6-2c0-4,0-7,0-7L113,208z"/>
<path id="形状_22" class="st19" d="M116,194c0,0,4.2,0.3,4,7c-1,3.3-2.8,5.9-6,7c-1.4,0.5-0.5,3.6-2,5c-1.2,1.1-1.1,5-1,5
	s0.3,8-1,11s-1.8,7.3-3,8s-0.7,2.9,1,2s9.6-5,10-14s-1.2-9.6,0-13s6.8-12.6,3-19c-1.8-1.7-13.9-2-16-1s-3.3,4.8-4,7
	c-0.8,2.9-1.1,6-1,9c0.3,1.5-1.8,3-3,4c-2.4,2-4.6,5.5-4,14c0.3,3.9,3.4,9,6,11s3.7,1.1,4,0s-0.6-15.4,0-16c1.6-2.2,2.9-4.5,4-7
	c1.1-2.9,1.4-6,1-9c-0.6-2.5-0.6-5.5,1-7S112.7,193.6,116,194z"/>
<path id="矩形_10" class="st16" d="M107,183h10c2.8,0,5,2.2,5,5v5l0,0h-20l0,0v-5C102,185.2,104.2,183,107,183z"/>
<path id="形状_32" class="st1" d="M230.9,377.8v3h4v-3H230.9z"/>
<path id="形状_33" class="st1" d="M258.4,376.5c0,0,0,1.3,0,2c0,1.1,0.4,2.1,0.4,2.1l4-1l-0.9-3L258.4,376.5L258.4,376.5z"/>
<path id="形状_32_拷贝" class="st20" d="M226.9,342.7l3.6,36.1c0,0,0.8-0.5,2.3-0.5c1.4-0.1,2.1,0.5,2.1,0.5l4-38.1L226.9,342.7
	z"/>
<path id="形状_33_拷贝" class="st20" d="M249.9,340.7c0,0,6.5,29.9,7.8,36l0.2,1.1c0,0,0.7-0.6,2.2-0.8c1.7-0.3,2.5-0.1,2.5-0.1
	l-1.7-37.2L249.9,340.7z"/>
<path id="形状_35" class="st1" d="M175.9,245.4c0,0-6.9-2.7-8-4s-1.2-3.7,0-4s2.9,1.5,4,2s2,1,2,1l-1-2h1c0.6,0.7,1.3,1.4,2,2
	c0.4,0.3,0.7,0.6,1,1L175.9,245.4z"/>
<path id="形状_35_拷贝" class="st1" d="M301,253.4c0,0,7-2.6,8.1-4s1.3-3.7,0-4s-2.9,1.5-4.1,2s-2,1-2,1l1-2h-1
	c-0.6,0.7-1.3,1.4-2,2c-0.4,0.3-0.7,0.6-1,1L301,253.4z"/>
<path id="形状_31" class="st0" d="M176.9,240.4c0,0-2.3,0.8-2,6c1.1,0.4,16.5,7,24,7s20.1-0.8,21-2c-0.1,4.8-3,52.7,1,92.2
	c3.1,0.4,21,0,21,0v-13l4,13c0,0,16.5,0.3,17-2c0-8-3-85.6-3-87.2c5.5,2.5,16,3.9,26,2s14.6-2.3,15-3c0.1-3.6-0.3-5.9-1-6
	s-23.4,2.5-25,2s-6-5-8-6s-13.1-12.9-23-14s-18,2.1-26,7c-4.8,3-9.9,5.7-15,8C200.9,244.3,200,246.1,176.9,240.4z"/>
<path id="椭圆_725" class="st1" d="M237.2,219.6c3,0.8,5.1,2.9,4.7,4.7s-3.2,2.6-6.2,1.8s-5.1-2.9-4.7-4.7
	S234.1,218.8,237.2,219.6z"/>
<path id="矩形_11" class="st1" d="M233.9,224.3h8l0,0v3c0,1.7-1.3,3-3,3h-2c-1.7,0-3-1.3-3-3V224.3L233.9,224.3z"/>
<path id="形状_30" class="st21" d="M229.9,212.3c0,0-1.6,1.2-3,2s-1.5-0.2-2,0s-0.4,1.5,0,2c1.2,0.7,2.6,1.1,4,1
	c-0.2,1.4,0.2,2.8,1,4c1.1,1.3,5.2,3.9,7,4s4.9-0.1,7-2s-0.1-1-1-1c0.5-1.3,0.9-2.6,1-4c0.1-1.7,0.1-3.3,0-5
	C243.9,213.3,238.4,209.8,229.9,212.3z"/>
<path id="形状_29" class="st16" d="M229.9,203.3l-2,9c2.5,2.5,5.6,4.2,9,5c5.3,1,7.1,0,8,0s3-9,3-9S242.6,201.6,229.9,203.3z"/>
<path id="椭圆_724" class="st0" d="M239.2,205.1c4.3,1.2,7.5,3.3,7.1,4.6s-4.2,1.4-8.5,0.2s-7.5-3.3-7.1-4.6
	S234.9,203.9,239.2,205.1z"/>
<path id="形状_47" class="st22" d="M494,302.1c0,0-1.1,16.3,3,29.9c4.1,13.8,10.8,23.4,11,25s5,0.4,5,0s-5.8-39.9-5-48.9
	S494,302.1,494,302.1z"/>
<path id="形状_48" class="st22" d="M515,308.1c0,0-0.4,12.8,6,24s12.6,24.7,12,26c3,1.3,5,0,5,0s-1.9-21.2-4-27.9s-5.7-15.3-5-24
	S515,308.1,515,308.1z"/>
<path id="形状_44" class="st1" d="M461,249.2c-0.7,0.1-1.3,0.1-2,0c-1.1-0.2-2.2,0.2-3,1c-0.7,0.7-1,0.6-2,1s-3.4,0.9-3,2
	s2.7,2.3,5,2s5.6-2.7,6-3S461,249.2,461,249.2z"/>
<path id="形状_43" class="st0" d="M460,248.2l1,6c0,0,26.4-4.8,36-18s0-27,0-27s-3.6,1.8-9,18c-1.9,5.8-3.8,9.5-12,14
	C470.8,243.9,465.5,246.3,460,248.2z"/>
<path id="形状_36" class="st0" d="M393,280.1V334c0,0,3.1,29.9,35,29.9s36-31.3,36-32.9v-35.9c0,0,18.5-1.2,21-24
	c-2.3-0.1-4.7-0.1-7,0c0,0-2.2,16.9-18,17c-17.1-0.3-19-17-19-17h-7c0,0-0.2,20.8,21,24c-0.1,3.8,0,35.9,0,35.9s-3,24-26,24
	c-21.6,0-27.9-18.8-28-23s0-51.9,0-51.9H393L393,280.1z"/>
<path id="形状_37" class="st23" d="M459,216.2c0,0-21.6-1.6-25,24c0,3-0.1,30.9-0.1,30.9h7.1v-30.9c0,0-1.2-13.2,15-18
	C463.7,220.4,459,216.2,459,216.2z"/>
<path id="形状_37_拷贝" class="st23" d="M459.4,223.3c0,0,22.1-1.6,25.5,23.9v24h-7v-24c0,0,1-13.1-15.5-17.9
	C454.6,227.4,459.4,223.3,459.4,223.3z"/>
<path id="形状_53" class="st23" d="M478,279.1"/>
<circle id="椭圆_726" class="st24" cx="396.5" cy="262.7" r="20.5"/>
<circle id="椭圆_726_拷贝" class="st25" cx="396.5" cy="262.7" r="14.5"/>
<path id="形状_5_拷贝" class="st26" d="M396.3,256.9c0,0-3.3-5.8-8.7-1.2c-1.7,1.9-2,5.4-1.1,6.9s10.1,11.4,10.1,11.4l9.5-10.8
	c1.6-2.9,0.8-6.5-1.9-8.4C401.3,253.4,398.7,254.3,396.3,256.9z"/>
<path id="形状_54" class="st16" d="M395,262v-3h3v3h3v3h-3v3h-3v-3h-3v-3H395z"/>
<ellipse id="椭圆_727" class="st24" cx="460" cy="219.2" rx="7" ry="7"/>
<ellipse id="椭圆_727_拷贝" class="st24" cx="460" cy="226.2" rx="7" ry="7"/>
<path id="椭圆_728" class="st1" d="M501.7,187.6c3.4-1.1,7.7,1.2,9.5,5.2s0.5,8.1-2.9,9.2s-7.7-1.2-9.5-5.2
	S498.3,188.7,501.7,187.6z"/>
<path id="形状_42" class="st27" d="M498,209.3c0,0,7.4-7.2,22-4c-4.5,6.2-17,16-17,16L498,209.3z"/>
<path id="形状_39" class="st1" d="M504,199.3v7c0,0,1,2.7,4,1s4.1-3.4,4-4s-1-12-1-12l-5-2L504,199.3z"/>
<path id="形状_41" class="st16" d="M497,240.2c0,0-1.8-16.2-2-21c-0.2-4.7-1.1-7.6,4-11c0.6,1.7,5,10,5,10l15-13
	c0,0,8.7,0.1,13,10s9.2,19,6,90.8c-1.7,0.2-3.3,0.2-5,0v-13c0,0-1.6,11-4,14s-13.8,3.5-20,3s-16.8-5.4-18-9s-0.6-5.8,0-10
	C491.9,288,496.6,262.9,497,240.2z"/>
<path id="形状_45" class="st16" d="M505,234.2c0,0-5.8,8.5-26.9,15c0,2,0.4,4,0.9,6c0,0,13.3-2.3,23-8s12.8-5.6,23-24"/>
<path id="形状_44_拷贝" class="st1" d="M478,250.2c-0.7,0.1-1.3,0.1-2,0c-1.1-0.2-2.2,0.2-3,1c-0.7,0.7-1,0.6-2,1s-3.4,0.9-3,2
	s2.7,2.3,5,2s5.6-2.7,6-3S478,250.2,478,250.2z"/>
<path id="形状_46" class="st18" d="M498,249.2c0,0,10.8,0,13-1s8.9-10.8,11-15s4.9-8.1,5-11s-2,0.9-2,1s-6.6,11.5-14,18
	C502.1,246.5,503.6,246.6,498,249.2z"/>
<path id="形状_40" class="st28" d="M498,183.3c0,0-6.2,3.7-4,7c1.5,2.2,3.5,1.9,5,2c3,0.2,6.1-0.2,9-1c1.3-0.4,0,2,0,2
	s1.4-1.3,2-1c1.7,0.8,0.4,3,0,4c0,0.7,0.5,1.2,1.2,1.3c0.3,0,0.6-0.1,0.8-0.3c-0.1,0,2.4-2.4,1-9C512.5,186.1,511,180.4,498,183.3z"
	/>
<path id="形状_38" class="st16" d="M496,183.3l2-7c0,0,2.1-2.1,7-1s11,4.2,11,5s-1.5,8.3-2,9c-2.4-0.9-18-5-18-5"/>
<path class="st9" d="M426,30c-1.4-8-8.4-28.2-30-29c-16.8,0.2-27.2,7.8-32,25c0,0-25.6-2.2-28,25c0.4,11.2,7.8,23.6,22,25
	c7.4,0.2,73,0,73,0s20.2-2.2,20-24C450.2,44,445,30.6,426,30z M424.2,68.9c0,0-51.9,0.1-57.8,0c-9-0.1-23.7-3.4-22.4-19.9
	c1.9-20.7,25-15,25-15c3.8-13.7,9.2-25.9,27.5-25c21.5,1.1,22.4,21.6,23.5,28c16.4-1.9,22.2,6,23,14
	C443.3,69.9,424.2,68.9,424.2,68.9z"/>
<g id="组_15">
	<path id="形状_3" class="st29" d="M417,58h-37c0,0-9,0.4-9,21.1v54.3c0,0,25.6,8.4,34-13.1S388,69.4,417,58z"/>
	<rect id="矩形_6" x="378" y="84.1" class="st30" width="19" height="7"/>
	<rect id="矩形_6_拷贝" x="378" y="94.2" class="st30" width="17" height="7"/>
	<rect id="矩形_6_拷贝_2" x="378" y="105.2" class="st30" width="19" height="7"/>
	<rect id="矩形_6_拷贝_3" x="378" y="73.1" class="st30" width="14" height="7"/>
</g>
<g id="组_18">
	<path id="形状_16" class="st31" d="M135,47h123c0.1-1.6-0.7-3.1-2-4c-2.2-1.6-6.2-5-9-4s-4.4,3.6-7,3c-4.4-0.4-7.8-3.9-10-6
		c-1.3-1.2-4.2-4.2-9-2s-4,5-8,5s-10.2-3.8-13-7s-6.6-5.2-12-2s-10,9-14,8s-4.9-4.4-10-4s-13.2,2.9-18,7s-3.7,3.1-6,3
		S134.8,46.7,135,47z M275,47h14c-1-2-2.8-3.5-5-4C280.5,42.3,275.8,46.7,275,47z"/>
	<path id="形状_16_拷贝" class="st32" d="M488,108h123c0.1-1.6-0.7-3.1-2-4c-2.2-1.6-6.2-5-9-4s-4.4,3.6-7,3
		c-4.4-0.4-7.8-3.9-10-6c-1.3-1.2-4.2-4.2-9-2s-4,5-8,5s-10.2-3.8-13-7s-6.6-5.2-12-2s-10,9-14,8s-4.9-4.4-10-4s-13.2,2.9-18,7
		s-3.7,3.1-6,3S487.8,107.7,488,108z M628,108h14c-1-2-2.8-3.5-5-4C633.5,103.3,628.8,107.7,628,108z"/>
	<g id="组_17">
		<path id="形状_13" class="st33" d="M3,86l18,4L9,98L3,86z"/>
		<path id="形状_11" class="st33" d="M1,102h73c-1,4.4-3.4,8.3-7,11c-6,4.6-17,6.1-19,6c-0.3,0.5,0,6,0,6H38l-2-6
			c-0.9-0.6-1.9-1-3-1c-1.5,0.1-13.6-3.2-15-4c-1.1,0.6-15,3-15,3l4-8C7,109,2.6,105.3,1,102z"/>
		<path id="形状_12" class="st34" d="M73,102H1c0,0,8.3,5.8,22,8s26.8,2.2,34,1S70.6,107.6,73,102z"/>
		<path id="形状_12_拷贝_2" class="st34" d="M74,102H2c0,0,1.4-7.7,22-13.8c13.7-4,26.8-3.9,34-1.7S71.6,92.4,74,102z"/>
		<path id="形状_12_拷贝" class="st33" d="M74,102H2c0,0,8.3-5.9,22-8.2s26.8-2.3,34-1S71.6,96.3,74,102z"/>
	</g>
</g>
<path class="st35" d="M258.4,379.3c0.9-2.1,3.8-1.4,3.8-1.4s0.2,0.3,0.8,0.9c1.2,1.1,6.5,3.5,6.7,5.3c0.1,0.9-1.7,1.9-3.2,2.1
	c-1.5,0.2-2.9,0.3-3.7-0.1c-1.1-0.5-3.3-2.8-3.7-3.3C258.5,381.8,258.4,379.3,258.4,379.3z"/>
<path class="st36" d="M262.3,380.1c1.5,1.1,6.5,2.8,6.6,4.3c0.1,0.7-1.4,1.6-2.7,1.8c-1.3,0.2-2.4,0.2-3.1-0.1
	c-0.9-0.4-2.8-2.4-3.1-2.8C258.3,380.9,260.8,379.1,262.3,380.1z"/>
<path class="st35" d="M234.8,380.4c-1.1-2-3.9-1-3.9-1s-0.2,0.3-0.7,1c-1.1,1.2-6.1,4.1-6.1,5.9c0,0.9,1.9,1.7,3.4,1.8
	c1.5,0.1,2.9,0,3.7-0.5c1-0.6,3-3.1,3.3-3.7C235.1,382.9,234.8,380.4,234.8,380.4z"/>
<path class="st36" d="M231.1,381.6c-1.4,1.2-6.1,3.5-6.1,4.9c0,0.8,1.6,1.4,2.9,1.5c1.3,0.1,2.4,0,3.1-0.4c0.9-0.5,2.5-2.6,2.8-3.1
	C235.2,381.9,232.5,380.4,231.1,381.6z"/>
</svg>
