<?xml version="1.0" standalone="no"?><!DOCTYPE svg PUBLIC "-//W3C//DTD SVG 1.1//EN" "http://www.w3.org/Graphics/SVG/1.1/DTD/svg11.dtd"><svg t="1600943691971" class="icon" viewBox="0 0 1024 1024" version="1.1" xmlns="http://www.w3.org/2000/svg" p-id="3156" xmlns:xlink="http://www.w3.org/1999/xlink" width="128" height="128"><defs><style type="text/css"></style></defs><path d="M591.4 581.3c80.2-69.4 196.7-73.5 281.1-12.4 7.3 5.3 17.5 0 17.5-9V273.2c-0.1-26.8-10.8-52.4-29.8-71.3s-44.7-29.4-71.4-29.3h-28.3c-7.1 0-12.3 6.7-10.7 13.6 0.8 3.7 1.3 7.5 1.2 11.4v50.6c0.2 27.1-21.3 49.5-48.4 50.3H296.7c-27.3-0.7-49-23-49-50.3v-50.6c0-3.8 0.4-7.6 1.2-11.2 1.6-7-3.5-13.8-10.7-13.8h-28c-55.6 0-100.7 45-100.9 100.6v504c0.5 55.4 45.5 100 100.9 100h320.6c8.4 0 13.7-9 9.7-16.3-50.3-92.8-30.1-209.4 50.9-279.6zM247.7 441.7c0-6.1 4.9-11 11-11h333c6.1 0 11 4.9 11 11V498c0 6.1-4.9 11-11 11h-333c-6.1 0-11-4.9-11-11v-56.3z m240.7 225.4c0 6.1-4.9 11-11 11H258.7c-6.1 0-11-4.9-11-11v-56c0-6.1 4.9-11 11-11h218.7c6.1 0 11 4.9 11 11v56z m-80.8-418.3H609c27.8 0 50.4-22.5 50.6-50.3v-50.3c0-13.4-5.3-26.2-14.8-35.7-9.5-9.4-22.4-14.7-35.7-14.6H407.6c-13.4-0.1-26.3 5.2-35.8 14.6-9.5 9.4-14.8 22.3-14.8 35.7v50.3c0.1 27.8 22.7 50.3 50.6 50.3z m455.7 378.5c-33.1-33.1-77.9-51.7-124.7-51.6-97.2 0-176 78.8-176.1 176.1-0.1 97.3 78.7 176.2 175.9 176.3 97.2 0.1 176.1-78.6 176.3-175.9 0.1-46.9-18.4-91.8-51.4-124.9z m-24.2 174.8H688.3V661.9h50.3v84.4h100.5v55.8z" fill="#666666" p-id="3157"></path></svg>