<?xml version="1.0" standalone="no"?><!DOCTYPE svg PUBLIC "-//W3C//DTD SVG 1.1//EN" "http://www.w3.org/Graphics/SVG/1.1/DTD/svg11.dtd"><svg t="1596449613302" class="icon" viewBox="0 0 1024 1024" version="1.1" xmlns="http://www.w3.org/2000/svg" p-id="1403" xmlns:xlink="http://www.w3.org/1999/xlink" width="200" height="200"><defs><style type="text/css"></style></defs><path d="M51.2 102.4h307.2a51.2 51.2 0 0 1 51.2 51.2v307.2a51.2 51.2 0 0 1-51.2 51.2H51.2a51.2 51.2 0 0 1-51.2-51.2V153.6a51.2 51.2 0 0 1 51.2-51.2z m0 51.2v307.2h307.2V153.6H51.2zM51.2 614.4h307.2a51.2 51.2 0 0 1 51.2 51.2v307.2a51.2 51.2 0 0 1-51.2 51.2H51.2a51.2 51.2 0 0 1-51.2-51.2v-307.2a51.2 51.2 0 0 1 51.2-51.2z m0 51.2v307.2h307.2v-307.2H51.2zM563.2 614.4h307.2a51.2 51.2 0 0 1 51.2 51.2v307.2a51.2 51.2 0 0 1-51.2 51.2H563.2a51.2 51.2 0 0 1-51.2-51.2v-307.2a51.2 51.2 0 0 1 51.2-51.2z m0 51.2v307.2h307.2v-307.2H563.2zM739.669333 52.224l228.295111 205.539556a51.2 51.2 0 0 1 3.811556 72.305777l-205.539556 228.295111a51.2 51.2 0 0 1-72.305777 3.811556L465.635556 356.636444a51.2 51.2 0 0 1-3.811556-72.305777L667.363556 56.035556a51.2 51.2 0 0 1 72.305777-3.811556z m-34.247111 38.058667L499.882667 318.577778 728.177778 524.117333 933.717333 295.822222 705.422222 90.282667z" p-id="1404"></path></svg>