<?xml version="1.0" standalone="no"?><!DOCTYPE svg PUBLIC "-//W3C//DTD SVG 1.1//EN" "http://www.w3.org/Graphics/SVG/1.1/DTD/svg11.dtd"><svg t="1596449578703" class="icon" viewBox="0 0 1024 1024" version="1.1" xmlns="http://www.w3.org/2000/svg" p-id="1016" xmlns:xlink="http://www.w3.org/1999/xlink" width="200" height="200"><defs><style type="text/css"></style></defs><path d="M445.2352 921.6H170.66666667a68.26666667 68.26666667 0 0 1-68.26666667-68.26666667V170.66666667a68.26666667 68.26666667 0 0 1 68.26666667-68.26666667h614.4a68.26666667 68.26666667 0 0 1 68.26666666 68.26666667v233.60853333c24.576 10.78613333 47.03573333 24.9856 68.26666667 41.02826667V170.66666667a136.53333333 136.53333333 0 0 0-136.53333333-136.53333334H170.66666667a136.53333333 136.53333333 0 0 0-136.53333334 136.53333334v682.66666666a136.53333333 136.53333333 0 0 0 136.53333334 136.53333334h343.17653333a343.92746667 343.92746667 0 0 1-68.608-68.26666667z" fill="" p-id="1017"></path><path d="M716.8 443.73333333a273.06666667 273.06666667 0 1 0 0 546.13333334 273.06666667 273.06666667 0 0 0 0-546.13333334z m0 477.73013334a204.66346667 204.66346667 0 1 1 0-409.3952 204.66346667 204.66346667 0 0 1 0 409.3952z" fill="" p-id="1018"></path><path d="M819.2 682.66666667h-68.26666667V648.53333333a34.13333333 34.13333333 0 0 0-68.26666666 0v68.26666667a34.13333333 34.13333333 0 0 0 34.13333333 34.13333333h102.4a34.13333333 34.13333333 0 0 0 0-68.26666666zM433.9712 248.76373333a33.92853333 33.92853333 0 0 0-47.99146667 0L272.24746667 362.496l-45.53386667-45.53386667a32.768 32.768 0 1 0-46.35306667 46.35306667l63.55626667 63.55626667c1.4336 2.4576 2.59413333 4.98346667 4.7104 7.09973333 7.09973333 7.03146667 16.384 10.0352 25.53173333 9.69386667a32.90453333 32.90453333 0 0 0 23.27893334-9.6256c0.75093333-0.75093333 1.09226667-1.70666667 1.70666666-2.59413334l134.82666667-134.7584a33.86026667 33.86026667 0 0 0 0-47.9232zM546.13333333 307.2a34.13333333 34.13333333 0 0 0 0 68.26666667h204.8a34.13333333 34.13333333 0 0 0 0-68.26666667h-204.8zM385.97973333 487.69706667L272.24746667 601.42933333l-45.53386667-45.53386666a32.768 32.768 0 1 0-46.35306667 46.35306666l63.55626667 63.55626667c1.4336 2.4576 2.59413333 4.98346667 4.7104 7.09973333 7.09973333 7.03146667 16.384 10.0352 25.53173333 9.69386667a32.90453333 32.90453333 0 0 0 23.27893334-9.6256c0.75093333-0.75093333 1.09226667-1.70666667 1.70666666-2.59413333l134.82666667-134.7584a33.9968 33.9968 0 0 0-47.99146667-47.9232z" fill="" p-id="1019"></path></svg>