<?xml version="1.0" standalone="no"?><!DOCTYPE svg PUBLIC "-//W3C//DTD SVG 1.1//EN" "http://www.w3.org/Graphics/SVG/1.1/DTD/svg11.dtd"><svg t="1596449645056" class="icon" viewBox="0 0 1024 1024" version="1.1" xmlns="http://www.w3.org/2000/svg" p-id="1528" xmlns:xlink="http://www.w3.org/1999/xlink" width="200" height="200"><defs><style type="text/css"></style></defs><path d="M969.38666667 506.98666667L542.93333333 80.53333333c-17.06666667-17.06666667-44.8-17.06666667-61.86666666 0L54.61333333 506.98666667c-12.8 12.8-3.73333333 34.77333333 14.4 34.77333333H170.66666667v300.58666667c0 58.88 47.78666667 106.66666667 106.66666666 106.66666666h107.30666667c23.57333333 0 42.66666667-19.09333333 42.66666667-42.66666666V693.76c0-11.73333333 9.6-21.33333333 21.33333333-21.33333333h127.14666667c11.73333333 0 21.33333333 9.6 21.33333333 21.33333333v212.58666667c0 23.57333333 19.09333333 42.66666667 42.66666667 42.66666666h107.09333333c58.88 0 106.66666667-47.78666667 106.66666667-106.66666666V541.86666667h101.44c18.13333333 0 27.30666667-21.97333333 14.4-34.88z" p-id="1529"></path></svg>