<svg id="图层_1" data-name="图层 1" xmlns="http://www.w3.org/2000/svg" xmlns:xlink="http://www.w3.org/1999/xlink" viewBox="0 0 1440 900"><defs><style>.cls-1{mask:url(#mask);filter:url(#luminosity-noclip-4);}.cls-2,.cls-4,.cls-6{mix-blend-mode:multiply;}.cls-2{fill:url(#radial-gradient);}.cls-3{mask:url(#mask-2);filter:url(#luminosity-noclip-5);}.cls-4{fill:url(#radial-gradient-2);}.cls-5{mask:url(#mask-3);filter:url(#luminosity-noclip-6);}.cls-6{fill:url(#radial-gradient-3);}.cls-7{fill:url(#未命名的渐变_150);}.cls-13,.cls-14,.cls-15,.cls-8{opacity:0.1;}.cls-8{fill:url(#未命名的渐变_38);}.cls-70,.cls-9{opacity:0.3;}.cls-9{fill:url(#未命名的渐变_38-2);}.cls-10,.cls-19{opacity:0.5;}.cls-10{fill:url(#未命名的渐变_54);}.cls-11{opacity:0.7;}.cls-12,.cls-62,.cls-70,.cls-71,.cls-72,.cls-73,.cls-74{fill:none;}.cls-13{fill:#fff;}.cls-14{fill:#b3b3b3;}.cls-16{fill:#e6e6e6;}.cls-17{opacity:0.05;}.cls-18{fill:#f2f2f2;}.cls-20{fill:url(#未命名的渐变_6);}.cls-21{fill:url(#未命名的渐变_6-2);}.cls-22{fill:url(#未命名的渐变_6-3);}.cls-23{fill:url(#未命名的渐变_6-4);}.cls-24{fill:url(#未命名的渐变_6-5);}.cls-25{fill:url(#未命名的渐变_6-6);}.cls-26{fill:url(#未命名的渐变_6-7);}.cls-27{fill:url(#未命名的渐变_6-8);}.cls-28{fill:url(#未命名的渐变_6-9);}.cls-29{fill:url(#未命名的渐变_6-10);}.cls-30{fill:url(#未命名的渐变_6-11);}.cls-31{fill:url(#未命名的渐变_6-12);}.cls-32{fill:url(#未命名的渐变_6-13);}.cls-33{fill:url(#未命名的渐变_6-14);}.cls-34{fill:url(#未命名的渐变_6-15);}.cls-35{fill:url(#未命名的渐变_6-16);}.cls-36{fill:url(#未命名的渐变_6-17);}.cls-37{fill:url(#未命名的渐变_6-18);}.cls-38{fill:url(#未命名的渐变_6-19);}.cls-39{fill:url(#未命名的渐变_6-20);}.cls-40{fill:url(#未命名的渐变_6-21);}.cls-41{fill:url(#未命名的渐变_6-22);}.cls-42{fill:url(#未命名的渐变_6-23);}.cls-43{fill:url(#未命名的渐变_6-24);}.cls-44{fill:url(#未命名的渐变_6-25);}.cls-45{fill:url(#未命名的渐变_6-26);}.cls-46{fill:url(#未命名的渐变_6-27);}.cls-47{fill:url(#未命名的渐变_6-28);}.cls-48{fill:url(#未命名的渐变_6-29);}.cls-49{fill:url(#未命名的渐变_6-30);}.cls-50{fill:url(#未命名的渐变_6-31);}.cls-51{fill:url(#未命名的渐变_6-32);}.cls-52{fill:url(#未命名的渐变_6-33);}.cls-53{fill:url(#未命名的渐变_6-34);}.cls-54{fill:url(#未命名的渐变_6-35);}.cls-55{fill:url(#未命名的渐变_6-36);}.cls-56{fill:url(#未命名的渐变_6-37);}.cls-57{fill:url(#未命名的渐变_6-38);}.cls-58{fill:url(#未命名的渐变_6-39);}.cls-59{fill:url(#未命名的渐变_6-40);}.cls-60{fill:#ccc;}.cls-61,.cls-71{opacity:0.15;}.cls-62,.cls-70,.cls-71{stroke:#fff;}.cls-62,.cls-72,.cls-73,.cls-74{stroke-miterlimit:10;}.cls-62{stroke-width:4px;}.cls-63{mask:url(#mask-4);}.cls-64{opacity:0.8;}.cls-65{fill:url(#未命名的渐变_6-41);}.cls-66{mask:url(#mask-5);}.cls-67{fill:url(#未命名的渐变_4);}.cls-68{mask:url(#mask-6);}.cls-69{fill:url(#未命名的渐变_4-2);}.cls-70,.cls-71,.cls-72,.cls-73,.cls-74{stroke-linecap:round;}.cls-70,.cls-71{stroke-linejoin:round;}.cls-70,.cls-71,.cls-73{stroke-width:3px;}.cls-72,.cls-73,.cls-74{stroke:#29abe2;opacity:0.25;}.cls-72{stroke-width:1.5px;}.cls-74{stroke-width:2px;}.cls-75{filter:url(#luminosity-noclip-3);}.cls-76{filter:url(#luminosity-noclip-2);}.cls-77{filter:url(#luminosity-noclip);}</style><filter id="luminosity-noclip" x="308.76" y="-8642" width="164.57" height="32766" filterUnits="userSpaceOnUse" color-interpolation-filters="sRGB"><feFlood flood-color="#fff" result="bg"/><feBlend in="SourceGraphic" in2="bg"/></filter><mask id="mask" x="308.76" y="-8642" width="164.57" height="32766" maskUnits="userSpaceOnUse"><g class="cls-77"/></mask><radialGradient id="radial-gradient" cx="461.9" cy="367.63" r="306.6" gradientTransform="translate(107.83 -164.97) rotate(13.69)" gradientUnits="userSpaceOnUse"><stop offset="0" stop-color="#fff"/><stop offset="0.97" stop-color="#080808"/><stop offset="1"/></radialGradient><filter id="luminosity-noclip-2" x="119.7" y="-8642" width="137.18" height="32766" filterUnits="userSpaceOnUse" color-interpolation-filters="sRGB"><feFlood flood-color="#fff" result="bg"/><feBlend in="SourceGraphic" in2="bg"/></filter><mask id="mask-2" x="119.7" y="-8642" width="137.18" height="32766" maskUnits="userSpaceOnUse"><g class="cls-76"/></mask><radialGradient id="radial-gradient-2" cx="302.19" cy="623.87" r="255.59" xlink:href="#radial-gradient"/><filter id="luminosity-noclip-3" x="1155.29" y="-8642" width="133.23" height="32766" filterUnits="userSpaceOnUse" color-interpolation-filters="sRGB"><feFlood flood-color="#fff" result="bg"/><feBlend in="SourceGraphic" in2="bg"/></filter><mask id="mask-3" x="1155.29" y="-8642" width="133.23" height="32766" maskUnits="userSpaceOnUse"><g class="cls-75"/></mask><radialGradient id="radial-gradient-3" cx="1279.89" cy="278.34" r="248.22" xlink:href="#radial-gradient"/><linearGradient id="未命名的渐变_150" x1="720" y1="2" x2="720" y2="700.6" gradientUnits="userSpaceOnUse"><stop offset="0" stop-color="#4465d8"/><stop offset="0.41" stop-color="#467cd9"/><stop offset="0.94" stop-color="#48a1db"/></linearGradient><linearGradient id="未命名的渐变_38" x1="720" y1="900" x2="720" y2="656.44" gradientUnits="userSpaceOnUse"><stop offset="0" stop-color="#48a1db"/><stop offset="0.2" stop-color="#64b0e1"/><stop offset="0.63" stop-color="#a9d5f1"/><stop offset="1" stop-color="#eaf8ff"/></linearGradient><linearGradient id="未命名的渐变_38-2" x1="720" x2="720" y2="725.94" xlink:href="#未命名的渐变_38"/><linearGradient id="未命名的渐变_54" x1="720" y1="963.84" x2="720" y2="817.64" gradientUnits="userSpaceOnUse"><stop offset="0" stop-color="#48a1db"/><stop offset="0.18" stop-color="#5fade0"/><stop offset="0.55" stop-color="#9acded"/><stop offset="1" stop-color="#eaf8ff"/></linearGradient><linearGradient id="未命名的渐变_6" x1="981.25" y1="281.59" x2="1167.61" y2="281.59" gradientUnits="userSpaceOnUse"><stop offset="0" stop-color="#4465d8" stop-opacity="0"/><stop offset="0.13" stop-color="#446bd8" stop-opacity="0.11"/><stop offset="0.4" stop-color="#467cd9" stop-opacity="0.38"/><stop offset="0.79" stop-color="#4796da" stop-opacity="0.82"/><stop offset="0.94" stop-color="#48a1db"/></linearGradient><linearGradient id="未命名的渐变_6-2" x1="984.89" y1="272.17" x2="1169.3" y2="272.17" xlink:href="#未命名的渐变_6"/><linearGradient id="未命名的渐变_6-3" x1="989.52" y1="262.75" x2="1169.97" y2="262.75" xlink:href="#未命名的渐变_6"/><linearGradient id="未命名的渐变_6-4" x1="995.22" y1="253.34" x2="1169.89" y2="253.34" xlink:href="#未命名的渐变_6"/><linearGradient id="未命名的渐变_6-5" x1="1002.08" y1="243.95" x2="1168.85" y2="243.95" xlink:href="#未命名的渐变_6"/><linearGradient id="未命名的渐变_6-6" x1="1010.34" y1="234.57" x2="1166.41" y2="234.57" xlink:href="#未命名的渐变_6"/><linearGradient id="未命名的渐变_6-7" x1="1020.2" y1="225.23" x2="1162.37" y2="225.23" xlink:href="#未命名的渐变_6"/><linearGradient id="未命名的渐变_6-8" x1="1032.26" y1="215.95" x2="1156.13" y2="215.95" xlink:href="#未命名的渐变_6"/><linearGradient id="未命名的渐变_6-9" x1="1047.74" y1="206.87" x2="1146.47" y2="206.87" xlink:href="#未命名的渐变_6"/><linearGradient id="未命名的渐变_6-10" x1="1070.69" y1="198.44" x2="1129.34" y2="198.44" xlink:href="#未命名的渐变_6"/><linearGradient id="未命名的渐变_6-11" x1="978.58" y1="291.02" x2="1164.94" y2="291.02" xlink:href="#未命名的渐变_6"/><linearGradient id="未命名的渐变_6-12" x1="976.89" y1="300.44" x2="1161.3" y2="300.44" xlink:href="#未命名的渐变_6"/><linearGradient id="未命名的渐变_6-13" x1="976.22" y1="309.86" x2="1156.67" y2="309.86" xlink:href="#未命名的渐变_6"/><linearGradient id="未命名的渐变_6-14" x1="976.29" y1="319.27" x2="1150.98" y2="319.27" xlink:href="#未命名的渐变_6"/><linearGradient id="未命名的渐变_6-15" x1="977.33" y1="328.66" x2="1144.12" y2="328.66" xlink:href="#未命名的渐变_6"/><linearGradient id="未命名的渐变_6-16" x1="979.77" y1="338.05" x2="1135.87" y2="338.05" xlink:href="#未命名的渐变_6"/><linearGradient id="未命名的渐变_6-17" x1="983.8" y1="347.39" x2="1126.01" y2="347.39" xlink:href="#未命名的渐变_6"/><linearGradient id="未命名的渐变_6-18" x1="990.04" y1="356.66" x2="1113.95" y2="356.66" xlink:href="#未命名的渐变_6"/><linearGradient id="未命名的渐变_6-19" x1="999.69" y1="365.74" x2="1098.48" y2="365.74" xlink:href="#未命名的渐变_6"/><linearGradient id="未命名的渐变_6-20" x1="1016.8" y1="374.18" x2="1075.55" y2="374.18" xlink:href="#未命名的渐变_6"/><linearGradient id="未命名的渐变_6-21" x1="155.49" y1="619.67" x2="209.71" y2="619.67" xlink:href="#未命名的渐变_6"/><linearGradient id="未命名的渐变_6-22" x1="160.69" y1="617.14" x2="214.37" y2="617.14" xlink:href="#未命名的渐变_6"/><linearGradient id="未命名的渐变_6-23" x1="166.18" y1="614.62" x2="218.75" y2="614.62" xlink:href="#未命名的渐变_6"/><linearGradient id="未命名的渐变_6-24" x1="171.96" y1="612.11" x2="222.82" y2="612.11" xlink:href="#未命名的渐变_6"/><linearGradient id="未命名的渐变_6-25" x1="178.08" y1="609.63" x2="226.53" y2="609.63" xlink:href="#未命名的渐变_6"/><linearGradient id="未命名的渐变_6-26" x1="184.57" y1="606.99" x2="229.83" y2="606.99" xlink:href="#未命名的渐变_6"/><linearGradient id="未命名的渐变_6-27" x1="191.52" y1="604.33" x2="232.6" y2="604.33" xlink:href="#未命名的渐变_6"/><linearGradient id="未命名的渐变_6-28" x1="199.09" y1="601.67" x2="234.64" y2="601.67" xlink:href="#未命名的渐变_6"/><linearGradient id="未命名的渐变_6-29" x1="207.61" y1="599.02" x2="235.39" y2="599.02" xlink:href="#未命名的渐变_6"/><linearGradient id="未命名的渐变_6-30" x1="218.22" y1="596.36" x2="234.63" y2="596.36" xlink:href="#未命名的渐变_6"/><linearGradient id="未命名的渐变_6-31" x1="150.55" y1="622.2" x2="204.77" y2="622.2" xlink:href="#未命名的渐变_6"/><linearGradient id="未命名的渐变_6-32" x1="145.89" y1="624.73" x2="199.57" y2="624.73" xlink:href="#未命名的渐变_6"/><linearGradient id="未命名的渐变_6-33" x1="141.51" y1="627.25" x2="194.08" y2="627.25" xlink:href="#未命名的渐变_6"/><linearGradient id="未命名的渐变_6-34" x1="137.44" y1="629.75" x2="188.3" y2="629.75" xlink:href="#未命名的渐变_6"/><linearGradient id="未命名的渐变_6-35" x1="133.73" y1="632.24" x2="182.19" y2="632.24" xlink:href="#未命名的渐变_6"/><linearGradient id="未命名的渐变_6-36" x1="130.43" y1="634.88" x2="175.69" y2="634.88" xlink:href="#未命名的渐变_6"/><linearGradient id="未命名的渐变_6-37" x1="127.65" y1="637.54" x2="168.74" y2="637.54" xlink:href="#未命名的渐变_6"/><linearGradient id="未命名的渐变_6-38" x1="125.62" y1="640.2" x2="161.18" y2="640.2" xlink:href="#未命名的渐变_6"/><linearGradient id="未命名的渐变_6-39" x1="124.87" y1="642.85" x2="152.66" y2="642.85" xlink:href="#未命名的渐变_6"/><linearGradient id="未命名的渐变_6-40" x1="125.62" y1="645.51" x2="142.05" y2="645.51" xlink:href="#未命名的渐变_6"/><filter id="luminosity-noclip-4" x="308.76" y="38.24" width="164.57" height="267.18" filterUnits="userSpaceOnUse" color-interpolation-filters="sRGB"><feFlood flood-color="#fff" result="bg"/><feBlend in="SourceGraphic" in2="bg"/></filter><mask id="mask-4" x="308.76" y="38.24" width="164.57" height="267.18" maskUnits="userSpaceOnUse"><g class="cls-1"><path class="cls-2" d="M308.76,38.24l163.72,259a5.31,5.31,0,0,1-8.93,5.74l-.14-.23Z"/></g></mask><linearGradient id="未命名的渐变_6-41" x1="243.32" y1="260.89" x2="465.34" y2="260.89" gradientTransform="translate(107.83 -164.97) rotate(13.69)" xlink:href="#未命名的渐变_6"/><filter id="luminosity-noclip-5" x="119.7" y="293.21" width="137.18" height="222.72" filterUnits="userSpaceOnUse" color-interpolation-filters="sRGB"><feFlood flood-color="#fff" result="bg"/><feBlend in="SourceGraphic" in2="bg"/></filter><mask id="mask-5" x="119.7" y="293.21" width="137.18" height="222.72" maskUnits="userSpaceOnUse"><g class="cls-3"><path class="cls-4" d="M119.7,293.21l136.48,215.9a4.43,4.43,0,1,1-7.45,4.79l-.11-.19Z"/></g></mask><linearGradient id="未命名的渐变_4" x1="119.98" y1="534.89" x2="305.06" y2="534.89" gradientTransform="translate(107.83 -164.97) rotate(13.69)" xlink:href="#未命名的渐变_6"/><filter id="luminosity-noclip-6" x="1155.29" y="195.25" width="133.23" height="216.31" filterUnits="userSpaceOnUse" color-interpolation-filters="sRGB"><feFlood flood-color="#fff" result="bg"/><feBlend in="SourceGraphic" in2="bg"/></filter><mask id="mask-6" x="1155.29" y="195.25" width="133.23" height="216.31" maskUnits="userSpaceOnUse"><g class="cls-5"><path class="cls-6" d="M1155.29,195.25l132.55,209.68a4.3,4.3,0,1,1-7.23,4.65l-.11-.18Z"/></g></mask><linearGradient id="未命名的渐变_4-2" x1="1102.93" y1="191.93" x2="1282.68" y2="191.93" gradientTransform="translate(107.83 -164.97) rotate(13.69)" xlink:href="#未命名的渐变_6"/></defs><title>背景</title><rect class="cls-7" width="1440" height="900"/><path class="cls-8" d="M0,900V682.5s36.38-12.16,95.67,5.17c78.34,22.9,65.89,72.67,148.67,72.67,43,0,76.33-52.21,165.33-56.67s115.67,53.11,182.67,54S688,704.55,775,706.33s136.67,66.1,202.67,71.88,103-77.44,172-79.22S1246,736.56,1301,735.67s67-82.34,139-79.13V900Z"/><path class="cls-9" d="M1440,900V758s-53.93-28.7-115-1c-64,29-52.61,64.47-168,77-95.78,10.4-128-82-217-87s-136,55-203,56-81-58-168-56-84.48,36.18-150.48,42.67S336,742,267,740s-68,34-123,33S55,724,0,726V900Z"/><path class="cls-10" d="M0,900V820s68.79-41.82,146-34c81.86,8.31,79,74,147,74,71,0,82.23-75.62,167.69-74.6C550,786.46,557,859,624,860s98-74.93,185-77c84-2,120,63,183,60,66.24-3.15,90.76-63.16,159.7-66.6,88.3-4.4,98.36,54.17,153.36,53.17S1385,788,1440,790V900Z"/><g class="cls-11"><rect class="cls-12" x="107.27" y="24.99" width="1235.51" height="864.86"/><path class="cls-13" d="M883.17,138.81a10.86,10.86,0,1,1,0,15.36l7.68-7.68Z"/><path class="cls-14" d="M1247.46,579.17a10.86,10.86,0,1,1,0,15.36l7.68-7.68Z"/><g class="cls-15"><polygon class="cls-16" points="1129.28 748.34 1152.43 725.19 1148.93 724.25 1128.34 744.85 1129.28 748.34"/><polygon class="cls-16" points="1125.53 734.36 1138.45 721.44 1134.96 720.51 1124.6 730.87 1125.53 734.36"/><polygon class="cls-16" points="1122.72 723.88 1123.66 727.37 1131.46 719.57 1127.97 718.63 1122.72 723.88"/><polygon class="cls-16" points="1136.77 776.29 1180.38 732.68 1176.89 731.74 1135.83 772.8 1136.77 776.29"/><polygon class="cls-16" points="1127.41 741.35 1145.44 723.32 1141.95 722.38 1126.47 737.86 1127.41 741.35"/><polygon class="cls-16" points="1120.81 716.72 1121.79 720.38 1124.47 717.7 1120.81 716.72"/><polygon class="cls-16" points="1140.51 790.27 1194.36 736.42 1190.87 735.49 1139.58 786.78 1140.51 790.27"/><polygon class="cls-16" points="1138.64 783.28 1187.37 734.55 1183.88 733.62 1137.7 779.79 1138.64 783.28"/><polygon class="cls-16" points="1134.9 769.3 1173.39 730.81 1169.9 729.87 1133.96 765.81 1134.9 769.3"/><polygon class="cls-16" points="1131.15 755.33 1159.42 727.06 1155.92 726.13 1130.21 751.83 1131.15 755.33"/><polygon class="cls-16" points="1133.02 762.32 1166.41 728.93 1162.91 728 1132.09 758.82 1133.02 762.32"/></g><g class="cls-15"><polygon class="cls-16" points="731.36 562.28 783.37 590.44 783.19 583.9 736.93 558.86 731.36 562.28"/><polygon class="cls-16" points="753.63 548.59 782.65 564.31 782.47 557.77 759.2 545.17 753.63 548.59"/><polygon class="cls-16" points="770.34 538.33 764.77 541.75 782.29 551.24 782.12 544.71 770.34 538.33"/><polygon class="cls-16" points="686.82 589.64 784.8 642.7 784.62 636.16 692.39 586.22 686.82 589.64"/><polygon class="cls-16" points="742.5 555.44 783.01 577.37 782.83 570.84 748.07 552.01 742.5 555.44"/><polygon class="cls-16" points="781.75 531.32 775.9 534.91 781.94 538.18 781.75 531.32"/><polygon class="cls-16" points="664.55 603.33 785.51 668.82 785.33 662.29 670.12 599.91 664.55 603.33"/><polygon class="cls-16" points="675.68 596.49 785.15 655.76 784.98 649.23 681.25 593.07 675.68 596.49"/><polygon class="cls-16" points="697.95 582.8 784.44 629.63 784.26 623.1 703.52 579.38 697.95 582.8"/><polygon class="cls-16" points="720.23 569.12 783.72 603.5 783.55 596.97 725.79 565.7 720.23 569.12"/><polygon class="cls-16" points="709.09 575.96 784.08 616.57 783.9 610.03 714.66 572.54 709.09 575.96"/></g><g class="cls-17"><polygon class="cls-18" points="220.27 153.6 201.66 203.84 207.49 202.84 224.05 158.16 220.27 153.6"/><polygon class="cls-18" points="235.39 171.83 225 199.86 230.83 198.87 239.16 176.39 235.39 171.83"/><polygon class="cls-18" points="246.72 185.5 242.94 180.94 236.67 197.87 242.5 196.88 246.72 185.5"/><polygon class="cls-18" points="190.04 117.15 154.97 211.79 160.81 210.8 193.82 121.71 190.04 117.15"/><polygon class="cls-18" points="227.83 162.72 213.33 201.85 219.16 200.85 231.61 167.27 227.83 162.72"/><polygon class="cls-18" points="254.47 194.84 250.5 190.06 248.34 195.88 254.47 194.84"/><polygon class="cls-18" points="174.93 98.92 131.63 215.77 137.47 214.77 178.71 103.48 174.93 98.92"/><polygon class="cls-18" points="182.49 108.04 143.3 213.78 149.14 212.78 186.26 112.59 182.49 108.04"/><polygon class="cls-18" points="197.6 126.26 166.65 209.8 172.48 208.81 201.38 130.82 197.6 126.26"/><polygon class="cls-18" points="212.72 144.49 189.99 205.82 195.82 204.83 216.49 149.05 212.72 144.49"/><polygon class="cls-18" points="205.16 135.38 178.31 207.81 184.15 206.82 208.94 139.93 205.16 135.38"/></g><g class="cls-19"><path class="cls-20" d="M1167.61,307.48,983,250.89q-.9,2.3-1.7,4.68l185.14,56.73Q1167.06,309.89,1167.61,307.48Z"/><path class="cls-21" d="M1169.3,297.6,987.08,241.77q-1.15,2.22-2.19,4.52l183.69,56.29Q1169,300.09,1169.3,297.6Z"/><path class="cls-22" d="M1170,287.42,992.23,233q-1.41,2.14-2.71,4.36l180.24,55.23Q1169.93,290,1170,287.42Z"/><path class="cls-23" d="M1169.53,276.9l-171-52.41c-1.13,1.36-2.22,2.76-3.27,4.19l174.68,53.52C1169.82,280.43,1169.7,278.66,1169.53,276.9Z"/><path class="cls-24" d="M1167.81,266,1006,216.41c-1.35,1.29-2.67,2.61-3.95,4l166.77,51.1C1168.56,269.64,1168.21,267.81,1167.81,266Z"/><path class="cls-25" d="M1164.63,254.61,1015,208.78c-1.6,1.2-3.17,2.46-4.7,3.76l156.08,47.83C1165.87,258.42,1165.28,256.51,1164.63,254.61Z"/><path class="cls-26" d="M1159.56,242.67l-133.63-40.95c-1.95,1.08-3.86,2.22-5.73,3.44l142.18,43.57C1161.51,246.68,1160.56,244.66,1159.56,242.67Z"/><path class="cls-27" d="M1151.85,229.92l-112.4-34.44q-3.65,1.36-7.19,3l123.87,38Q1154.13,233.09,1151.85,229.92Z"/><path class="cls-28" d="M1139.47,215.74l-81.81-25.07a96.62,96.62,0,0,0-9.92,2.16l98.73,30.25A96.59,96.59,0,0,0,1139.47,215.74Z"/><path class="cls-29" d="M1102.21,193.93l-1.47-.45a96.69,96.69,0,0,0-30-4l58.65,18A96.69,96.69,0,0,0,1102.21,193.93Z"/><path class="cls-30" d="M1164.94,317,979.8,260.32q-.67,2.41-1.22,4.82l184.66,56.58Q1164.15,319.42,1164.94,317Z"/><path class="cls-31" d="M1161.3,326.32,977.61,270q-.43,2.49-.72,5l182.23,55.84Q1160.27,328.62,1161.3,326.32Z"/><path class="cls-32" d="M1156.67,335.29,976.42,280.06q-.17,2.57-.2,5.13L1154,339.66Q1155.37,337.52,1156.67,335.29Z"/><path class="cls-33" d="M1151,343.94,976.29,290.41c.08,1.78.19,3.55.36,5.31l171.05,52.41C1148.84,346.77,1149.92,345.37,1151,343.94Z"/><path class="cls-34" d="M1144.12,352.23,977.33,301.12c.29,1.85.64,3.69,1,5.51l161.8,49.58C1141.52,354.92,1142.85,353.6,1144.12,352.23Z"/><path class="cls-35" d="M1135.87,360.09l-156.1-47.83c.54,1.93,1.13,3.85,1.79,5.74l149.62,45.85Q1133.58,362,1135.87,360.09Z"/><path class="cls-36" d="M1126,367.45,983.8,323.88c.87,2.05,1.81,4.07,2.82,6.06l133.66,41C1122.23,369.81,1124.14,368.67,1126,367.45Z"/><path class="cls-37" d="M1114,374.15,990,336.18c1.33,2.22,2.77,4.39,4.28,6.51l112.44,34.46Q1110.42,375.78,1114,374.15Z"/><path class="cls-38" d="M1098.48,379.8l-98.78-30.27a96.61,96.61,0,0,0,7,7.34L1088.57,382A96.71,96.71,0,0,0,1098.48,379.8Z"/><path class="cls-39" d="M1075.55,383.16l-58.76-18a96.67,96.67,0,0,0,26.51,13.32l2.82.86A96.67,96.67,0,0,0,1075.55,383.16Z"/></g><g class="cls-19"><path class="cls-40" d="M209.71,667.59l-51.65-97.3q-1.29.56-2.57,1.2L207.27,669Q208.52,668.35,209.71,667.59Z"/><path class="cls-41" d="M214.37,664.29l-51-96q-1.36.43-2.71.94L212.08,666Q213.25,665.18,214.37,664.29Z"/><path class="cls-42" d="M218.75,660.46,169,566.8q-1.43.29-2.85.67l50.42,95Q217.71,661.47,218.75,660.46Z"/><path class="cls-43" d="M222.82,656,175,565.91c-1,.09-2,.22-3,.37l48.86,92C221.51,657.57,222.18,656.81,222.82,656Z"/><path class="cls-44" d="M226.53,650.94l-45.25-85.25c-1.06,0-2.13,0-3.2,0l46.65,87.88C225.36,652.72,226,651.83,226.53,650.94Z"/><path class="cls-45" d="M229.83,645.07,188,566.25c-1.13-.16-2.27-.29-3.41-.38l43.66,82.24C228.8,647.11,229.33,646.1,229.83,645.07Z"/><path class="cls-46" d="M232.6,638.21l-37.38-70.41c-1.22-.35-2.45-.66-3.7-.92l39.77,74.92C231.77,640.61,232.2,639.42,232.6,638.21Z"/><path class="cls-47" d="M234.64,630,203.2,570.73c-1.35-.62-2.72-1.19-4.11-1.69l34.65,65.27C234.1,632.87,234.39,631.42,234.64,630Z"/><path class="cls-48" d="M235.36,619.24l-22.88-43.11a55.15,55.15,0,0,0-4.87-3.13l27.62,52A55.17,55.17,0,0,0,235.36,619.24Z"/><path class="cls-49" d="M229.13,595.42l-.41-.78a55.15,55.15,0,0,0-10.5-13.74l16.41,30.91A55.15,55.15,0,0,0,229.13,595.42Z"/><path class="cls-50" d="M204.77,670.38,153,572.82q-1.24.7-2.44,1.45l51.65,97.3Q203.5,671,204.77,670.38Z"/><path class="cls-51" d="M199.57,672.65l-51.38-96.79q-1.18.83-2.3,1.71l51,96Q198.22,673.16,199.57,672.65Z"/><path class="cls-52" d="M194.08,674.4l-50.42-95q-1.11,1-2.15,2l49.72,93.66Q192.66,674.78,194.08,674.4Z"/><path class="cls-53" d="M188.3,675.59l-48.86-92c-.69.75-1.35,1.51-2,2.29L185.29,676C186.29,675.87,187.29,675.74,188.3,675.59Z"/><path class="cls-54" d="M182.19,676.17l-46.65-87.89c-.63.86-1.23,1.75-1.81,2.64L179,676.18C180.05,676.21,181.12,676.21,182.19,676.17Z"/><path class="cls-55" d="M175.69,676,132,593.75c-.56,1-1.1,2-1.6,3l41.85,78.84C173.41,675.79,174.55,675.92,175.69,676Z"/><path class="cls-56" d="M168.74,675,129,600.07c-.48,1.18-.91,2.37-1.31,3.58L165,674.08C166.27,674.43,167.5,674.74,168.74,675Z"/><path class="cls-57" d="M161.18,672.84l-34.66-65.29c-.36,1.44-.66,2.89-.9,4.35l31.45,59.25C158.42,671.77,159.79,672.33,161.18,672.84Z"/><path class="cls-58" d="M152.66,668.88,125,616.83a55.14,55.14,0,0,0-.14,5.78l22.9,43.14A55.13,55.13,0,0,0,152.66,668.88Z"/><path class="cls-59" d="M142.05,661l-16.44-31a55.14,55.14,0,0,0,5.32,16.07l.79,1.49A55.14,55.14,0,0,0,142.05,661Z"/></g><g class="cls-15"><path class="cls-60" d="M1099.46,99.66a11.68,11.68,0,0,1-8.29-3.43l-7.79-7.79a8.62,8.62,0,0,0-12.2,0l-7.79,7.79a11.73,11.73,0,0,1-16.57,0L1039,88.44a8.62,8.62,0,0,0-12.19,0l-3.9,3.9a1.55,1.55,0,0,1-2.19-2.19l3.9-3.9a11.71,11.71,0,0,1,16.57,0L1049,94a8.64,8.64,0,0,0,12.19,0l7.79-7.79a11.72,11.72,0,0,1,16.57,0l7.79,7.79a8.62,8.62,0,0,0,12.19,0l7.79-7.79a11.72,11.72,0,0,1,16.57,0l7.79,7.79a8.63,8.63,0,0,0,12.19,0l3.9-3.9a1.55,1.55,0,0,1,2.19,2.19l-3.9,3.9a11.73,11.73,0,0,1-16.57,0l-7.79-7.79a8.62,8.62,0,0,0-12.19,0l-7.79,7.79A11.68,11.68,0,0,1,1099.46,99.66Z"/></g><g class="cls-15"><path class="cls-60" d="M397.63,80.78A3.89,3.89,0,0,1,398.77,78l2.6-2.6a2.88,2.88,0,0,0,0-4.07l-2.6-2.6a3.91,3.91,0,0,1,0-5.53l2.6-2.6a2.87,2.87,0,0,0,0-4.07l-1.3-1.3a.52.52,0,0,1,.73-.73l1.3,1.3a3.91,3.91,0,0,1,0,5.53L399.5,64a2.88,2.88,0,0,0,0,4.07l2.6,2.6a3.91,3.91,0,0,1,0,5.53l-2.6,2.6a2.88,2.88,0,0,0,0,4.07l2.6,2.6a3.91,3.91,0,0,1,0,5.53l-2.6,2.6a2.88,2.88,0,0,0,0,4.07l1.3,1.3a.52.52,0,1,1-.73.73l-1.3-1.3a3.91,3.91,0,0,1,0-5.53l2.6-2.6a2.87,2.87,0,0,0,0-4.07l-2.6-2.6A3.9,3.9,0,0,1,397.63,80.78Z"/></g><g class="cls-15"><path class="cls-60" d="M579.59,628a5.41,5.41,0,0,1,1.59-3.84l3.61-3.61a4,4,0,0,0,0-5.65l-3.61-3.61a5.44,5.44,0,0,1,0-7.68l3.61-3.61a4,4,0,0,0,0-5.65l-1.8-1.81a.72.72,0,1,1,1-1l1.8,1.81a5.43,5.43,0,0,1,0,7.68l-3.61,3.61a4,4,0,0,0,0,5.65l3.61,3.61a5.43,5.43,0,0,1,0,7.68l-3.61,3.61a4,4,0,0,0,0,5.65l3.61,3.61a5.43,5.43,0,0,1,0,7.68l-3.61,3.61a4,4,0,0,0,0,5.65l1.81,1.81a.72.72,0,0,1-1,1l-1.81-1.81a5.44,5.44,0,0,1,0-7.68l3.61-3.61a4,4,0,0,0,0-5.65l-3.61-3.61A5.41,5.41,0,0,1,579.59,628Z"/></g><g class="cls-15"><path class="cls-60" d="M1276.25,572.09a10.79,10.79,0,0,1-7.66-3.17l-7.2-7.2a8,8,0,0,0-11.27,0l-7.2,7.2a10.84,10.84,0,0,1-15.32,0l-7.2-7.2a8,8,0,0,0-11.27,0l-3.6,3.6a1.43,1.43,0,0,1-2-2l3.6-3.6a10.83,10.83,0,0,1,15.32,0l7.2,7.2a8,8,0,0,0,11.27,0l7.2-7.2a10.83,10.83,0,0,1,15.32,0l7.2,7.2a8,8,0,0,0,11.27,0l7.2-7.2a10.83,10.83,0,0,1,15.32,0l7.2,7.2a8,8,0,0,0,11.27,0l3.6-3.6a1.43,1.43,0,0,1,2,2l-3.6,3.6a10.84,10.84,0,0,1-15.32,0l-7.2-7.2a8,8,0,0,0-11.27,0l-7.2,7.2A10.8,10.8,0,0,1,1276.25,572.09Z"/></g><g class="cls-61"><line class="cls-62" x1="98.23" y1="441.68" x2="122.26" y2="465.71"/><line class="cls-62" x1="122.26" y1="441.68" x2="98.23" y2="465.71"/></g><g class="cls-61"><line class="cls-62" x1="875.4" y1="523.49" x2="889.12" y2="537.21"/><line class="cls-62" x1="889.12" y1="523.49" x2="875.4" y2="537.21"/></g><g class="cls-61"><line class="cls-62" x1="1294.31" y1="129.23" x2="1309.26" y2="159.75"/><line class="cls-62" x1="1317.05" y1="137.02" x2="1286.53" y2="151.96"/></g><g class="cls-61"><line class="cls-62" x1="269.78" y1="319.23" x2="293.84" y2="315.56"/><line class="cls-62" x1="279.97" y1="305.37" x2="283.64" y2="329.42"/></g><g class="cls-63"><g class="cls-64"><path class="cls-65" d="M308.76,38.24l163.72,259a5.31,5.31,0,0,1-8.93,5.74l-.14-.23Z"/></g></g><g class="cls-66"><path class="cls-67" d="M119.7,293.21l136.48,215.9a4.43,4.43,0,1,1-7.45,4.79l-.11-.19Z"/></g><g class="cls-68"><path class="cls-69" d="M1155.29,195.25l132.55,209.68a4.3,4.3,0,1,1-7.23,4.65l-.11-.18Z"/></g><polygon class="cls-70" points="587.48 306.29 577.2 324.11 597.77 324.11 587.48 306.29"/><polygon class="cls-70" points="333.29 616.79 351.11 627.08 351.11 606.51 333.29 616.79"/><polygon class="cls-71" points="1057.37 599.63 1047.08 617.45 1067.65 617.45 1057.37 599.63"/><circle class="cls-72" cx="901.71" cy="766.49" r="11.16"/><circle class="cls-73" cx="1331.63" cy="289.18" r="11.16"/><path class="cls-72" d="M480.34,529.7a11.16,11.16,0,0,1,19.41,11"/><path class="cls-74" d="M757.74,271.49a11.16,11.16,0,1,1-11.16-11.16"/></g></svg>