<svg id="图层_1" data-name="图层 1" xmlns="http://www.w3.org/2000/svg" viewBox="0 0 27 22"><defs><style>.cls-1{fill:#fff;}</style></defs><title>logo-02</title><path class="cls-1" d="M18.38,9.3a.13.13,0,0,0,.19.12,5.8,5.8,0,0,1,6.21-.2.05.05,0,0,0,.06-.08A6.84,6.84,0,0,0,20.34,7h0A6.74,6.74,0,0,0,8,3.55.05.05,0,0,0,8,3.62a6.79,6.79,0,0,1,4.73-1.25C18.09,3,18.57,7.94,18.38,9.3Z"/><path class="cls-1" d="M26.6,12.34a.06.06,0,0,0-.12,0,4.94,4.94,0,0,1-6.19,5.71C16.71,17,12.85,10.37,7.51,9.3a7.16,7.16,0,0,0-2.14-.09A6.18,6.18,0,0,0,5.83,21.5H7.42a.05.05,0,0,0,.05-.05V20.8a.05.05,0,0,0-.05-.05H6.59a.05.05,0,0,1-.05-.05V19.18a.05.05,0,0,1,.05-.05h.82a.05.05,0,0,0,.05-.05v-.65a.05.05,0,0,0-.05-.05c-.86,0-4.38.62-4.94-2a1.94,1.94,0,0,0,.73.9,2.77,2.77,0,0,0,1.1.27,3,3,0,0,1-1.14-3.05,3.56,3.56,0,0,1,4-3c4.21.34,5.54,9.16,12.13,10,0,0,.55.05.83.05a6.87,6.87,0,0,0,.73,0H21a6.87,6.87,0,0,0,5.62-9.12Z"/><path class="cls-1" d="M9.56,18.24H8.64a.05.05,0,0,0-.05.05v1a.05.05,0,0,1-.05.05h-1a.05.05,0,0,0-.05.05v.92a.05.05,0,0,0,.05.05h1a.05.05,0,0,1,.05.05v1a.05.05,0,0,0,.05.05h.92a.05.05,0,0,0,.05-.05v-1a.05.05,0,0,1,.05-.05h1a.05.05,0,0,0,.05-.05v-.92a.05.05,0,0,0-.05-.05h-1a.05.05,0,0,1-.05-.05v-1A.05.05,0,0,0,9.56,18.24Z"/><rect class="cls-1" x="10.63" y="17.98" width="0.79" height="0.79" rx="0.05" ry="0.05"/><rect class="cls-1" x="11.87" y="19.37" width="0.69" height="0.69" rx="0.06" ry="0.06"/><rect class="cls-1" x="10.8" y="20.71" width="0.79" height="0.79" rx="0.05" ry="0.05"/></svg>