<svg id="图层_1" data-name="图层 1" xmlns="http://www.w3.org/2000/svg" viewBox="0 0 20 17"><defs><style>.cls-1{fill:#9c9c9c;}</style></defs><title>患者管理-01</title><path class="cls-1" d="M18,.15A1.86,1.86,0,0,1,19.85,2h0V6.34H18V2H1.91V15h8.66v1.84H1.91A1.86,1.86,0,0,1,0,15H0V2A1.86,1.86,0,0,1,1.91.15Z"/><rect class="cls-1" x="3.14" y="8.2" width="5.57" height="1.86"/><rect class="cls-1" x="3.14" y="4.49" width="10.52" height="1.86"/><path class="cls-1" d="M12.42,16.85a1,1,0,0,1-.74-1.6l2.24-2.61H14a3.35,3.35,0,0,0,.81.36h.15l-2.31,2.7h2.57V14h1.07v1.74h2.57l-2.31-2.7h.15a3.36,3.36,0,0,0,.81-.36h.07l2.24,2.61A1,1,0,0,1,19,16.85Zm3.33-4.06a3,3,0,1,1,3-3,3,3,0,0,1-3,3Zm0-4.93a1.93,1.93,0,1,0,1.93,1.93h0a1.93,1.93,0,0,0-1.93-1.93Z"/></svg>