<?xml version="1.0" standalone="no"?><!DOCTYPE svg PUBLIC "-//W3C//DTD SVG 1.1//EN" "http://www.w3.org/Graphics/SVG/1.1/DTD/svg11.dtd"><svg t="1600944203367" class="icon" viewBox="0 0 1024 1024" version="1.1" xmlns="http://www.w3.org/2000/svg" p-id="3314" xmlns:xlink="http://www.w3.org/1999/xlink" width="128" height="128"><defs><style type="text/css"></style></defs><path d="M925.636 806.651c-16.079-16.078-34.036-29.59-53.368-40.36 27.221-28.833 43.935-67.687 43.935-110.375 0-88.73-72.186-160.916-160.916-160.916s-160.916 72.187-160.916 160.916c0 42.688 16.714 81.542 43.935 110.376-19.332 10.769-37.29 24.281-53.368 40.36-45.501 45.501-70.56 106-70.56 170.348 0 22.092 17.908 40 40 40s40-17.908 40-40c0-85.1 66.406-154.968 150.12-160.54 3.567 0.238 7.162 0.371 10.79 0.371s7.222-0.133 10.79-0.37C849.79 822.03 916.195 891.9 916.195 977c0 22.092 17.908 40 40 40s40-17.908 40-40c0-64.349-25.058-124.847-70.56-170.349zM674.37 655.916c0-44.617 36.299-80.916 80.916-80.916s80.916 36.299 80.916 80.916c0 41.478-31.377 75.748-71.64 80.367-3.083-0.116-6.173-0.192-9.276-0.192s-6.193 0.076-9.276 0.192c-40.262-4.619-71.64-38.89-71.64-80.367z" p-id="3315"></path><path d="M385.368 919H107.804V87H880.11v295.501c0 22.092 17.909 40 40 40s40-17.908 40-40V57.961C960.111 29.862 936.586 7 907.67 7H80.246C51.33 7 27.804 29.861 27.804 57.962v890.076c0 28.1 23.525 50.962 52.442 50.962h305.122c22.092 0 40-17.908 40-40s-17.908-40-40-40z" p-id="3316"></path><path d="M745.708 368.5H230c-22.092 0-40 17.908-40 40s17.908 40 40 40h515.708c22.092 0 40-17.908 40-40s-17.908-40-40-40zM745.708 168.538H230c-22.092 0-40 17.908-40 40s17.908 40 40 40h515.708c22.092 0 40-17.908 40-40s-17.908-40-40-40zM533.817 608.462c0-22.092-17.908-40-40-40H230c-22.092 0-40 17.908-40 40s17.908 40 40 40h263.817c22.092 0 40-17.908 40-40z" p-id="3317"></path></svg>