<svg t="1594271040365" class="icon" viewBox="0 0 1024 1024" version="1.1" xmlns="http://www.w3.org/2000/svg" p-id="14614" width="22" height="22"><path d="M977.454545 1006.778182v-40.494546c0-97.28-146.618182-186.181818-308.596363-217.832727a46.545455 46.545455 0 0 1-32.116364-74.938182 335.127273 335.127273 0 0 0 61.44-121.018182 164.305455 164.305455 0 0 0 58.647273-108.916363c3.258182-65.163636-12.101818-68.421818-12.101818-68.421818 23.272727-71.214545 30.72-337.92-139.636364-306.269091C573.44 13.498182 394.705455-30.254545 311.389091 118.690909a316.043636 316.043636 0 0 0-24.669091 258.792727c0 6.050909-11.636364-6.050909-15.36 32.116364a197.352727 197.352727 0 0 0 31.185455 114.501818 77.265455 77.265455 0 0 0 29.323636 21.876364 297.890909 297.890909 0 0 0 62.370909 127.534545 71.214545 71.214545 0 0 1-37.236364 74.938182C195.025455 779.636364 46.545455 869.469091 46.545455 966.749091v40.494545z" fill="#676A6C" p-id="14615"></path></svg>