<?xml version="1.0" standalone="no"?><!DOCTYPE svg PUBLIC "-//W3C//DTD SVG 1.1//EN" "http://www.w3.org/Graphics/SVG/1.1/DTD/svg11.dtd"><svg t="1600943865530" class="icon" viewBox="0 0 1024 1024" version="1.1" xmlns="http://www.w3.org/2000/svg" p-id="1419" xmlns:xlink="http://www.w3.org/1999/xlink" width="128" height="128"><defs><style type="text/css"></style></defs><path d="M793.6 160h-124.8c-9.6-38.4-44.8-64-83.2-64h-147.2c-38.4 0-73.6 25.6-86.4 64H230.4C172.8 160 124.8 204.8 124.8 262.4v560c0 57.6 48 105.6 105.6 105.6h563.2c57.6 0 105.6-48 105.6-105.6V262.4c0-57.6-48-102.4-105.6-102.4z m-208 51.2h-147.2c-12.8 0-25.6-12.8-25.6-25.6 0-6.4 3.2-16 9.6-19.2 3.2-3.2 9.6-6.4 16-6.4h147.2c6.4 0 12.8 3.2 16 6.4 6.4 3.2 9.6 12.8 9.6 19.2 0 12.8-12.8 25.6-25.6 25.6zM188.8 265.6c0-22.4 19.2-41.6 41.6-41.6h124.8c12.8 32 48 51.2 80 51.2h147.2c35.2 0 67.2-19.2 80-51.2h124.8c22.4 0 41.6 19.2 41.6 41.6v556.8c0 22.4-19.2 41.6-41.6 41.6H230.4c-22.4 0-41.6-19.2-41.6-41.6V265.6z" fill="#6A76DD" p-id="1420"></path><path d="M681.6 745.6c-16 16-38.4 16-54.4 0l-284.8-284.8c-16-16-16-38.4 0-54.4s38.4-16 54.4 0l284.8 284.8c16 16 16 38.4 0 54.4z" fill="#6A76DD" p-id="1421"></path><path d="M342.4 745.6c-16-16-16-38.4 0-54.4l284.8-284.8c16-16 38.4-16 54.4 0s16 38.4 0 54.4l-284.8 284.8c-16 16-38.4 16-54.4 0z" fill="#6A76DD" p-id="1422"></path></svg>