<svg id="图层_1" data-name="图层 1" xmlns="http://www.w3.org/2000/svg" xmlns:xlink="http://www.w3.org/1999/xlink" viewBox="0 0 27 22"><defs><style>.cls-1{fill:url(#未命名的渐变_266);}.cls-2{fill:url(#未命名的渐变_232);}.cls-3{fill:url(#未命名的渐变_234);}.cls-4{fill:url(#未命名的渐变_234-2);}.cls-5{fill:url(#未命名的渐变_234-3);}.cls-6{fill:url(#未命名的渐变_234-4);}.cls-7{fill:url(#未命名的渐变_234-5);}</style><linearGradient id="未命名的渐变_266" x1="7.95" y1="4.97" x2="24.85" y2="4.97" gradientUnits="userSpaceOnUse"><stop offset="0.08" stop-color="#297c30"/><stop offset="0.12" stop-color="#31822f"/><stop offset="0.27" stop-color="#4f982b"/><stop offset="0.42" stop-color="#67a929"/><stop offset="0.59" stop-color="#78b527"/><stop offset="0.77" stop-color="#82bd25"/><stop offset="1" stop-color="#85bf25"/></linearGradient><linearGradient id="未命名的渐变_232" x1="4.58" y1="15.31" x2="21.8" y2="15.55" gradientUnits="userSpaceOnUse"><stop offset="0" stop-color="#3067b1"/><stop offset="0.18" stop-color="#316eb6"/><stop offset="0.43" stop-color="#3580c2"/><stop offset="0.73" stop-color="#3c9dd7"/><stop offset="1" stop-color="#43bfef"/></linearGradient><linearGradient id="未命名的渐变_234" x1="4.45" y1="19.93" x2="9.85" y2="19.86" gradientUnits="userSpaceOnUse"><stop offset="0" stop-color="#3067b1"/><stop offset="1" stop-color="#004e90"/></linearGradient><linearGradient id="未命名的渐变_234-2" x1="4.72" y1="18.46" x2="10.11" y2="18.39" xlink:href="#未命名的渐变_234"/><linearGradient id="未命名的渐变_234-3" x1="3.92" y1="19.82" x2="10.01" y2="19.74" xlink:href="#未命名的渐变_234"/><linearGradient id="未命名的渐变_234-4" x1="4.47" y1="21.19" x2="9.87" y2="21.12" xlink:href="#未命名的渐变_234"/><linearGradient id="未命名的渐变_234-5" x1="4.15" y1="19.83" x2="9.38" y2="19.76" xlink:href="#未命名的渐变_234"/></defs><title>logo</title><path class="cls-1" d="M18.38,9.3a.13.13,0,0,0,.19.12,5.8,5.8,0,0,1,6.21-.2.05.05,0,0,0,.06-.08A6.84,6.84,0,0,0,20.34,7h0A6.74,6.74,0,0,0,8,3.55.05.05,0,0,0,8,3.62a6.79,6.79,0,0,1,4.73-1.25C18.09,3,18.57,7.94,18.38,9.3Z"/><path class="cls-2" d="M26.6,12.34a.06.06,0,0,0-.12,0,4.94,4.94,0,0,1-6.19,5.71C16.71,17,12.85,10.37,7.51,9.3a7.16,7.16,0,0,0-2.14-.09A6.18,6.18,0,0,0,5.83,21.5H7.42a.05.05,0,0,0,.05-.05V20.8a.05.05,0,0,0-.05-.05H6.6a.05.05,0,0,1-.05-.05V19.18a.05.05,0,0,1,.05-.05h.82a.05.05,0,0,0,.05-.05v-.65a.05.05,0,0,0-.05-.05c-.86,0-4.38.62-4.94-2a1.94,1.94,0,0,0,.73.9,2.77,2.77,0,0,0,1.1.27,3,3,0,0,1-1.14-3.05,3.56,3.56,0,0,1,4-3c4.21.34,5.54,9.16,12.13,10,0,0,.55.05.83.05a6.87,6.87,0,0,0,.73,0H21a6.87,6.87,0,0,0,5.62-9.12Z"/><path class="cls-3" d="M9.56,18.24H8.64a.05.05,0,0,0-.05.05v1a.05.05,0,0,1-.05.05h-1a.05.05,0,0,0-.05.05v.92a.05.05,0,0,0,.05.05h1a.05.05,0,0,1,.05.05v1a.05.05,0,0,0,.05.05h.92a.05.05,0,0,0,.05-.05v-1a.05.05,0,0,1,.05-.05h1a.05.05,0,0,0,.05-.05v-.92a.05.05,0,0,0-.05-.05h-1a.05.05,0,0,1-.05-.05v-1A.05.05,0,0,0,9.56,18.24Z"/><rect class="cls-4" x="10.63" y="17.98" width="0.79" height="0.79" rx="0.05" ry="0.05"/><rect class="cls-5" x="11.87" y="19.37" width="0.69" height="0.69" rx="0.06" ry="0.06"/><rect class="cls-6" x="10.8" y="20.71" width="0.79" height="0.79" rx="0.05" ry="0.05"/><path class="cls-7" d="M6.6,19.12h.82a.05.05,0,0,0,.05-.05v-.65a.05.05,0,0,0-.05-.05,11,11,0,0,1-2.65,0c-.27-.05-.92-.23-.92-.23V21a6.22,6.22,0,0,0,2,.52H7.42a.05.05,0,0,0,.05-.05V20.8a.05.05,0,0,0-.05-.05H6.6a.05.05,0,0,1-.05-.05V19.18A.05.05,0,0,1,6.6,19.12Z"/></svg>